<?xml version="1.0" encoding="UTF-8" standalone="no"?>
<!-- Generator: Adobe Illustrator 25.2.3, SVG Export Plug-In . SVG Version: 6.00 Build 0)  -->

<svg
   version="1.1"
   id="Layer_1"
   x="0px"
   y="0px"
   viewBox="0 0 1809.43 763.31"
   style="enable-background:new 0 0 1809.43 763.31;"
   xml:space="preserve"
   sodipodi:docname="logo-white.svg"
   inkscape:version="1.2 (dc2aedaf03, 2022-05-15)"
   xmlns:inkscape="http://www.inkscape.org/namespaces/inkscape"
   xmlns:sodipodi="http://sodipodi.sourceforge.net/DTD/sodipodi-0.dtd"
   xmlns="http://www.w3.org/2000/svg"
   xmlns:svg="http://www.w3.org/2000/svg"><defs
   id="defs25" /><sodipodi:namedview
   id="namedview23"
   pagecolor="#ffffff"
   bordercolor="#000000"
   borderopacity="0.25"
   inkscape:showpageshadow="2"
   inkscape:pageopacity="0.0"
   inkscape:pagecheckerboard="0"
   inkscape:deskcolor="#d1d1d1"
   showgrid="false"
   inkscape:zoom="0.66871886"
   inkscape:cx="904.71503"
   inkscape:cy="381.32617"
   inkscape:window-width="1920"
   inkscape:window-height="1009"
   inkscape:window-x="-8"
   inkscape:window-y="-8"
   inkscape:window-maximized="1"
   inkscape:current-layer="Layer_1" />
<style
   type="text/css"
   id="style2">
	.st0{fill:#3f4aaa;}
	.st1{fill:#161E2C;}
</style>
<path
   class="st0"
   d="M441.74,219.67c-3.96-9.42-8.65-18.54-14.05-27.23c-17.35-28.49-42.02-52.46-70.81-69.3  c-28.31-16.4-60.62-26.17-93.37-27.21c-6-0.69-12.05-0.63-18.05,0.05c-55.96,1.97-110.23,29.22-145.92,72.26  c-29.26,35.28-48.47,81.65-46.35,127.82c1.85,40.33,16.05,76.38,34.88,111.5c26.26,49,56.33,95.58,83.89,143.8  c27.5,46.21,55,92.43,82.5,138.65l97.72-160.41c35.92-59.65,77.22-117.8,96.03-185.79c4.7-16.98,7.31-33.98,7.61-50.87  C456.28,268.15,451.8,243.59,441.74,219.67z M371.3,318.33c-5.23,45.81-41.55,81.9-70.44,114.96  c-14.47,16.55-29.17,32.89-43.99,49.11c-0.81,0.88-1.61,1.77-2.42,2.65v-58.19c-63.56-1.62-117.68-56.21-117.68-123.08  c0-67.89,52.79-123.12,117.68-123.12c64.89,0,117.68,55.23,117.68,123.12C372.12,308.63,371.85,313.5,371.3,318.33z"
   id="path4" />
<path
   class="st0"
   d="M252.54,205.63v88.21h93.93C341.53,245.53,301.68,207.56,252.54,205.63z"
   id="path6" />
<path
   class="st0"
   d="M1473.36,292.48c-2.03-4.83-4.43-9.5-7.2-13.94c-8.88-14.59-21.52-26.86-36.26-35.49  c-14.5-8.4-31.04-13.4-47.81-13.93c-3.07-0.36-6.17-0.32-9.24,0.03c-28.65,1.01-56.45,14.96-74.73,37  c-14.98,18.07-24.82,41.81-23.74,65.45c0.95,20.65,8.22,39.11,17.86,57.1c13.45,25.09,28.85,48.95,42.96,73.64  c14.08,23.67,28.16,47.33,42.25,71l50.04-82.14c18.4-30.55,39.54-60.32,49.18-95.14c2.41-8.7,3.74-17.4,3.9-26.05  C1480.81,317.3,1478.51,304.73,1473.36,292.48z M1437.29,343c-2.68,23.46-21.28,41.94-36.07,58.87  c-7.41,8.47-14.94,16.84-22.53,25.15c-0.41,0.45-0.82,0.9-1.24,1.36v-29.8c-32.55-0.83-60.26-28.78-60.26-63.03  c0-34.77,27.03-63.05,60.26-63.05c33.23,0,60.26,28.28,60.26,63.05C1437.71,338.03,1437.57,340.53,1437.29,343z"
   id="path8" />
<path
   class="st0"
   d="M1376.47,285.29v45.17h48.1C1422.05,305.72,1401.64,286.27,1376.47,285.29z"
   id="path10" />
<path
   class="st1"
   d="M633.26,480.39h-11.49c-6.06,0-10.87-1.98-15.13-6.25c-4.26-4.25-6.24-9.05-6.24-15.12V341.64h15.62  c7.99,0,14.47-6.48,14.47-14.47v-24c0-7.99-6.48-14.47-14.47-14.47H600.4v-33.2c0-5.45-3.06-10.44-7.93-12.9l-24-12.17  c-2.06-1.04-4.3-1.56-6.54-1.56c-2.63,0-5.26,0.72-7.57,2.14c-4.28,2.63-6.89,7.3-6.89,12.33v45.37h-15.62  c-7.99,0-14.47,6.48-14.47,14.47v24c0,7.99,6.48,14.47,14.47,14.47h15.62v117.38c0,20.33,7.27,37.98,21.6,52.44  c14.37,14.51,32.1,21.87,52.71,21.87h11.49c7.99,0,14.47-6.48,14.47-14.47v-24C647.73,486.87,641.25,480.39,633.26,480.39z"
   id="path12"
   style="fill:#ffffff" />
<path
   class="st1"
   d="M764.23,288.7c-33.59,0-62.68,12.06-86.46,35.85c-23.79,23.79-35.85,52.88-35.85,86.47  c0,33.59,12.06,62.69,35.84,86.46c23.79,23.79,52.88,35.85,86.47,35.85c23.16,0,44.78-6.14,64.26-18.23  c19.45-12.07,34.47-28.4,44.66-48.52c2.27-4.49,2.05-9.83-0.58-14.11c-2.64-4.28-7.3-6.89-12.33-6.89h-28.06  c-4.62,0-8.96,2.21-11.69,5.94c-6.62,9.07-14.7,16.01-24.73,21.21c-9.95,5.16-20.26,7.67-31.54,7.67  c-18.45,0-33.96-6.13-47.41-18.74c-9.46-8.86-15.77-18.9-19.07-30.42h173.99c7.1,0,13.15-5.15,14.28-12.16  c0.35-2.17,0.52-4.8,0.52-8.06c0-33.58-12.06-62.68-35.85-86.47C826.9,300.76,797.81,288.7,764.23,288.7z M702.81,378.29  c4.22-8.04,10.11-15.08,17.78-21.27c12.8-10.35,27.07-15.38,43.64-15.38c16.57,0,30.84,5.03,43.64,15.37  c7.67,6.2,13.56,13.24,17.78,21.28H702.81z"
   id="path14"
   style="fill:#ffffff" />
<path
   class="st1"
   d="M1009.03,480.39c-16.01,0-29.32-5.48-40.69-16.76c-11.34-11.25-16.85-24.48-16.85-40.44V255.16  c0-5.51-3.13-10.54-8.07-12.98l-24-11.83c-2.02-1-4.21-1.49-6.4-1.49c-2.66,0-5.31,0.73-7.64,2.18c-4.25,2.64-6.83,7.29-6.83,12.28  v179.85c0,30.23,10.87,56.42,32.29,77.84c21.43,21.43,47.73,32.3,78.19,32.3c7.99,0,14.47-6.48,14.47-14.47v-24  C1023.5,486.87,1017.02,480.39,1009.03,480.39z"
   id="path16"
   style="fill:#ffffff" />
<path
   class="st1"
   d="M1136.17,288.7c-33.59,0-62.68,12.06-86.46,35.85c-23.79,23.79-35.85,52.88-35.85,86.47  c0,33.59,12.06,62.69,35.84,86.46c23.79,23.79,52.88,35.85,86.47,35.85c23.16,0,44.78-6.14,64.26-18.23  c19.45-12.07,34.47-28.4,44.66-48.52c2.27-4.49,2.05-9.83-0.58-14.11c-2.64-4.28-7.3-6.89-12.33-6.89h-28.06  c-4.62,0-8.96,2.21-11.69,5.94c-6.62,9.07-14.7,16.01-24.73,21.21c-9.95,5.16-20.26,7.67-31.54,7.67  c-18.45,0-33.96-6.13-47.41-18.74c-9.46-8.86-15.77-18.9-19.07-30.42h173.99c7.1,0,13.15-5.15,14.28-12.16  c0.35-2.17,0.52-4.8,0.52-8.06c0-33.58-12.06-62.68-35.85-86.47C1198.84,300.76,1169.75,288.7,1136.17,288.7z M1074.75,378.29  c4.22-8.04,10.11-15.08,17.78-21.27c12.8-10.35,27.07-15.38,43.64-15.38c16.57,0,30.84,5.03,43.64,15.37  c7.67,6.2,13.56,13.24,17.78,21.28H1074.75z"
   id="path18"
   style="fill:#ffffff" />
<path
   class="st1"
   d="M1734.84,467.78c-0.57-2.04-1.96-3.82-3.81-4.91l-7.98-4.69c-1.29-0.76-2.68-1.12-4.04-1.12  c-2.34,0-4.56,1.08-5.88,3.09c-8.9,13.51-17.3,23.63-24.87,30.01c-0.4,0.32-0.75,0.59-1.06,0.8c0.03-1.17,0.41-5.49,3.41-19.54  l22.39-103.75c3.73-17.27,5.17-30.85,4.38-41.54c-0.79-10.71-4.88-19.63-12.14-26.51c-7.3-6.89-16.22-10.39-26.49-10.39  c-16.95,0-33.92,7.93-50.47,23.59c-11.03,10.44-24.67,28.13-41.33,53.65l14.75-67.55c0.55-2.52-0.27-5.23-2.16-7.18  c-1.57-1.61-3.69-2.51-5.82-2.51c-0.44,0-0.89,0.04-1.33,0.12l-84.14,15.28c-4.03,0.73-6.47,4.61-5.49,8.69l2.13,8.87  c0.89,3.7,4.29,6.33,7.92,6.32c0.39,0,0.79-0.03,1.18-0.09l9.08-1.45c5.68-0.76,8.19-0.92,9.29-0.92c2.35,0,4.1,0.62,5.67,2  c1.83,1.62,2.16,2.92,2.24,3.99c0.08,1.08-0.06,6.54-5.27,31.4l-33.45,154.28c-0.5,2.29,0.13,4.75,1.71,6.66  c1.57,1.9,3.89,3.02,6.27,3.02h36.96c3.34,0,6.12-2.18,6.85-5.37l9.31-40.64c3.73-16.01,8.89-30.95,15.33-44.4  c12.45-26,24.66-47.6,36.27-64.22c11.31-16.18,22.52-27.88,33.35-34.78c6.15-3.96,10.03-4.79,12.19-4.79c1.44,0,2.16,0.47,2.7,0.95  c0.5,0.45,0.97,1.07,1.08,2.57c0.46,6.16-0.6,15.14-3.15,26.74l-21.26,99.06c-4.36,20.08-6.16,34.08-5.52,42.78  c0.61,8.27,3.67,15.07,9.07,20.2c5.45,5.19,12.36,7.83,20.53,7.83c9.06,0,18.83-3.67,29.1-10.94c13.61-9.84,27.64-26.24,41.69-48.73  C1735.14,471.95,1735.42,469.82,1734.84,467.78z"
   id="path20"
   style="fill:#ffffff" />
</svg>
