<?xml version="1.0" encoding="utf-8"?>
<!-- Generator: Adobe Illustrator 27.1.1, SVG Export Plug-In . SVG Version: 6.00 Build 0)  -->
<svg version="1.1" id="Layer_1" xmlns="http://www.w3.org/2000/svg" xmlns:xlink="http://www.w3.org/1999/xlink" x="0px" y="0px"
	 viewBox="0 0 799 476.95" style="enable-background:new 0 0 799 476.95;" xml:space="preserve">
<style type="text/css">
	.st0{fill:#3F4AAA;}
	.st1{fill:#FFFFFF;}
</style>
<g>
	<path class="st0" d="M557.42,328.16v-89.75c0-80.07-64.91-144.97-144.98-144.97H151.89c-80.07,0-144.97,64.91-144.97,144.97v0
		c0,80.07,64.91,144.98,144.97,144.98h388.68c0.34,0.01,0.68,0,1.01,0.01c12.27,0.26,24.55,0.05,36.83-0.39
		c0.67-0.02,1.34-0.04,2-0.07L557.42,328.16z"/>
	<g>
		<g>
			<path class="st0" d="M600.89,189.13c0-5.61,1.88-10.34,5.65-14.19c3.77-3.84,8.46-5.76,14.08-5.76c5.61,0,10.34,1.92,14.19,5.76
				c3.84,3.85,5.76,8.58,5.76,14.19c0,5.62-1.92,10.31-5.76,14.08c-3.84,3.77-8.57,5.65-14.19,5.65c-5.62,0-10.31-1.88-14.08-5.65
				C602.77,199.44,600.89,194.75,600.89,189.13z"/>
			<path class="st0" d="M666.57,245c0-8.55,1.64-16.15,4.93-22.81c3.29-6.66,7.8-12.21,13.56-16.64
				c5.75-4.44,12.41-7.81,19.97-10.11c7.56-2.3,15.7-3.45,24.41-3.45c8.55,0,16.64,1.15,24.29,3.45c7.64,2.3,14.3,5.67,19.97,10.11
				c5.67,4.44,10.15,9.99,13.44,16.64c3.29,6.66,4.93,14.26,4.93,22.81v76.19h-20.15c-10.8,0-19.55-8.75-19.55-19.55v-47.52
				c0-8.71-1.97-15.16-5.92-19.36c-3.94-4.19-9.62-6.29-17.01-6.29c-15.45,0-23.18,8.55-23.18,25.64v67.07h-19.99
				c-10.89,0-19.71-8.82-19.71-19.71V245z"/>
		</g>
		<path class="st0" d="M640.06,321.19h-19.33c-10.92,0-19.78-8.86-19.78-19.78v-62.14c0-10.92,8.86-19.78,19.78-19.78l0,0
			c10.92,0,19.78,8.86,19.78,19.78v81.47C640.51,320.99,640.31,321.19,640.06,321.19z"/>
	</g>
	<path class="st1" d="M260.18,268.87c9.42-1.8,16.87-4.38,22.36-7.75c5.49-3.36,9.29-7.45,11.42-12.28
		c2.13-4.83,3.2-10.28,3.2-16.34c0-5.57-1.28-10.98-3.81-16.22c-2.54-5.25-6.23-9.92-11.05-14.01c-4.85-4.09-10.78-7.33-17.83-9.71
		c-7.03-2.38-14.98-3.56-23.83-3.56c-9.5,0-18.35,1.6-26.54,4.79c-8.19,3.19-15.32,7.65-21.38,13.38
		c-6.05,5.75-10.81,12.7-14.24,20.89c-3.45,8.2-5.17,17.21-5.17,27.04c0,10.48,1.72,19.83,5.17,28.01
		c3.44,8.19,8.15,15.1,14.12,20.75c5.99,5.65,12.98,9.96,21.01,12.9c8.03,2.95,16.63,4.43,25.8,4.43c7.38,0,14.13-0.54,20.28-1.6
		c6.13-1.07,11.5-2.34,16.09-3.81c4.58-1.48,8.39-2.95,11.42-4.42c3.02-1.48,5.2-2.63,6.51-3.45l-12.06-24.12
		c-0.89-1.78-3.03-2.53-4.84-1.7c-0.02,0.01-0.04,0.02-0.05,0.02c-1.81,0.82-4.11,1.64-6.89,2.46c-2.79,0.83-6.05,1.6-9.83,2.34
		c-3.77,0.74-7.79,1.11-12.04,1.11c-5.57,0-10.32-0.5-14.26-1.48c-3.93-0.98-7.17-2.3-9.71-3.93c-2.54-1.64-4.5-3.4-5.89-5.29
		c-1.4-1.88-2.26-3.8-2.58-5.77h8.59C238.77,271.57,250.75,270.67,260.18,268.87z M213.61,246.01c0.16-3.28,0.82-6.51,1.97-9.71
		c1.14-3.18,2.82-6.01,5.03-8.47c2.21-2.46,4.95-4.46,8.23-6.03c3.28-1.54,7.13-2.32,11.56-2.32c6.21,0,10.89,1.26,14,3.8
		c3.11,2.55,4.67,5.53,4.67,8.97c0,1.65-0.34,3.29-0.98,4.91c-0.66,1.65-2.47,3.13-5.41,4.43c-2.95,1.32-7.46,2.38-13.52,3.19
		C233.1,245.61,224.59,246.01,213.61,246.01z"/>
	<path class="st1" d="M467.07,268.87c9.42-1.8,16.87-4.38,22.36-7.75c5.48-3.36,9.29-7.45,11.42-12.28
		c2.12-4.83,3.19-10.28,3.19-16.34c0-5.57-1.28-10.98-3.81-16.22c-2.54-5.25-6.23-9.92-11.06-14.01
		c-4.83-4.09-10.77-7.33-17.81-9.71c-7.03-2.38-14.98-3.56-23.83-3.56c-9.5,0-18.35,1.6-26.54,4.79
		c-8.2,3.19-15.32,7.65-21.38,13.38c-6.05,5.75-10.81,12.7-14.24,20.89c-3.45,8.2-5.17,17.21-5.17,27.04
		c0,10.48,1.72,19.83,5.17,28.01c3.44,8.19,8.15,15.1,14.12,20.75c5.97,5.65,12.98,9.96,21.01,12.9c8.03,2.95,16.63,4.43,25.8,4.43
		c7.37,0,14.14-0.54,20.27-1.6c6.15-1.07,11.52-2.34,16.09-3.81c4.59-1.48,8.4-2.95,11.44-4.42c3.02-1.48,5.19-2.63,6.51-3.45
		l-12.06-24.12c-0.89-1.78-3.03-2.53-4.84-1.7c-0.02,0.01-0.04,0.02-0.05,0.02c-1.81,0.82-4.11,1.64-6.89,2.46
		c-2.79,0.83-6.07,1.6-9.83,2.34c-3.77,0.74-7.79,1.11-12.04,1.11c-5.57,0-10.32-0.5-14.26-1.48c-3.93-0.98-7.17-2.3-9.71-3.93
		c-2.54-1.64-4.51-3.4-5.89-5.29c-1.4-1.88-2.26-3.8-2.58-5.77h8.59C445.65,271.57,457.65,270.67,467.07,268.87z M420.51,246.01
		c0.16-3.28,0.82-6.51,1.97-9.71c1.14-3.18,2.82-6.01,5.03-8.47c2.21-2.46,4.95-4.46,8.23-6.03c3.28-1.54,7.13-2.32,11.56-2.32
		c6.22,0,10.89,1.26,14,3.8c3.1,2.55,4.67,5.53,4.67,8.97c0,1.65-0.34,3.29-0.99,4.91c-0.64,1.65-2.46,3.13-5.4,4.43
		c-2.95,1.32-7.46,2.38-13.52,3.19C440,245.61,431.49,246.01,420.51,246.01z"/>
	<path class="st1" d="M357.55,321.24h-19.33c-10.92,0-19.78-8.86-19.78-19.78V175.92c0-10.92,8.86-19.78,19.78-19.78h0
		c10.92,0,19.78,8.86,19.78,19.78v144.87C358,321.04,357.8,321.24,357.55,321.24z"/>
	<g>
		<path class="st1" d="M79.31,160.03c-2.05,1.64-3.49,3.9-4.28,6.81C75.87,164.21,77.36,161.88,79.31,160.03z"/>
		<path class="st1" d="M74.29,171.7v1.34c0-2.32,0.26-4.38,0.75-6.2C74.55,168.37,74.29,170,74.29,171.7z"/>
		<path class="st1" d="M145.05,283.25c-3.77,1.38-7.95,2.08-12.52,2.08c-2.3,0-4.55-0.2-6.77-0.6c-2.21-0.42-4.17-1.27-5.89-2.59
			c-1.72-1.3-3.15-3.07-4.3-5.28c-1.15-2.21-1.72-5.19-1.72-8.97v-38.57h44.39v-14.1c0-12.76-10.34-23.1-23.1-23.1h-21.28v-19.96
			c0,0-0.01,0-0.01-0.01v-0.47c0-5.37-2.63-10.12-6.67-13.04c-2.41-1.74-5.31-2.68-8.27-2.91c-1.29-0.1-2.61-0.15-3.98-0.15
			c-6.23,0-11.22,1.32-14.99,3.93c-0.22,0.15-0.42,0.34-0.63,0.5c-1.95,1.85-3.44,4.18-4.28,6.81c-0.5,1.82-0.75,3.89-0.75,6.2
			v103.44c0,13.6,4.35,24.46,13.02,32.57c4.84,4.52,10.72,7.77,17.64,9.77c5.5,1.59,11.66,2.39,18.49,2.39
			c5.41,0,10.58-0.54,15.49-1.6c4.91-1.07,9.33-2.34,13.26-3.81c3.93-1.48,7.29-3.03,10.08-4.67c2.78-1.62,4.91-3.1,6.39-4.42
			L145.05,283.25z"/>
	</g>
</g>
</svg>
