<?xml version="1.0" encoding="utf-8"?>
<!-- Generator: Adobe Illustrator 25.2.3, SVG Export Plug-In . SVG Version: 6.00 Build 0)  -->
<svg version="1.1" id="Layer_1" xmlns="http://www.w3.org/2000/svg" xmlns:xlink="http://www.w3.org/1999/xlink" x="0px" y="0px"
	 viewBox="0 0 600.2 597.96" style="enable-background:new 0 0 600.2 597.96;" xml:space="preserve">
<style type="text/css">
	.st0{fill:#3f4aaa;}
</style>
<path class="st0" d="M457.43,148.56c-3.33-7.92-7.27-15.58-11.8-22.87c-14.57-23.93-35.3-44.07-59.48-58.22
	c-23.78-13.77-50.92-21.98-78.43-22.86c-5.04-0.58-10.12-0.53-15.16,0.04c-47,1.66-92.59,24.55-122.58,60.7
	c-24.58,29.63-40.72,68.59-38.94,107.37c1.56,33.87,13.49,64.16,29.3,93.66c22.06,41.16,47.32,80.29,70.46,120.79
	c23.1,38.82,46.2,77.64,69.3,116.46l82.08-134.74c30.17-50.11,64.86-98.95,80.66-156.06c3.95-14.26,6.14-28.54,6.4-42.73
	C469.64,189.28,465.88,168.66,457.43,148.56z M398.26,231.43c-4.39,38.48-34.9,68.8-59.17,96.56c-12.15,13.9-24.5,27.62-36.95,41.25
	c-0.68,0.74-1.35,1.48-2.03,2.22v-48.88c-53.39-1.36-98.85-47.22-98.85-103.39c0-57.03,44.34-103.42,98.85-103.42
	c54.51,0,98.85,46.39,98.85,103.42C398.95,223.29,398.72,227.38,398.26,231.43z"/>
<path class="st0" d="M298.5,136.77v74.09h78.9C373.26,170.28,339.78,138.39,298.5,136.77z"/>
</svg>
