<svg width="890" height="630" viewBox="0 0 890 630" fill="none" xmlns="http://www.w3.org/2000/svg">
<mask id="mask0_112_802" style="mask-type:luminance" maskUnits="userSpaceOnUse" x="0" y="-80" width="890" height="890">
<path d="M889.8 -80H0V809.8H889.8V-80Z" fill="white"/>
</mask>
<g mask="url(#mask0_112_802)">
<path d="M1598.8 602.3V308C1598.8 119.4 1445.9 -33.5 1257.3 -33.5H468.2C279.6 -33.5 126.7 119.4 126.7 308C126.7 496.6 126.9 413 127.2 419.1C136.8 599.1 285.8 732.4 468.2 732.4H1559.1C1559.9 732.4 1560.7 732.4 1561.5 732.4C1590.4 733 1619.3 732.5 1648.3 731.5C1649.9 731.5 1651.5 731.5 1653 731.3L1598.8 602.3Z" stroke="#364689" stroke-width="2" stroke-miterlimit="10"/>
<path d="M1573.5 592.9V308.2C1573.5 125.7 1425.6 -22.2 1243.1 -22.2H479.7C297.2 -22.2 149.3 125.7 149.3 308.2C149.3 490.7 149.5 409.8 149.8 415.7C159.1 589.9 303.3 718.8 479.7 718.8H1535.1C1535.9 718.8 1536.6 718.8 1537.4 718.8C1565.4 719.4 1593.4 718.9 1621.3 717.9C1622.8 717.9 1624.4 717.9 1625.9 717.7L1573.5 592.9Z" stroke="#364689" stroke-width="2" stroke-miterlimit="10"/>
<path d="M1548.1 583.6V308.5C1548.1 132.2 1405.1 -10.8 1228.8 -10.8H491.1C314.8 -10.8 171.8 132.2 171.8 308.5C171.8 484.8 172 406.6 172.3 412.4C181.3 580.7 320.6 705.3 491.1 705.3H1511C1511.7 705.3 1512.5 705.3 1513.2 705.3C1540.2 705.9 1567.3 705.4 1594.3 704.4C1595.8 704.4 1597.3 704.4 1598.7 704.2L1548.1 583.6Z" stroke="#364689" stroke-width="2" stroke-miterlimit="10"/>
<path d="M1522.8 574.2V308.7C1522.8 138.5 1384.8 0.5 1214.6 0.5H502.6C332.4 0.5 194.4 138.5 194.4 308.7C194.4 478.9 194.5 403.4 194.8 408.9C203.5 571.3 337.9 691.6 502.5 691.6H1486.9C1487.6 691.6 1488.3 691.6 1489 691.6C1515.1 692.2 1541.2 691.7 1567.3 690.8C1568.7 690.8 1570.1 690.8 1571.6 690.7L1522.7 574.3L1522.8 574.2Z" stroke="#364689" stroke-width="2" stroke-miterlimit="10"/>
<path d="M1497.5 564.9V308.9C1497.5 144.8 1364.5 11.9 1200.4 11.9H514.1C350 11.9 217.1 144.9 217.1 308.9C217.1 472.9 217.2 400.2 217.5 405.5C225.9 562.1 355.5 678 514.1 678H1462.9C1463.6 678 1464.3 678 1465 678C1490.1 678.5 1515.3 678.1 1540.5 677.2C1541.9 677.2 1543.2 677.2 1544.6 677.1L1497.5 564.9Z" stroke="#364689" stroke-width="2" stroke-miterlimit="10"/>
<path d="M1472.1 555.5V309.1C1472.1 151.2 1344.1 23.2 1186.2 23.2H525.6C367.7 23.2 239.7 151.2 239.7 309.1C239.7 467 239.8 397 240.1 402.1C248.1 552.8 372.9 664.4 525.6 664.4H1438.9C1439.6 664.4 1440.2 664.4 1440.9 664.4C1465.1 664.9 1489.3 664.4 1513.5 663.6C1514.8 663.6 1516.1 663.6 1517.4 663.5L1472.1 555.5Z" stroke="#364689" stroke-width="2" stroke-miterlimit="10"/>
<path d="M1446.8 546.1V309.3C1446.8 157.5 1323.8 34.5 1172 34.5H537.1C385.3 34.5 262.3 157.5 262.3 309.3C262.3 461.1 262.4 393.8 262.7 398.7C270.4 543.6 390.3 650.8 537.1 650.8H1414.9C1415.5 650.8 1416.2 650.8 1416.8 650.8C1440.1 651.3 1463.3 650.8 1486.6 650.1C1487.9 650.1 1489.1 650.1 1490.4 650L1446.8 546.2V546.1Z" stroke="#364689" stroke-width="2" stroke-miterlimit="10"/>
<path d="M1421.5 536.8V309.6C1421.5 164 1303.4 45.9 1157.8 45.9H548.6C403 45.9 284.9 164 284.9 309.6C284.9 455.2 285 390.6 285.3 395.4C292.7 534.4 407.8 637.3 548.6 637.3H1390.9C1391.5 637.3 1392.1 637.3 1392.7 637.3C1415 637.8 1437.4 637.3 1459.7 636.6C1460.9 636.6 1462.1 636.6 1463.3 636.5L1421.5 536.9V536.8Z" stroke="#364689" stroke-width="2" stroke-miterlimit="10"/>
<path d="M1396.1 527.4V309.8C1396.1 170.3 1283 57.3 1143.5 57.3H560C420.5 57.3 307.5 170.4 307.5 309.8C307.5 449.2 307.6 387.4 307.9 392C315 525.1 425.2 623.7 560.1 623.7H1366.8C1367.4 623.7 1368 623.7 1368.6 623.7C1390 624.2 1411.4 623.7 1432.8 623C1434 623 1435.1 623 1436.3 622.9L1396.2 527.5L1396.1 527.4Z" stroke="#364689" stroke-width="2" stroke-miterlimit="10"/>
<path d="M1370.8 518.1V310.1C1370.8 176.8 1262.7 68.7 1129.4 68.7H571.6C438.3 68.7 330.2 176.8 330.2 310.1C330.2 443.4 330.3 384.3 330.5 388.6C337.3 515.9 442.6 610.1 571.6 610.1H1342.8C1343.4 610.1 1343.9 610.1 1344.5 610.1C1364.9 610.5 1385.4 610.1 1405.8 609.4C1406.9 609.4 1408 609.4 1409.1 609.3L1370.8 518.1Z" stroke="#364689" stroke-width="2" stroke-miterlimit="10"/>
<path d="M1345.5 508.7V310.2C1345.5 183 1242.4 79.9 1115.2 79.9H583.1C455.9 79.9 352.8 183 352.8 310.2C352.8 437.4 352.9 381 353.1 385.1C359.6 506.5 460.1 596.4 583.1 596.4H1318.8C1319.3 596.4 1319.9 596.4 1320.4 596.4C1339.9 596.8 1359.4 596.4 1378.9 595.8C1380 595.8 1381 595.8 1382.1 595.7L1345.6 508.7H1345.5Z" stroke="#364689" stroke-width="2" stroke-miterlimit="10"/>
<path d="M1320.1 499.4V310.5C1320.1 189.4 1222 91.3 1100.9 91.3H594.5C473.4 91.3 375.3 189.4 375.3 310.5C375.3 431.6 375.4 377.9 375.6 381.8C381.8 497.3 477.4 582.9 594.5 582.9H1294.7C1295.2 582.9 1295.7 582.9 1296.2 582.9C1314.8 583.3 1333.3 582.9 1351.9 582.3C1352.9 582.3 1353.9 582.3 1354.9 582.2L1320.1 499.4Z" stroke="#364689" stroke-width="2" stroke-miterlimit="10"/>
<path d="M1294.8 490V310.7C1294.8 195.8 1201.6 102.6 1086.7 102.6H605.9C491 102.6 397.8 195.8 397.8 310.7C397.8 425.6 397.9 374.7 398.1 378.4C404 488.1 494.7 569.3 605.9 569.3H1270.5C1271 569.3 1271.5 569.3 1271.9 569.3C1289.5 569.7 1307.1 569.3 1324.8 568.7C1325.8 568.7 1326.7 568.7 1327.7 568.6L1294.7 490H1294.8Z" stroke="#364689" stroke-width="2" stroke-miterlimit="10"/>
<path d="M1269.5 480.6V310.9C1269.5 202.1 1181.3 114 1072.5 114H617.4C508.6 114 420.5 202.2 420.5 310.9C420.5 419.6 420.5 371.4 420.8 375C426.3 478.8 512.3 555.7 617.5 555.7H1246.6C1247.1 555.7 1247.5 555.7 1248 555.7C1264.7 556.1 1281.4 555.7 1298 555.2C1298.9 555.2 1299.8 555.2 1300.7 555.2L1269.5 480.8V480.6Z" stroke="#364689" stroke-width="2" stroke-miterlimit="10"/>
<path d="M1244.1 471.3V311.2C1244.1 208.6 1160.9 125.4 1058.3 125.4H628.9C526.3 125.4 443.1 208.6 443.1 311.2C443.1 413.8 443.1 368.3 443.4 371.6C448.6 469.6 529.7 542.1 629 542.1H1222.6C1223 542.1 1223.5 542.1 1223.9 542.1C1239.6 542.4 1255.4 542.1 1271.1 541.6C1272 541.6 1272.8 541.6 1273.7 541.6L1244.2 471.4L1244.1 471.3Z" stroke="#364689" stroke-width="2" stroke-miterlimit="10"/>
<path d="M1218.8 461.9V311.4C1218.8 214.9 1140.6 136.7 1044.1 136.7H640.4C543.9 136.7 465.7 214.9 465.7 311.4C465.7 407.9 465.7 365.1 466 368.2C470.9 460.3 547.1 528.5 640.5 528.5H1198.6C1199 528.5 1199.4 528.5 1199.8 528.5C1214.6 528.8 1229.4 528.5 1244.2 528C1245 528 1245.8 528 1246.6 528L1218.9 462L1218.8 461.9Z" stroke="#364689" stroke-width="2" stroke-miterlimit="10"/>
<path d="M1193.5 452.6V311.6C1193.5 221.3 1120.3 148 1029.9 148H651.9C561.6 148 488.3 221.2 488.3 311.6C488.3 402 488.3 361.9 488.5 364.8C493.1 451 564.5 514.9 651.8 514.9H1174.4C1174.8 514.9 1175.2 514.9 1175.5 514.9C1189.3 515.2 1203.2 514.9 1217.1 514.5C1217.9 514.5 1218.6 514.5 1219.4 514.5L1193.5 452.7V452.6Z" stroke="#364689" stroke-width="2" stroke-miterlimit="10"/>
<path d="M1168.1 443.2V311.8C1168.1 227.6 1099.8 159.3 1015.6 159.3H663.3C579.1 159.3 510.8 227.6 510.8 311.8C510.8 396 510.8 358.7 511 361.4C515.3 441.8 581.8 501.3 663.2 501.3H1150.2C1150.6 501.3 1150.9 501.3 1151.3 501.3C1164.2 501.6 1177.1 501.3 1190 500.9C1190.7 500.9 1191.4 500.9 1192.1 500.9L1167.9 443.3L1168.1 443.2Z" stroke="#364689" stroke-width="2" stroke-miterlimit="10"/>
<path d="M1142.8 433.9V312.1C1142.8 234 1079.5 170.8 1001.4 170.8H674.8C596.7 170.8 533.5 234.1 533.5 312.1C533.5 390.1 533.5 355.5 533.7 358.1C537.7 432.6 599.3 487.8 674.8 487.8H1126.3C1126.6 487.8 1127 487.8 1127.3 487.8C1139.3 488.1 1151.2 487.8 1163.2 487.4C1163.9 487.4 1164.5 487.4 1165.2 487.4L1142.8 434V433.9Z" stroke="#364689" stroke-width="2" stroke-miterlimit="10"/>
<path d="M1117.5 424.5V312.3C1117.5 240.4 1059.2 182.1 987.3 182.1H686.4C614.5 182.1 556.2 240.4 556.2 312.3C556.2 384.2 556.2 352.3 556.4 354.7C560.1 423.3 616.9 474.2 686.4 474.2H1102.4C1102.7 474.2 1103 474.2 1103.3 474.2C1114.3 474.4 1125.4 474.2 1136.4 473.8C1137 473.8 1137.6 473.8 1138.2 473.8L1117.5 424.6V424.5Z" stroke="#364689" stroke-width="2" stroke-miterlimit="10"/>
<path d="M1092.1 415.1V312.5C1092.1 246.7 1038.8 193.4 973 193.4H697.8C632 193.4 578.7 246.7 578.7 312.5C578.7 378.3 578.7 349.1 578.9 351.2C582.2 414 634.2 460.5 697.8 460.5H1078.3C1078.6 460.5 1078.9 460.5 1079.1 460.5C1089.2 460.7 1099.3 460.5 1109.4 460.2C1110 460.2 1110.5 460.2 1111 460.2L1092.1 415.2V415.1Z" stroke="#364689" stroke-width="2" stroke-miterlimit="10"/>
<path d="M1066.8 405.8V312.8C1066.8 253.2 1018.5 204.8 958.8 204.8H709.3C649.7 204.8 601.3 253.1 601.3 312.8C601.3 372.5 601.3 346 601.5 347.9C604.5 404.8 651.7 447 709.3 447H1054.2C1054.5 447 1054.7 447 1055 447C1064.1 447.2 1073.3 447 1082.4 446.7C1082.9 446.7 1083.4 446.7 1083.9 446.7L1066.8 405.9V405.8Z" stroke="#364689" stroke-width="2" stroke-miterlimit="10"/>
<path d="M1041.5 396.4V312.9C1041.5 259.4 998.1 216 944.6 216H720.8C667.3 216 623.9 259.4 623.9 312.9C623.9 366.4 623.9 342.7 624 344.4C626.7 395.5 669 433.3 720.7 433.3H1030.1C1030.3 433.3 1030.6 433.3 1030.8 433.3C1039 433.5 1047.2 433.3 1055.4 433C1055.8 433 1056.3 433 1056.7 433L1041.3 396.4H1041.5Z" stroke="#364689" stroke-width="2" stroke-miterlimit="10"/>
<path d="M1016.1 387.1V313.2C1016.1 265.8 977.7 227.5 930.4 227.5H732.3C684.9 227.5 646.6 265.9 646.6 313.2C646.6 360.5 646.6 339.6 646.7 341.1C649.1 386.3 686.5 419.8 732.3 419.8H1006.2C1006.4 419.8 1006.6 419.8 1006.8 419.8C1014.1 420 1021.3 419.8 1028.6 419.6C1029 419.6 1029.4 419.6 1029.8 419.6L1016.2 387.2L1016.1 387.1Z" stroke="#364689" stroke-width="2" stroke-miterlimit="10"/>
<path d="M990.8 377.7V313.4C990.8 272.2 957.4 238.8 916.2 238.8H743.8C702.6 238.8 669.2 272.2 669.2 313.4C669.2 354.6 669.2 336.3 669.3 337.7C671.4 377 704 406.2 743.8 406.2H982.2C982.4 406.2 982.5 406.2 982.7 406.2C989 406.3 995.3 406.2 1001.7 406C1002 406 1002.4 406 1002.7 406L990.9 377.8L990.8 377.7Z" stroke="#364689" stroke-width="2" stroke-miterlimit="10"/>
<path d="M965.4 368.4V313.7C965.4 278.6 937 250.2 901.9 250.2H755.2C720.1 250.2 691.7 278.6 691.7 313.7C691.7 348.8 691.7 333.2 691.7 334.4C693.5 367.9 721.2 392.6 755.1 392.6H957.9C958 392.6 958.2 392.6 958.3 392.6C963.7 392.7 969.1 392.6 974.4 392.4C974.7 392.4 975 392.4 975.3 392.4L965.2 368.4H965.4Z" stroke="#364689" stroke-width="2" stroke-miterlimit="10"/>
<path d="M940.1 359V313.9C940.1 285 916.6 261.5 887.7 261.5H766.7C737.8 261.5 714.3 285 714.3 313.9C714.3 342.8 714.3 330 714.3 330.9C715.8 358.5 738.6 378.9 766.6 378.9H933.9C934 378.9 934.1 378.9 934.3 378.9C938.7 378.9 943.2 378.9 947.6 378.8C947.8 378.8 948.1 378.8 948.3 378.8L940 359H940.1Z" stroke="#364689" stroke-width="2" stroke-miterlimit="10"/>
<path d="M914.8 349.6V314.1C914.8 291.3 896.3 272.8 873.5 272.8H778.2C755.4 272.8 736.9 291.3 736.9 314.1C736.9 336.9 736.9 326.8 736.9 327.5C738.1 349.2 756.1 365.3 778.1 365.3H909.9C909.9 365.3 910.1 365.3 910.2 365.3C913.7 365.3 917.2 365.3 920.7 365.2C920.9 365.2 921.1 365.2 921.3 365.2L914.8 349.6Z" stroke="#364689" stroke-width="2" stroke-miterlimit="10"/>
<path d="M889.4 340.3V314.3C889.4 297.7 875.9 284.2 859.3 284.2H789.7C773.1 284.2 759.6 297.7 759.6 314.3C759.6 330.9 759.6 323.6 759.6 324.1C760.4 340 773.6 351.7 789.7 351.7H886C886 351.7 886.1 351.7 886.2 351.7C888.8 351.7 891.3 351.7 893.9 351.7C894 351.7 894.2 351.7 894.3 351.7L889.5 340.3H889.4Z" stroke="#364689" stroke-width="2" stroke-miterlimit="10"/>
<path d="M864.1 330.9V314.5C864.1 304 855.6 295.5 845.1 295.5H801.2C790.7 295.5 782.2 304 782.2 314.5C782.2 325 782.2 320.3 782.2 320.7C782.7 330.7 791 338.1 801.2 338.1H861.9C861.9 338.1 861.9 338.1 862 338.1C863.6 338.1 865.2 338.1 866.8 338.1C866.8 338.1 867 338.1 867.1 338.1L864.1 330.9Z" stroke="#364689" stroke-width="2" stroke-miterlimit="10"/>
<path d="M838.8 321.6V314.8C838.8 310.4 835.3 306.9 830.9 306.9H812.7C808.3 306.9 804.8 310.4 804.8 314.8C804.8 319.2 804.8 317.2 804.8 317.4C805 321.6 808.5 324.6 812.7 324.6H837.9C838.6 324.6 839.2 324.6 839.9 324.6C839.9 324.6 839.9 324.6 840 324.6L838.7 321.6H838.8Z" stroke="#364689" stroke-width="2" stroke-miterlimit="10"/>
</g>
</svg>
