<svg width="139" height="81" viewBox="0 0 139 81" fill="none" xmlns="http://www.w3.org/2000/svg">
<path d="M97.5 25.7C97.5 11.5 86 0 71.8 0H25.7C11.5 0 0 11.5 0 25.7C0 39.9 11.5 51.4 25.7 51.4H94.5C94.5 51.4 94.6 51.4 94.7 51.4C96.9 51.4 99 51.4 101.2 51.4C101.3 51.4 101.4 51.4 101.6 51.4L97.5 41.7V25.7Z" fill="white"/>
<path d="M105.2 16.9C105.2 15.9 105.5 15.1 106.2 14.4C106.9 13.7 107.7 13.4 108.7 13.4C109.7 13.4 110.5 13.7 111.2 14.4C111.9 15.1 112.2 15.9 112.2 16.9C112.2 17.9 111.9 18.7 111.2 19.4C110.5 20.1 109.7 20.4 108.7 20.4C107.7 20.4 106.9 20.1 106.2 19.4C105.5 18.7 105.2 17.9 105.2 16.9Z" fill="white"/>
<path d="M116.8 26.8C116.8 25.3 117.1 23.9 117.7 22.8C118.3 21.6 119.1 20.6 120.1 19.9C121.1 19.1 122.3 18.5 123.6 18.1C124.9 17.7 126.4 17.5 127.9 17.5C129.4 17.5 130.8 17.7 132.2 18.1C133.6 18.5 134.7 19.1 135.7 19.9C136.7 20.7 137.5 21.7 138.1 22.8C138.7 24 139 25.3 139 26.8V40.3H135.4C133.5 40.3 131.9 38.8 131.9 36.8V28.4C131.9 26.9 131.6 25.7 130.9 25C130.2 24.3 129.2 23.9 127.9 23.9C125.2 23.9 123.8 25.4 123.8 28.4V40.3H120.3C118.4 40.3 116.8 38.7 116.8 36.8V26.8Z" fill="white"/>
<path d="M112.1 40.3H108.7C106.8 40.3 105.2 38.7 105.2 36.8V25.8C105.2 23.9 106.8 22.3 108.7 22.3C110.6 22.3 112.2 23.9 112.2 25.8V40.2" fill="white"/>
<path d="M44.9 31.1C46.6 30.8 47.9 30.3 48.9 29.7C49.9 29.1 50.5 28.4 50.9 27.5C51.3 26.6 51.5 25.7 51.5 24.6C51.5 23.5 51.3 22.7 50.8 21.7C50.3 20.8 49.7 19.9 48.8 19.2C47.9 18.5 46.9 17.9 45.6 17.5C44.4 17.1 42.9 16.9 41.4 16.9C39.9 16.9 38.1 17.2 36.7 17.7C35.2 18.3 34 19.1 32.9 20.1C31.8 21.1 31 22.3 30.4 23.8C29.8 25.3 29.5 26.8 29.5 28.6C29.5 30.4 29.8 32.1 30.4 33.6C31 35.1 31.8 36.3 32.9 37.3C34 38.3 35.2 39.1 36.6 39.6C38 40.1 39.5 40.4 41.2 40.4C42.9 40.4 43.7 40.4 44.8 40.1C45.9 39.9 46.8 39.7 47.6 39.4C48.4 39.1 49.1 38.9 49.6 38.6C50.1 38.3 50.5 38.1 50.8 38L48.7 33.7C48.5 33.4 48.2 33.3 47.8 33.4C47.5 33.5 47.1 33.7 46.6 33.8C46.1 33.9 45.5 34.1 44.9 34.2C44.2 34.3 43.5 34.4 42.8 34.4C42.1 34.4 41 34.4 40.3 34.1C39.6 33.9 39 33.7 38.6 33.4C38.2 33.1 37.8 32.8 37.6 32.5C37.4 32.2 37.2 31.8 37.1 31.5H38.6C41.2 31.5 43.3 31.3 45 31M36.8 27C36.8 26.4 36.9 25.8 37.1 25.3C37.3 24.7 37.6 24.2 38 23.8C38.4 23.4 38.9 23 39.5 22.7C40.1 22.4 40.8 22.3 41.5 22.3C42.2 22.3 43.4 22.5 44 23C44.6 23.5 44.8 24 44.8 24.6C44.8 25.2 44.8 25.2 44.6 25.5C44.5 25.8 44.2 26.1 43.6 26.3C43.1 26.5 42.3 26.7 41.2 26.9C40.1 27 38.6 27.1 36.7 27.1" fill="#3F4AAA"/>
<path d="M81.5 31.1C83.2 30.8 84.5 30.3 85.5 29.7C86.5 29.1 87.1 28.4 87.5 27.5C87.9 26.6 88.1 25.7 88.1 24.6C88.1 23.5 87.9 22.7 87.4 21.7C87 20.8 86.3 19.9 85.4 19.2C84.5 18.5 83.5 17.9 82.2 17.5C81 17.1 79.5 16.9 78 16.9C76.5 16.9 74.7 17.2 73.3 17.7C71.8 18.3 70.6 19.1 69.5 20.1C68.4 21.1 67.6 22.3 67 23.8C66.4 25.3 66.1 26.8 66.1 28.6C66.1 30.4 66.4 32.1 67 33.6C67.6 35.1 68.4 36.3 69.5 37.3C70.6 38.3 71.8 39.1 73.2 39.6C74.6 40.1 76.1 40.4 77.8 40.4C79.5 40.4 80.3 40.4 81.4 40.1C82.5 39.9 83.4 39.7 84.2 39.4C85 39.1 85.7 38.9 86.2 38.6C86.7 38.3 87.1 38.1 87.4 38L85.3 33.7C85.1 33.4 84.8 33.3 84.4 33.4C84.1 33.5 83.7 33.7 83.2 33.8C82.7 33.9 82.1 34.1 81.5 34.2C80.8 34.3 80.1 34.4 79.4 34.4C78.7 34.4 77.6 34.4 76.9 34.1C76.2 33.9 75.6 33.7 75.2 33.4C74.8 33.1 74.4 32.8 74.2 32.5C74 32.2 73.8 31.8 73.7 31.5H75.2C77.8 31.5 79.9 31.3 81.6 31M73.4 27C73.4 26.4 73.5 25.8 73.7 25.3C73.9 24.7 74.2 24.2 74.6 23.8C75 23.4 75.5 23 76.1 22.7C76.7 22.4 77.4 22.3 78.1 22.3C78.8 22.3 80 22.5 80.6 23C81.1 23.5 81.4 24 81.4 24.6C81.4 25.2 81.4 25.2 81.2 25.5C81.1 25.8 80.8 26.1 80.2 26.3C79.7 26.5 78.9 26.7 77.8 26.9C76.7 27 75.2 27.1 73.3 27.1" fill="#3F4AAA"/>
<path d="M62.1 40.4H58.7C56.8 40.4 55.2 38.8 55.2 36.9V14.6C55.2 12.7 56.8 11.1 58.7 11.1C60.6 11.1 62.2 12.7 62.2 14.6V40.3" fill="#3F4AAA"/>
<path d="M12.8 11.8C12.4 12.1 12.2 12.5 12 13C12.1 12.5 12.4 12.1 12.8 11.8Z" fill="#3F4AAA"/>
<path d="M11.9 13.9V14.1C11.9 13.7 11.9 13.3 12 13C12 13.3 11.9 13.6 11.9 13.9Z" fill="#3F4AAA"/>
<path d="M24.5 33.6C23.8 33.8 23.1 34 22.3 34C21.5 34 21.5 34 21.1 33.9C20.7 33.9 20.4 33.7 20.1 33.4C19.8 33.2 19.5 32.9 19.3 32.5C19.1 32.1 19 31.6 19 30.9V24.1H26.9V21.6C26.9 19.3 25.1 17.5 22.8 17.5H19V14C19 13 18.5 12.1 17.8 11.6C17.4 11.3 16.9 11.1 16.3 11.1C16.1 11.1 15.8 11.1 15.6 11.1C14.5 11.1 13.6 11.3 12.9 11.8C12.9 11.8 12.9 11.8 12.8 11.8C12.5 12.1 12.2 12.5 12 13C12 13.3 11.9 13.7 11.9 14.1V32.4C11.9 34.8 12.7 36.7 14.2 38.2C15.1 39 16.1 39.6 17.3 39.9C18.3 40.2 19.4 40.3 20.6 40.3C21.8 40.3 22.5 40.3 23.3 40C24.2 39.8 25 39.6 25.6 39.3C26.3 39 26.9 38.8 27.4 38.5C27.9 38.2 28.3 38 28.5 37.7L24.3 33.5L24.5 33.6Z" fill="#3F4AAA"/>
<path d="M7.13328 80.944C6.44528 80.944 5.84128 80.824 5.32128 80.584C4.80128 80.344 4.39328 80.004 4.09728 79.564C3.80928 79.132 3.66528 78.624 3.66528 78.04C3.66528 77.424 3.84928 76.848 4.21728 76.312C4.58528 75.776 5.16928 75.244 5.96928 74.716L4.16928 73.204V72.124C4.38528 71.86 4.68928 71.612 5.08128 71.38C5.47328 71.148 5.90128 70.96 6.36528 70.816C6.82928 70.672 7.27728 70.6 7.70928 70.6C8.11728 70.6 8.49328 70.668 8.83728 70.804C9.18928 70.94 9.47328 71.136 9.68928 71.392C9.90528 71.64 10.0133 71.94 10.0133 72.292C10.0133 72.676 9.85728 73.068 9.54528 73.468C9.23328 73.868 8.72128 74.284 8.00928 74.716C8.07328 74.748 8.15728 74.772 8.26128 74.788C8.36528 74.804 8.46128 74.812 8.54928 74.812H11.2853V76H8.08128C7.84928 76 7.65328 75.968 7.49328 75.904C7.34128 75.84 7.13728 75.708 6.88128 75.508C5.70528 76.212 5.11728 77.024 5.11728 77.944C5.11728 78.496 5.31728 78.924 5.71728 79.228C6.11728 79.54 6.64528 79.696 7.30128 79.696C7.74928 79.696 8.20528 79.628 8.66928 79.492C9.13328 79.364 9.53728 79.188 9.88128 78.964L10.4933 79.996C10.2053 80.188 9.87328 80.352 9.49728 80.488C9.12128 80.632 8.72928 80.744 8.32128 80.824C7.92128 80.904 7.52528 80.944 7.13328 80.944ZM7.62528 71.704C6.92128 71.704 6.16928 71.992 5.36928 72.568L7.03728 74.056C7.64528 73.68 8.06528 73.372 8.29728 73.132C8.52928 72.892 8.64528 72.656 8.64528 72.424C8.64528 72.192 8.55728 72.016 8.38128 71.896C8.20528 71.768 7.95328 71.704 7.62528 71.704Z" fill="white"/>
<path d="M13.3135 71.344C13.8095 70.848 14.4815 70.6 15.3295 70.6C16.1535 70.6 16.8135 70.84 17.3095 71.32C17.8055 71.792 18.0535 72.48 18.0535 73.384C18.0535 73.872 18.1455 74.232 18.3295 74.464C18.5135 74.696 18.8415 74.812 19.3135 74.812H19.7455V76H19.1215C18.3935 76 17.8415 75.748 17.4655 75.244C16.9775 75.828 16.2775 76.12 15.3655 76.12C14.4375 76.12 13.7295 75.832 13.2415 75.256C13.0735 75.536 12.8375 75.732 12.5335 75.844C12.2375 75.948 11.8975 76 11.5135 76H10.9255V74.812H11.3215C11.7455 74.812 12.0615 74.704 12.2695 74.488C12.4775 74.272 12.5815 73.9 12.5815 73.372C12.5815 72.508 12.8255 71.832 13.3135 71.344ZM15.3295 74.944C15.7775 74.944 16.1175 74.8 16.3495 74.512C16.5815 74.224 16.6975 73.84 16.6975 73.36C16.6975 72.88 16.5815 72.496 16.3495 72.208C16.1175 71.92 15.7775 71.776 15.3295 71.776C14.8895 71.776 14.5495 71.92 14.3095 72.208C14.0775 72.496 13.9615 72.88 13.9615 73.36C13.9615 73.84 14.0775 74.224 14.3095 74.512C14.5495 74.8 14.8895 74.944 15.3295 74.944Z" fill="white"/>
<path d="M22.7344 73.216C22.7344 73.632 22.7744 73.956 22.8544 74.188C22.9424 74.42 23.0864 74.584 23.2864 74.68C23.4864 74.768 23.7664 74.812 24.1264 74.812H24.7384V76H23.5504C22.8544 76 22.3624 75.728 22.0744 75.184C21.8984 75.488 21.6504 75.7 21.3304 75.82C21.0104 75.94 20.5184 76 19.8544 76H19.3864V74.812H19.9864C20.3464 74.812 20.6264 74.764 20.8264 74.668C21.0344 74.572 21.1784 74.408 21.2584 74.176C21.3384 73.944 21.3784 73.624 21.3784 73.216V71.296C21.3784 71.088 21.4424 70.932 21.5704 70.828C21.7064 70.716 21.8824 70.66 22.0984 70.66C22.2104 70.66 22.3264 70.672 22.4464 70.696C22.5664 70.72 22.6624 70.752 22.7344 70.792V73.216ZM22.5904 69.688C22.4464 69.536 22.3744 69.36 22.3744 69.16C22.3744 68.952 22.4464 68.776 22.5904 68.632C22.7344 68.488 22.9064 68.416 23.1064 68.416C23.3144 68.416 23.4904 68.488 23.6344 68.632C23.7864 68.776 23.8624 68.952 23.8624 69.16C23.8624 69.36 23.7864 69.536 23.6344 69.688C23.4904 69.832 23.3144 69.904 23.1064 69.904C22.9064 69.904 22.7344 69.832 22.5904 69.688ZM20.4904 69.688C20.3464 69.536 20.2744 69.36 20.2744 69.16C20.2744 68.952 20.3464 68.776 20.4904 68.632C20.6344 68.488 20.8064 68.416 21.0064 68.416C21.2144 68.416 21.3904 68.488 21.5344 68.632C21.6784 68.776 21.7504 68.952 21.7504 69.16C21.7504 69.36 21.6784 69.536 21.5344 69.688C21.3904 69.832 21.2144 69.904 21.0064 69.904C20.8064 69.904 20.6344 69.832 20.4904 69.688Z" fill="white"/>
<path d="M29.9589 73.408C30.2709 73.88 30.5509 74.348 30.7989 74.812H32.0709V76H24.3669V74.812H29.2389C29.0069 74.428 28.7669 74.068 28.5189 73.732C28.2789 73.388 28.0549 73.104 27.8469 72.88C27.5029 72.48 27.1789 72.204 26.8749 72.052C26.5789 71.9 26.2749 71.824 25.9629 71.824C25.8349 71.824 25.7149 71.836 25.6029 71.86C25.4989 71.884 25.3909 71.916 25.2789 71.956C25.0869 71.724 24.9909 71.496 24.9909 71.272C24.9909 71.064 25.0949 70.9 25.3029 70.78C25.5189 70.66 25.8109 70.6 26.1789 70.6C26.6909 70.6 27.1549 70.72 27.5709 70.96C27.9949 71.2 28.4309 71.56 28.8789 72.04C29.2869 72.48 29.6469 72.936 29.9589 73.408ZM27.0429 78.1C26.8989 77.956 26.8269 77.784 26.8269 77.584C26.8269 77.392 26.8989 77.22 27.0429 77.068C27.1949 76.924 27.3749 76.852 27.5829 76.852C27.7909 76.852 27.9669 76.924 28.1109 77.068C28.2629 77.22 28.3389 77.392 28.3389 77.584C28.3389 77.784 28.2629 77.956 28.1109 78.1C27.9669 78.252 27.7909 78.328 27.5829 78.328C27.3749 78.328 27.1949 78.252 27.0429 78.1Z" fill="white"/>
<path d="M34.1025 71.344C34.5985 70.848 35.2705 70.6 36.1185 70.6C36.9425 70.6 37.6025 70.84 38.0985 71.32C38.5945 71.792 38.8425 72.48 38.8425 73.384C38.8425 73.872 38.9345 74.232 39.1185 74.464C39.3025 74.696 39.6305 74.812 40.1025 74.812H40.5345V76H39.9105C39.1825 76 38.6305 75.748 38.2545 75.244C37.7665 75.828 37.0665 76.12 36.1545 76.12C35.2265 76.12 34.5185 75.832 34.0305 75.256C33.8625 75.536 33.6265 75.732 33.3225 75.844C33.0265 75.948 32.6865 76 32.3025 76H31.7145V74.812H32.1105C32.5345 74.812 32.8505 74.704 33.0585 74.488C33.2665 74.272 33.3705 73.9 33.3705 73.372C33.3705 72.508 33.6145 71.832 34.1025 71.344ZM36.1185 74.944C36.5665 74.944 36.9065 74.8 37.1385 74.512C37.3705 74.224 37.4865 73.84 37.4865 73.36C37.4865 72.88 37.3705 72.496 37.1385 72.208C36.9065 71.92 36.5665 71.776 36.1185 71.776C35.6785 71.776 35.3385 71.92 35.0985 72.208C34.8665 72.496 34.7505 72.88 34.7505 73.36C34.7505 73.84 34.8665 74.224 35.0985 74.512C35.3385 74.8 35.6785 74.944 36.1185 74.944Z" fill="white"/>
<path d="M43.3435 76H40.1755V74.812H41.9875V67.192C41.9875 66.984 42.0515 66.828 42.1795 66.724C42.3155 66.612 42.4915 66.556 42.7075 66.556C42.8195 66.556 42.9355 66.568 43.0555 66.592C43.1755 66.616 43.2715 66.648 43.3435 66.688V76Z" fill="white"/>
<path d="M46.1714 76H44.8154V67.192C44.8154 66.984 44.8794 66.828 45.0074 66.724C45.1434 66.612 45.3194 66.556 45.5354 66.556C45.6474 66.556 45.7634 66.568 45.8834 66.592C46.0034 66.616 46.0994 66.648 46.1714 66.688V76Z" fill="white"/>
<path d="M57.3086 78.76H54.3806C53.1166 78.76 52.1606 78.468 51.5126 77.884C50.8726 77.3 50.5526 76.38 50.5526 75.124C50.5526 74.804 50.5726 74.516 50.6126 74.26C50.6606 73.996 50.7326 73.788 50.8286 73.636C50.9886 73.38 51.2286 73.252 51.5486 73.252C51.7966 73.252 52.0206 73.324 52.2206 73.468C52.1166 73.836 52.0406 74.168 51.9926 74.464C51.9526 74.76 51.9326 75.024 51.9326 75.256C51.9326 75.96 52.1166 76.516 52.4846 76.924C52.8606 77.332 53.3926 77.536 54.0806 77.536H55.9526V72.844C55.9526 72.396 56.0606 72.004 56.2766 71.668C56.4926 71.332 56.7926 71.072 57.1766 70.888C57.5686 70.696 58.0246 70.6 58.5446 70.6C59.0646 70.6 59.5166 70.692 59.9006 70.876C60.2926 71.06 60.5966 71.32 60.8126 71.656C61.0286 71.992 61.1366 72.388 61.1366 72.844V74.812H62.7566V76H59.7806V73.288C59.7806 72.816 59.6726 72.456 59.4566 72.208C59.2486 71.952 58.9446 71.824 58.5446 71.824C57.7206 71.824 57.3086 72.312 57.3086 73.288V78.76Z" fill="white"/>
<path d="M65.5622 76H62.3942V74.812H64.2062V67.192C64.2062 66.984 64.2702 66.828 64.3982 66.724C64.5342 66.612 64.7102 66.556 64.9262 66.556C65.0382 66.556 65.1542 66.568 65.2742 66.592C65.3942 66.616 65.4902 66.648 65.5622 66.688V76Z" fill="white"/>
<path d="M68.3902 76H67.0342V67.192C67.0342 66.984 67.0982 66.828 67.2262 66.724C67.3622 66.612 67.5382 66.556 67.7542 66.556C67.8662 66.556 67.9822 66.568 68.1022 66.592C68.2222 66.616 68.3182 66.648 68.3902 66.688V76Z" fill="white"/>
<path d="M76.2153 80.944C75.5273 80.944 74.9233 80.824 74.4033 80.584C73.8833 80.344 73.4753 80.004 73.1793 79.564C72.8913 79.132 72.7473 78.624 72.7473 78.04C72.7473 77.424 72.9313 76.848 73.2993 76.312C73.6673 75.776 74.2513 75.244 75.0513 74.716L73.2513 73.204V72.124C73.4673 71.86 73.7713 71.612 74.1633 71.38C74.5553 71.148 74.9833 70.96 75.4473 70.816C75.9113 70.672 76.3593 70.6 76.7913 70.6C77.1993 70.6 77.5753 70.668 77.9193 70.804C78.2713 70.94 78.5553 71.136 78.7713 71.392C78.9873 71.64 79.0953 71.94 79.0953 72.292C79.0953 72.676 78.9393 73.068 78.6273 73.468C78.3153 73.868 77.8033 74.284 77.0913 74.716C77.1553 74.748 77.2393 74.772 77.3433 74.788C77.4473 74.804 77.5433 74.812 77.6313 74.812H80.3673V76H77.1633C76.9313 76 76.7353 75.968 76.5753 75.904C76.4233 75.84 76.2193 75.708 75.9633 75.508C74.7873 76.212 74.1993 77.024 74.1993 77.944C74.1993 78.496 74.3993 78.924 74.7993 79.228C75.1993 79.54 75.7273 79.696 76.3833 79.696C76.8313 79.696 77.2873 79.628 77.7513 79.492C78.2153 79.364 78.6193 79.188 78.9633 78.964L79.5753 79.996C79.2873 80.188 78.9553 80.352 78.5793 80.488C78.2033 80.632 77.8113 80.744 77.4033 80.824C77.0033 80.904 76.6073 80.944 76.2153 80.944ZM76.7073 71.704C76.0033 71.704 75.2513 71.992 74.4513 72.568L76.1193 74.056C76.7273 73.68 77.1473 73.372 77.3793 73.132C77.6113 72.892 77.7273 72.656 77.7273 72.424C77.7273 72.192 77.6393 72.016 77.4633 71.896C77.2873 71.768 77.0353 71.704 76.7073 71.704Z" fill="white"/>
<path d="M82.3955 71.344C82.8915 70.848 83.5635 70.6 84.4115 70.6C85.2355 70.6 85.8955 70.84 86.3915 71.32C86.8875 71.792 87.1355 72.48 87.1355 73.384C87.1355 73.872 87.2275 74.232 87.4115 74.464C87.5955 74.696 87.9235 74.812 88.3955 74.812H88.8275V76H88.2035C87.4755 76 86.9235 75.748 86.5475 75.244C86.0595 75.828 85.3595 76.12 84.4475 76.12C83.5195 76.12 82.8115 75.832 82.3235 75.256C82.1555 75.536 81.9195 75.732 81.6155 75.844C81.3195 75.948 80.9795 76 80.5955 76H80.0075V74.812H80.4035C80.8275 74.812 81.1435 74.704 81.3515 74.488C81.5595 74.272 81.6635 73.9 81.6635 73.372C81.6635 72.508 81.9075 71.832 82.3955 71.344ZM84.4115 74.944C84.8595 74.944 85.1995 74.8 85.4315 74.512C85.6635 74.224 85.7795 73.84 85.7795 73.36C85.7795 72.88 85.6635 72.496 85.4315 72.208C85.1995 71.92 84.8595 71.776 84.4115 71.776C83.9715 71.776 83.6315 71.92 83.3915 72.208C83.1595 72.496 83.0435 72.88 83.0435 73.36C83.0435 73.84 83.1595 74.224 83.3915 74.512C83.6315 74.8 83.9715 74.944 84.4115 74.944Z" fill="white"/>
<path d="M91.8164 73.216C91.8164 73.632 91.8564 73.956 91.9364 74.188C92.0244 74.42 92.1684 74.584 92.3684 74.68C92.5684 74.768 92.8484 74.812 93.2084 74.812H93.8204V76H92.6324C91.9364 76 91.4444 75.728 91.1564 75.184C90.9804 75.488 90.7324 75.7 90.4124 75.82C90.0924 75.94 89.6004 76 88.9364 76H88.4684V74.812H89.0684C89.4284 74.812 89.7084 74.764 89.9084 74.668C90.1164 74.572 90.2604 74.408 90.3404 74.176C90.4204 73.944 90.4604 73.624 90.4604 73.216V71.296C90.4604 71.088 90.5244 70.932 90.6524 70.828C90.7884 70.716 90.9644 70.66 91.1804 70.66C91.2924 70.66 91.4084 70.672 91.5284 70.696C91.6484 70.72 91.7444 70.752 91.8164 70.792V73.216ZM91.6724 69.688C91.5284 69.536 91.4564 69.36 91.4564 69.16C91.4564 68.952 91.5284 68.776 91.6724 68.632C91.8164 68.488 91.9884 68.416 92.1884 68.416C92.3964 68.416 92.5724 68.488 92.7164 68.632C92.8684 68.776 92.9444 68.952 92.9444 69.16C92.9444 69.36 92.8684 69.536 92.7164 69.688C92.5724 69.832 92.3964 69.904 92.1884 69.904C91.9884 69.904 91.8164 69.832 91.6724 69.688ZM89.5724 69.688C89.4284 69.536 89.3564 69.36 89.3564 69.16C89.3564 68.952 89.4284 68.776 89.5724 68.632C89.7164 68.488 89.8884 68.416 90.0884 68.416C90.2964 68.416 90.4724 68.488 90.6164 68.632C90.7604 68.776 90.8324 68.952 90.8324 69.16C90.8324 69.36 90.7604 69.536 90.6164 69.688C90.4724 69.832 90.2964 69.904 90.0884 69.904C89.8884 69.904 89.7164 69.832 89.5724 69.688Z" fill="white"/>
<path d="M99.0409 73.408C99.3529 73.88 99.6329 74.348 99.8809 74.812H101.153V76H93.4489V74.812H98.3209C98.0889 74.428 97.8489 74.068 97.6009 73.732C97.3609 73.388 97.1369 73.104 96.9289 72.88C96.5849 72.48 96.2609 72.204 95.9569 72.052C95.6609 71.9 95.3569 71.824 95.0449 71.824C94.9169 71.824 94.7969 71.836 94.6849 71.86C94.5809 71.884 94.4729 71.916 94.3609 71.956C94.1689 71.724 94.0729 71.496 94.0729 71.272C94.0729 71.064 94.1769 70.9 94.3849 70.78C94.6009 70.66 94.8929 70.6 95.2609 70.6C95.7729 70.6 96.2369 70.72 96.6529 70.96C97.0769 71.2 97.5129 71.56 97.9609 72.04C98.3689 72.48 98.7289 72.936 99.0409 73.408ZM96.1249 78.1C95.9809 77.956 95.9089 77.784 95.9089 77.584C95.9089 77.392 95.9809 77.22 96.1249 77.068C96.2769 76.924 96.4569 76.852 96.6649 76.852C96.8729 76.852 97.0489 76.924 97.1929 77.068C97.3449 77.22 97.4209 77.392 97.4209 77.584C97.4209 77.784 97.3449 77.956 97.1929 78.1C97.0489 78.252 96.8729 78.328 96.6649 78.328C96.4569 78.328 96.2769 78.252 96.1249 78.1Z" fill="white"/>
<path d="M103.185 71.344C103.681 70.848 104.353 70.6 105.201 70.6C106.025 70.6 106.685 70.84 107.181 71.32C107.677 71.792 107.925 72.48 107.925 73.384C107.925 73.872 108.017 74.232 108.201 74.464C108.385 74.696 108.713 74.812 109.185 74.812H109.617V76H108.993C108.265 76 107.713 75.748 107.337 75.244C106.849 75.828 106.149 76.12 105.237 76.12C104.309 76.12 103.601 75.832 103.113 75.256C102.945 75.536 102.709 75.732 102.405 75.844C102.109 75.948 101.769 76 101.385 76H100.797V74.812H101.193C101.617 74.812 101.933 74.704 102.141 74.488C102.349 74.272 102.453 73.9 102.453 73.372C102.453 72.508 102.697 71.832 103.185 71.344ZM105.201 74.944C105.649 74.944 105.989 74.8 106.221 74.512C106.453 74.224 106.569 73.84 106.569 73.36C106.569 72.88 106.453 72.496 106.221 72.208C105.989 71.92 105.649 71.776 105.201 71.776C104.761 71.776 104.421 71.92 104.181 72.208C103.949 72.496 103.833 72.88 103.833 73.36C103.833 73.84 103.949 74.224 104.181 74.512C104.421 74.8 104.761 74.944 105.201 74.944Z" fill="white"/>
<path d="M112.425 76H109.257V74.812H111.07V67.192C111.07 66.984 111.133 66.828 111.261 66.724C111.397 66.612 111.573 66.556 111.789 66.556C111.901 66.556 112.017 66.568 112.137 66.592C112.257 66.616 112.353 66.648 112.425 66.688V76Z" fill="white"/>
<path d="M115.253 76H113.897V67.192C113.897 66.984 113.961 66.828 114.089 66.724C114.225 66.612 114.401 66.556 114.617 66.556C114.729 66.556 114.845 66.568 114.965 66.592C115.085 66.616 115.181 66.648 115.253 66.688V76Z" fill="white"/>
<path d="M125.095 71.296C125.095 71.088 125.163 70.932 125.299 70.828C125.435 70.716 125.611 70.66 125.827 70.66C125.939 70.66 126.055 70.672 126.175 70.696C126.295 70.72 126.391 70.752 126.463 70.792V73.48C126.463 73.968 126.551 74.312 126.727 74.512C126.911 74.712 127.211 74.812 127.627 74.812H128.443V76H127.627C127.171 76 126.775 75.868 126.439 75.604C126.311 76.668 125.955 77.468 125.371 78.004C124.787 78.548 123.995 78.82 122.995 78.82C121.907 78.82 121.075 78.512 120.499 77.896C119.923 77.288 119.635 76.408 119.635 75.256C119.635 74.944 119.655 74.66 119.695 74.404C119.743 74.14 119.811 73.92 119.899 73.744C120.067 73.416 120.303 73.252 120.607 73.252C120.839 73.252 121.067 73.324 121.291 73.468C121.203 73.78 121.135 74.08 121.087 74.368C121.039 74.656 121.015 74.936 121.015 75.208C121.015 75.96 121.191 76.544 121.543 76.96C121.895 77.376 122.387 77.584 123.019 77.584C123.691 77.584 124.203 77.348 124.555 76.876C124.915 76.412 125.095 75.74 125.095 74.86V71.296ZM122.551 69.712C122.399 69.56 122.323 69.384 122.323 69.184C122.323 68.984 122.399 68.812 122.551 68.668C122.703 68.516 122.883 68.44 123.091 68.44C123.299 68.44 123.475 68.516 123.619 68.668C123.763 68.812 123.835 68.984 123.835 69.184C123.835 69.384 123.763 69.56 123.619 69.712C123.475 69.856 123.299 69.928 123.091 69.928C122.883 69.928 122.703 69.856 122.551 69.712Z" fill="white"/>
<path d="M130.49 71.344C130.994 70.848 131.658 70.6 132.482 70.6C133.314 70.6 133.974 70.848 134.462 71.344C134.958 71.832 135.206 72.512 135.206 73.384C135.206 74.232 134.966 74.9 134.486 75.388C134.006 75.876 133.35 76.12 132.518 76.12C131.59 76.12 130.882 75.832 130.394 75.256C130.226 75.536 129.99 75.732 129.686 75.844C129.39 75.948 129.05 76 128.666 76H128.078V74.812H128.474C128.898 74.812 129.214 74.704 129.422 74.488C129.63 74.272 129.734 73.9 129.734 73.372C129.734 72.508 129.986 71.832 130.49 71.344ZM132.482 74.944C132.93 74.944 133.27 74.8 133.502 74.512C133.734 74.224 133.85 73.84 133.85 73.36C133.85 72.88 133.734 72.496 133.502 72.208C133.27 71.92 132.93 71.776 132.482 71.776C132.042 71.776 131.702 71.92 131.462 72.208C131.23 72.496 131.114 72.88 131.114 73.36C131.114 73.84 131.23 74.224 131.462 74.512C131.702 74.8 132.042 74.944 132.482 74.944Z" fill="white"/>
</svg>
