<svg width="60" height="60" viewBox="0 0 60 60" fill="none" xmlns="http://www.w3.org/2000/svg">
<g id="046-presentation" clip-path="url(#clip0_1_2528)">
<g id="Group">
<path id="Vector" d="M58.8281 7.03125H41.7188V1.17188C41.7188 0.524766 41.1941 0 40.5469 0H19.4531C18.8059 0 18.2812 0.524766 18.2812 1.17188V7.03125H1.17188C0.524648 7.03125 0 7.55602 0 8.20312V44.0625C0 44.7096 0.524648 45.2344 1.17188 45.2344H7.03125V47.5781C7.03125 48.2252 7.5559 48.75 8.20312 48.75H23.7793L15.0825 58.0266C14.6399 58.4987 14.6638 59.2404 15.1359 59.683C15.6067 60.1246 16.3486 60.103 16.7924 59.6297L26.9921 48.75H28.8281V58.8281C28.8281 59.4752 29.3528 60 30 60C30.6472 60 31.1719 59.4752 31.1719 58.8281V48.75H33.0079L43.2075 59.6297C43.6507 60.1024 44.3925 60.1252 44.8639 59.683C45.3361 59.2405 45.36 58.4988 44.9174 58.0266L36.2207 48.75H51.7969C52.4441 48.75 52.9688 48.2252 52.9688 47.5781V45.2344H58.8281C59.4754 45.2344 60 44.7096 60 44.0625V8.20312C60 7.55602 59.4754 7.03125 58.8281 7.03125ZM20.625 2.34375H39.375V7.03125H20.625V2.34375ZM57.6562 42.8906H52.9688V40.5469C52.9688 39.8998 52.4441 39.375 51.7969 39.375H35.2734C34.6262 39.375 34.1016 39.8998 34.1016 40.5469C34.1016 41.194 34.6262 41.7188 35.2734 41.7188H50.625V46.4062H9.375V41.7188H24.7266C25.3738 41.7188 25.8984 41.194 25.8984 40.5469C25.8984 39.8998 25.3738 39.375 24.7266 39.375H8.20312C7.5559 39.375 7.03125 39.8998 7.03125 40.5469V42.8906H2.34375V9.375H57.6562V42.8906Z"   />
<path id="Vector_2" d="M30 41.7188C30.6472 41.7188 31.1719 41.1941 31.1719 40.5469C31.1719 39.8997 30.6472 39.375 30 39.375C29.3528 39.375 28.8281 39.8997 28.8281 40.5469C28.8281 41.1941 29.3528 41.7188 30 41.7188Z"   />
</g>
</g>
<defs>
<clipPath id="clip0_1_2528">
<rect width="60" height="60" fill="white"/>
</clipPath>
</defs>
</svg>
