<svg width="60" height="81" viewBox="0 0 60 81" fill="none" xmlns="http://www.w3.org/2000/svg">
<g id="Group">
<path id="Vector" d="M1.57895 43.5789C0.706895 43.5789 0 44.2858 0 45.1579C0 46.0299 0.706895 46.7368 1.57895 46.7368H4.73684V79.2631C4.73684 80.1352 5.44374 80.8421 6.31579 80.8421C7.18784 80.8421 7.89474 80.1352 7.89474 79.2631V46.7368H12.7048C15.8479 51.6431 20.9387 54.9704 26.6147 55.9269C23.649 59.2453 18.9474 65.1609 18.9474 69.3158C18.9474 75.5637 24.0088 80.8421 30 80.8421C35.9912 80.8421 41.0526 75.5637 41.0526 69.3158C41.0526 65.1609 36.351 59.2453 33.3853 55.9269C39.0614 54.9704 44.1523 51.6429 47.2952 46.7368H52.1053V79.2631C52.1053 80.1352 52.8122 80.8421 53.6842 80.8421C54.5563 80.8421 55.2632 80.1352 55.2632 79.2631V46.7368H58.4211C59.2931 46.7368 60 46.0299 60 45.1579C60 44.2858 59.2931 43.5789 58.4211 43.5789H48.9504C49.986 41.0913 50.5263 38.405 50.5263 35.6842C50.5263 33.9507 50.3072 32.2764 49.9238 30.7301C49.7139 29.8838 48.8577 29.3676 48.0114 29.5775C47.1649 29.7873 46.6489 30.6436 46.8587 31.4899C47.0749 32.3618 47.2213 33.2542 47.3 34.1533C42.5086 35.285 37.4269 34.5098 33.1808 31.9618C27.1306 28.332 19.8279 27.8318 13.4356 30.4525C14.9765 25.5666 18.6321 21.542 23.4872 19.5774C24.0835 19.3361 24.4738 18.7569 24.4738 18.1137V3.15789H35.5265V18.1137C35.5265 18.7569 35.9166 19.3359 36.513 19.5772C37.5291 19.9885 38.5119 20.5004 39.4344 21.0984C40.1645 21.5719 41.1428 21.3655 41.6182 20.6324C42.0927 19.9007 41.8841 18.9231 41.1523 18.4486C40.3631 17.9368 39.5365 17.4786 38.6844 17.0801V3.15789H44.2107C45.0827 3.15789 45.7896 2.451 45.7896 1.57895C45.7896 0.706895 45.0827 0 44.2107 0H15.7895C14.9174 0 14.2105 0.706895 14.2105 1.57895C14.2105 2.451 14.9174 3.15789 15.7895 3.15789H21.3158V17.0796C14.2134 20.3956 9.47368 27.5643 9.47368 35.6842C9.47368 38.4052 10.0142 41.0915 11.0496 43.5789H1.57895ZM31.5789 77.4991V69.3158C31.5789 68.4437 30.8721 67.7368 30 67.7368C29.1279 67.7368 28.4211 68.4437 28.4211 69.3158V77.4991C24.9126 76.6759 22.1053 73.2044 22.1053 69.3158C22.1053 66.3237 26.5674 60.5632 30 56.9019C33.4326 60.5632 37.8947 66.3237 37.8947 69.3158C37.8947 73.2044 35.0874 76.6759 31.5789 77.4991ZM30 53.0526C24.7904 53.0526 19.8764 50.6881 16.6048 46.7353H43.3953C40.1239 50.688 35.2097 53.0526 30 53.0526ZM12.6316 35.6842C12.6316 35.2241 12.6518 34.7619 12.6878 34.3025C18.5859 31.0628 25.7447 31.1833 31.5561 34.6696C36.2067 37.4602 41.8056 38.4827 47.285 37.3862C47.073 39.5482 46.4566 41.6512 45.4715 43.5789H14.5285C13.2865 41.1486 12.6316 38.4385 12.6316 35.6842Z"   />
<path id="Vector_2" d="M45.4737 26.2105C46.3458 26.2105 47.0527 25.5036 47.0527 24.6316C47.0527 23.7595 46.3458 23.0526 45.4737 23.0526C44.6017 23.0526 43.8948 23.7595 43.8948 24.6316C43.8948 25.5036 44.6017 26.2105 45.4737 26.2105Z"   />
</g>
</svg>
