<svg width="60" height="60" viewBox="0 0 60 60" fill="none" xmlns="http://www.w3.org/2000/svg">
<g id="003-tablet 1">
<g id="Group">
<path id="Vector" d="M44.0625 28.8281H15.9375C15.2903 28.8281 14.7656 29.3528 14.7656 30C14.7656 30.6472 15.2903 31.1719 15.9375 31.1719H44.0625C44.7096 31.1719 45.2344 30.6472 45.2344 30C45.2344 29.3528 44.7096 28.8281 44.0625 28.8281Z"   />
<path id="Vector_2" d="M44.0625 35.8594H15.9375C15.2903 35.8594 14.7656 36.384 14.7656 37.0312C14.7656 37.6785 15.2903 38.2031 15.9375 38.2031H44.0625C44.7096 38.2031 45.2344 37.6785 45.2344 37.0312C45.2344 36.384 44.7096 35.8594 44.0625 35.8594Z"   />
<path id="Vector_3" d="M44.0625 42.8906H15.9375C15.2903 42.8906 14.7656 43.4153 14.7656 44.0625C14.7656 44.7097 15.2903 45.2344 15.9375 45.2344H44.0625C44.7096 45.2344 45.2344 44.7097 45.2344 44.0625C45.2344 43.4153 44.7096 42.8906 44.0625 42.8906Z"   />
<path id="Vector_4" d="M30 60C30.6472 60 31.1719 59.4753 31.1719 58.8281C31.1719 58.1809 30.6472 57.6562 30 57.6562C29.3528 57.6562 28.8281 58.1809 28.8281 58.8281C28.8281 59.4753 29.3528 60 30 60Z"   />
<path id="Vector_5" d="M12.4219 60H24.7266C25.3738 60 25.8984 59.4754 25.8984 58.8281C25.8984 58.1809 25.3738 57.6562 24.7266 57.6562H12.4219C11.1295 57.6562 10.0781 56.6048 10.0781 55.3125V52.2656H49.9219V55.3125C49.9219 56.6048 48.8705 57.6562 47.5781 57.6562H35.2734C34.6263 57.6562 34.1016 58.1809 34.1016 58.8281C34.1016 59.4754 34.6263 60 35.2734 60H47.5781C50.1628 60 52.2656 57.8972 52.2656 55.3125V4.6875C52.2656 2.10281 50.1628 0 47.5781 0H12.4219C9.83719 0 7.73438 2.10281 7.73438 4.6875V55.3125C7.73438 57.8972 9.83719 60 12.4219 60ZM10.0781 49.9219V10.0781H32.3438V22.9688C32.3438 23.4009 32.5816 23.7981 32.9626 24.002C33.3437 24.2059 33.8061 24.1835 34.1657 23.9438L38.7891 20.8616L43.4125 23.9439C43.7726 24.184 44.235 24.2057 44.6155 24.0021C44.9965 23.7982 45.2344 23.4011 45.2344 22.9689V10.0781H49.9219V49.9219H10.0781ZM42.8906 10.0781V20.7791L39.4391 18.4781C39.0455 18.2157 38.5328 18.2157 38.139 18.4781L34.6875 20.7791V10.0781H42.8906ZM12.4219 2.34375H47.5781C48.8705 2.34375 49.9219 3.39516 49.9219 4.6875V7.73438H10.0781V4.6875C10.0781 3.39516 11.1295 2.34375 12.4219 2.34375Z"   />
</g>
</g>
</svg>
