<svg width="45" height="60" viewBox="0 0 45 60" fill="none" xmlns="http://www.w3.org/2000/svg">
<g id="Group">
<path id="Vector" d="M8.20312 27.3047H15.2344C15.8815 27.3047 16.4062 26.78 16.4062 26.1328C16.4062 25.4856 15.8815 24.9609 15.2344 24.9609H8.20312C7.55602 24.9609 7.03125 25.4856 7.03125 26.1328C7.03125 26.78 7.55602 27.3047 8.20312 27.3047Z"   />
<path id="Vector_2" d="M29.2969 27.3047H31.6406V29.6484C31.6406 30.2957 32.1654 30.8203 32.8125 30.8203C33.4596 30.8203 33.9844 30.2957 33.9844 29.6484V27.3047H36.3281C36.9752 27.3047 37.5 26.78 37.5 26.1328C37.5 25.4856 36.9752 24.9609 36.3281 24.9609H33.9844V22.6172C33.9844 21.97 33.4596 21.4453 32.8125 21.4453C32.1654 21.4453 31.6406 21.97 31.6406 22.6172V24.9609H29.2969C28.6498 24.9609 28.125 25.4856 28.125 26.1328C28.125 26.78 28.6498 27.3047 29.2969 27.3047Z"   />
<path id="Vector_3" d="M13.3761 47.9297L16.0631 45.2427C16.5207 44.7851 16.5207 44.043 16.0631 43.5853C15.6054 43.1277 14.8636 43.1277 14.4057 43.5853L11.7187 46.2723L9.03175 43.5853C8.57402 43.1277 7.83222 43.1277 7.37437 43.5853C6.91675 44.0429 6.91675 44.785 7.37437 45.2427L10.0614 47.9297L7.37437 50.6167C6.91675 51.0743 6.91675 51.8163 7.37437 52.2741C7.83211 52.7317 8.5739 52.7317 9.03175 52.2741L11.7187 49.5871L14.4057 52.2741C14.8635 52.7317 15.6053 52.7317 16.0631 52.2741C16.5207 51.8164 16.5207 51.0744 16.0631 50.6167L13.3761 47.9297Z"   />
<path id="Vector_4" d="M36.3281 43.2422H29.2969C28.6498 43.2422 28.125 43.7668 28.125 44.4141C28.125 45.0613 28.6498 45.5859 29.2969 45.5859H36.3281C36.9752 45.5859 37.5 45.0613 37.5 44.4141C37.5 43.7668 36.9752 43.2422 36.3281 43.2422Z"   />
<path id="Vector_5" d="M36.3281 50.2734H29.2969C28.6498 50.2734 28.125 50.7981 28.125 51.4453C28.125 52.0925 28.6498 52.6172 29.2969 52.6172H36.3281C36.9752 52.6172 37.5 52.0925 37.5 51.4453C37.5 50.7981 36.9752 50.2734 36.3281 50.2734Z"   />
<path id="Vector_6" d="M36.3281 9.375C36.9752 9.375 37.5 8.85035 37.5 8.20312C37.5 7.5559 36.9752 7.03125 36.3281 7.03125H32.8125C32.1654 7.03125 31.6406 7.5559 31.6406 8.20312C31.6406 8.85035 32.1654 9.375 32.8125 9.375H36.3281Z"   />
<path id="Vector_7" d="M22.2656 9.375H25.7812C26.4284 9.375 26.9531 8.85035 26.9531 8.20312C26.9531 7.5559 26.4284 7.03125 25.7812 7.03125H22.2656C21.6185 7.03125 21.0938 7.5559 21.0938 8.20312C21.0938 8.85035 21.6185 9.375 22.2656 9.375Z"   />
<path id="Vector_8" d="M22.2656 2.34375C22.9128 2.34375 23.4375 1.81908 23.4375 1.17188C23.4375 0.524666 22.9128 0 22.2656 0C21.6184 0 21.0938 0.524666 21.0938 1.17188C21.0938 1.81908 21.6184 2.34375 22.2656 2.34375Z"   />
<path id="Vector_9" d="M1.17187 60H43.3594C44.0065 60 44.5312 59.4754 44.5312 58.8281V1.17188C44.5312 0.524648 44.0065 0 43.3594 0H27.5391C26.892 0 26.3672 0.524648 26.3672 1.17188C26.3672 1.8191 26.892 2.34375 27.5391 2.34375H42.1875V14.0625H2.34375V2.34375H16.9922C17.6393 2.34375 18.1641 1.8191 18.1641 1.17188C18.1641 0.524648 17.6393 0 16.9922 0H1.17187C0.524766 0 0 0.524648 0 1.17188V58.8281C0 59.4754 0.524766 60 1.17187 60ZM2.34375 38.2031H21.0937V57.6562H2.34375V38.2031ZM23.4375 57.6562V38.2031H42.1875V57.6562H23.4375ZM42.1875 35.8594H23.4375V16.4062H42.1875V35.8594ZM21.0937 16.4062V35.8594H2.34375V16.4062H21.0937Z"   />
</g>
</svg>
