<svg width="60" height="60" viewBox="0 0 60 60" fill="none" xmlns="http://www.w3.org/2000/svg">
<g id="045-keyboard" clip-path="url(#clip0_1_2532)">
<g id="Group">
<path id="Vector" d="M51.0938 9.72656C51.741 9.72656 52.2656 9.2019 52.2656 8.55469C52.2656 7.90748 51.741 7.38281 51.0938 7.38281C50.4465 7.38281 49.9219 7.90748 49.9219 8.55469C49.9219 9.2019 50.4465 9.72656 51.0938 9.72656Z"  />
<path id="Vector_2" d="M51.0938 16.7578C51.741 16.7578 52.2656 16.2331 52.2656 15.5859C52.2656 14.9387 51.741 14.4141 51.0938 14.4141C50.4465 14.4141 49.9219 14.9387 49.9219 15.5859C49.9219 16.2331 50.4465 16.7578 51.0938 16.7578Z"  />
<path id="Vector_3" d="M51.0938 23.7891C51.741 23.7891 52.2656 23.2644 52.2656 22.6172C52.2656 21.97 51.741 21.4453 51.0938 21.4453C50.4465 21.4453 49.9219 21.97 49.9219 22.6172C49.9219 23.2644 50.4465 23.7891 51.0938 23.7891Z"  />
<path id="Vector_4" d="M19.4531 9.72656H22.9688C23.6159 9.72656 24.1406 9.2018 24.1406 8.55469C24.1406 7.90758 23.6159 7.38281 22.9688 7.38281H19.4531C18.806 7.38281 18.2812 7.90758 18.2812 8.55469C18.2812 9.2018 18.806 9.72656 19.4531 9.72656Z"  />
<path id="Vector_5" d="M33.5156 7.38281H30C29.3529 7.38281 28.8281 7.90758 28.8281 8.55469C28.8281 9.2018 29.3529 9.72656 30 9.72656H33.5156C34.1627 9.72656 34.6875 9.2018 34.6875 8.55469C34.6875 7.90758 34.1627 7.38281 33.5156 7.38281Z"  />
<path id="Vector_6" d="M19.4531 16.7578H22.9688C23.6159 16.7578 24.1406 16.233 24.1406 15.5859C24.1406 14.9388 23.6159 14.4141 22.9688 14.4141H19.4531C18.806 14.4141 18.2812 14.9388 18.2812 15.5859C18.2812 16.233 18.806 16.7578 19.4531 16.7578Z"  />
<path id="Vector_7" d="M33.5156 14.4141H30C29.3529 14.4141 28.8281 14.9388 28.8281 15.5859C28.8281 16.233 29.3529 16.7578 30 16.7578H33.5156C34.1627 16.7578 34.6875 16.233 34.6875 15.5859C34.6875 14.9388 34.1627 14.4141 33.5156 14.4141Z"  />
<path id="Vector_8" d="M40.5469 9.72656H44.0625C44.7096 9.72656 45.2344 9.2018 45.2344 8.55469C45.2344 7.90758 44.7096 7.38281 44.0625 7.38281H40.5469C39.8998 7.38281 39.375 7.90758 39.375 8.55469C39.375 9.2018 39.8998 9.72656 40.5469 9.72656Z"  />
<path id="Vector_9" d="M40.5469 16.7578H44.0625C44.7096 16.7578 45.2344 16.233 45.2344 15.5859C45.2344 14.9388 44.7096 14.4141 44.0625 14.4141H40.5469C39.8998 14.4141 39.375 14.9388 39.375 15.5859C39.375 16.233 39.8998 16.7578 40.5469 16.7578Z"  />
<path id="Vector_10" d="M40.5469 23.7891H44.0625C44.7096 23.7891 45.2344 23.2643 45.2344 22.6172C45.2344 21.9701 44.7096 21.4453 44.0625 21.4453H40.5469C39.8998 21.4453 39.375 21.9701 39.375 22.6172C39.375 23.2643 39.8998 23.7891 40.5469 23.7891Z"  />
<path id="Vector_11" d="M12.4219 7.38281H8.90625C8.25914 7.38281 7.73438 7.90758 7.73438 8.55469C7.73438 9.2018 8.25914 9.72656 8.90625 9.72656H12.4219C13.069 9.72656 13.5938 9.2018 13.5938 8.55469C13.5938 7.90758 13.069 7.38281 12.4219 7.38281Z"  />
<path id="Vector_12" d="M12.4219 14.4141H8.90625C8.25914 14.4141 7.73438 14.9388 7.73438 15.5859C7.73438 16.233 8.25914 16.7578 8.90625 16.7578H12.4219C13.069 16.7578 13.5938 16.233 13.5938 15.5859C13.5938 14.9388 13.069 14.4141 12.4219 14.4141Z"  />
<path id="Vector_13" d="M12.4219 21.4453H8.90625C8.25914 21.4453 7.73438 21.9701 7.73438 22.6172C7.73438 23.2643 8.25914 23.7891 8.90625 23.7891H12.4219C13.069 23.7891 13.5938 23.2643 13.5938 22.6172C13.5938 21.9701 13.069 21.4453 12.4219 21.4453Z"  />
<path id="Vector_14" d="M19.4531 23.7891H33.5156C34.1627 23.7891 34.6875 23.2643 34.6875 22.6172C34.6875 21.9701 34.1627 21.4453 33.5156 21.4453H19.4531C18.806 21.4453 18.2812 21.9701 18.2812 22.6172C18.2812 23.2643 18.806 23.7891 19.4531 23.7891Z"  />
<path id="Vector_15" d="M30 2.34375C30.6472 2.34375 31.1719 1.81908 31.1719 1.17188C31.1719 0.524666 30.6472 0 30 0C29.3528 0 28.8281 0.524666 28.8281 1.17188C28.8281 1.81908 29.3528 2.34375 30 2.34375Z"  />
<path id="Vector_16" d="M58.8281 0H35.2734C34.6263 0 34.1016 0.524766 34.1016 1.17188C34.1016 1.81898 34.6263 2.34375 35.2734 2.34375H57.6562V28.8281H2.34375V2.34375H24.7266C25.3737 2.34375 25.8984 1.81898 25.8984 1.17188C25.8984 0.524766 25.3737 0 24.7266 0H1.17188C0.524766 0 0 0.524766 0 1.17188V30C0 30.6471 0.524766 31.1719 1.17188 31.1719H28.8383C29.0854 37.4171 34.2422 42.4219 40.5469 42.4219H52.8516C55.0734 42.4219 57.6562 44.2136 57.6562 46.5234C57.6562 48.8333 55.0734 50.625 52.8516 50.625H23.3524C22.782 46.655 19.3596 43.5938 15.2344 43.5938H8.20312C3.6798 43.5938 0 47.2736 0 51.7969C0 56.3202 3.6798 60 8.20312 60H15.2344C19.3597 60 22.782 56.9387 23.3524 52.9688H52.8516C56.3566 52.9688 60 50.1479 60 46.5234C60 42.8986 56.3555 40.0781 52.8516 40.0781H40.5469C35.5346 40.0781 31.4289 36.1243 31.1838 31.1719H58.8281C59.4752 31.1719 60 30.6471 60 30V1.17188C60 0.524766 59.4752 0 58.8281 0ZM2.34375 51.7969C2.34375 48.566 4.97227 45.9375 8.20312 45.9375H10.5469V57.6562H8.20312C4.97227 57.6562 2.34375 55.0277 2.34375 51.7969ZM15.2344 57.6562H12.8906V52.9688H15.2344C15.8815 52.9688 16.4062 52.444 16.4062 51.7969C16.4062 51.1498 15.8815 50.625 15.2344 50.625H12.8906V45.9375H15.2344C18.4652 45.9375 21.0938 48.566 21.0938 51.7969C21.0938 55.0277 18.4652 57.6562 15.2344 57.6562Z"  />
</g>
</g>
<defs>
<clipPath id="clip0_1_2532">
<rect width="60" height="60" fill="white"/>
</clipPath>
</defs>
</svg>
