<svg width="60" height="70" viewBox="0 0 60 70" fill="none" xmlns="http://www.w3.org/2000/svg">
<g id="Group">
<path id="Vector" d="M29.9999 56.3239C30.753 56.3239 31.3636 55.7134 31.3636 54.9603C31.3636 54.2072 30.753 53.5966 29.9999 53.5966C29.2468 53.5966 28.6363 54.2072 28.6363 54.9603C28.6363 55.7134 29.2468 56.3239 29.9999 56.3239Z" />
<path id="Vector_2" d="M29.9999 69.8239C30.753 69.8239 31.3636 69.2134 31.3636 68.4603C31.3636 67.7072 30.753 67.0966 29.9999 67.0966C29.2468 67.0966 28.6363 67.7072 28.6363 68.4603C28.6363 69.2134 29.2468 69.8239 29.9999 69.8239Z" />
<path id="Vector_3" d="M36.1363 67.0967C35.3833 67.0967 34.7727 67.7073 34.7727 68.4603C34.7727 69.2133 35.3833 69.8239 36.1363 69.8239H58.6364C59.3894 69.8239 60 69.2133 60 68.4603V64.3694C60 61.3617 57.5531 58.9148 54.5454 58.9148H39.5454V54.9603C39.5454 54.6855 39.5311 54.414 39.5082 54.1449C47.0192 50.5091 51.8182 42.9132 51.8182 34.5057C51.8182 29.9586 50.4538 25.6518 47.8625 21.9744L52.9897 16.8468C53.5222 16.3143 53.5222 15.4509 52.9897 14.9182L51.0616 12.99L55.9366 8.11379C56.4689 7.58129 56.4689 6.71811 55.9366 6.18547L50.1521 0.399546C49.7158 -0.0365456 49.2024 0.00300001 49.1877 0C48.8261 0 48.4793 0.143728 48.2235 0.39941L43.3472 5.27578L41.4192 3.34773C40.8867 2.81564 40.0231 2.81523 39.4906 3.34773C39.407 3.43133 19.4046 23.4337 19.242 23.5963C18.7097 24.1284 18.7095 24.9922 19.2419 25.5249L24.0625 30.3455L22.1341 32.2749C21.6017 32.8075 21.6018 33.671 22.1345 34.2034C22.6668 34.7356 23.5304 34.7357 24.0629 34.2029L25.991 32.2739L30.8125 37.0955C31.345 37.6279 32.2083 37.6281 32.741 37.0955C32.7549 37.0816 45.882 23.9551 45.9015 23.9357C47.9926 27.0646 49.091 30.6882 49.091 34.5057C49.091 41.6585 45.1222 48.1407 38.8615 51.419C37.4518 47.9049 34.0123 45.4153 30.0002 45.4148C29.9998 45.4148 29.9993 45.4148 29.9988 45.4148C26.0772 45.4148 22.7323 47.7722 21.231 51.4687C17.9707 49.7857 15.2869 47.2194 13.4614 44.0512H21.8182C22.5712 44.0512 23.1819 43.4406 23.1819 42.6875C23.1819 41.9344 22.5712 41.3239 21.8182 41.3239C19.3862 41.3239 3.47755 41.3239 1.36364 41.3239C0.610638 41.3239 0 41.9344 0 42.6875C0 43.4406 0.610638 44.0512 1.36364 44.0512H10.3763C12.5327 48.4863 16.0911 52.0308 20.5319 54.1674C20.4825 54.5754 20.4547 54.9863 20.4547 55.398V58.9148H5.45469C2.44705 58.9148 0.000136289 61.3617 0.000136289 64.3694V68.4603C0.000136289 69.2133 0.610774 69.8239 1.36378 69.8239H23.8638C24.6168 69.8239 25.2275 69.2133 25.2275 68.4603C25.2275 67.7073 24.6168 67.0967 23.8638 67.0967H2.72742V64.3694C2.72742 62.8656 3.95087 61.6421 5.45469 61.6421H21.8184C22.5714 61.6421 23.182 61.0316 23.182 60.2785V55.398C23.182 51.5914 25.9835 48.1421 29.999 48.1421H30.0001C33.7596 48.1426 36.8184 51.2013 36.8184 54.9603V60.2785C36.8184 61.0316 37.429 61.6421 38.182 61.6421H54.5457C56.0495 61.6421 57.273 62.8656 57.273 64.3694V67.0967H36.1363ZM49.1876 3.29237L53.0439 7.1497L49.133 11.0616L45.2757 7.20424L49.1876 3.29237ZM40.455 6.24056L50.0968 15.8826C49.9051 16.0743 37.6119 28.3678 37.5621 28.4176L27.9207 18.7761L40.455 6.24056ZM31.7769 34.2028L22.1347 24.5608L25.9921 20.7044L35.6335 30.346L31.7769 34.2028Z" />
</g>
</svg>
