<svg width="145" height="49" viewBox="0 0 145 49" fill="none" xmlns="http://www.w3.org/2000/svg">
<path d="M10.2328 47.9279C9.86365 47.9279 9.50338 47.9231 9.13709 47.9148C8.37828 47.9048 7.62125 47.838 6.8722 47.715C6.17375 47.5934 5.49714 47.3672 4.86469 47.0438C4.23804 46.7231 3.66648 46.3026 3.17191 45.7985C2.67018 45.3002 2.25247 44.7224 1.93533 44.0878C1.6147 43.449 1.3928 42.7644 1.27737 42.0577C1.15271 41.2983 1.08526 40.5305 1.07561 39.7608C1.06793 39.5025 1.05786 38.6423 1.05786 38.6423V10.3442C1.05786 10.3442 1.06859 9.49721 1.07567 9.24838C1.08491 8.47992 1.15197 7.71328 1.27625 6.9551C1.3919 6.24647 1.61397 5.55986 1.93477 4.91904C2.25074 4.28485 2.66614 3.70653 3.16485 3.20649C3.66299 2.70174 4.23638 2.27912 4.8641 1.95403C5.4951 1.63172 6.17043 1.4071 6.86747 1.28771C7.61898 1.16345 8.37864 1.09627 9.14007 1.08673L10.2334 1.07178H134.761L135.867 1.08733C136.622 1.0964 137.374 1.16298 138.119 1.28651C138.823 1.4074 139.505 1.63358 140.144 1.95762C141.401 2.61281 142.424 3.64937 143.07 4.92203C143.386 5.55842 143.604 6.23943 143.719 6.94195C143.844 7.70635 143.915 8.47901 143.929 9.25377C143.933 9.60069 143.933 9.97333 143.933 10.3442C143.942 10.8036 143.942 11.2408 143.942 11.6816V37.3192C143.942 37.7642 143.942 38.1985 143.933 38.6363C143.933 39.0347 143.933 39.3996 143.928 39.7752C143.914 40.5361 143.845 41.295 143.721 42.0457C143.608 42.7575 143.387 43.4475 143.066 44.0914C142.747 44.7191 142.332 45.292 141.836 45.7889C141.341 46.2958 140.768 46.7187 140.14 47.0415C139.504 47.3673 138.822 47.5944 138.119 47.715C137.37 47.8386 136.613 47.9054 135.854 47.9148C135.499 47.9231 135.127 47.9279 134.767 47.9279L133.453 47.9303L10.2328 47.9279Z" fill="white"/>
<path d="M130.13 24.3648C130.144 23.3016 130.423 22.2591 130.942 21.3343C131.462 20.4095 132.204 19.6325 133.1 19.0756C132.531 18.2538 131.78 17.5774 130.907 17.1003C130.034 16.6232 129.063 16.3584 128.071 16.327C125.955 16.1025 123.903 17.6071 122.825 17.6071C121.726 17.6071 120.066 16.3493 118.278 16.3865C117.122 16.4243 115.995 16.7642 115.007 17.3732C114.019 17.9822 113.205 18.8395 112.642 19.8615C110.205 24.1269 112.023 30.3957 114.357 33.8436C115.525 35.5319 116.89 37.4178 118.676 37.3509C120.424 37.2776 121.077 36.2242 123.186 36.2242C125.277 36.2242 125.889 37.3509 127.711 37.3084C129.587 37.2776 130.768 35.6126 131.895 33.9083C132.735 32.7053 133.38 31.3757 133.809 29.9688C132.719 29.5029 131.789 28.7231 131.135 27.7265C130.481 26.73 130.132 25.5608 130.13 24.3648V24.3648Z" fill="black"/>
<path d="M126.688 14.0594C127.711 12.8184 128.215 11.2233 128.093 9.61279C126.53 9.77867 125.087 10.5335 124.051 11.7269C123.544 12.3099 123.156 12.9882 122.909 13.7229C122.662 14.4576 122.56 15.2344 122.61 16.0089C123.391 16.017 124.164 15.8458 124.871 15.5081C125.577 15.1704 126.199 14.6751 126.688 14.0594V14.0594Z" fill="black"/>
<path d="M20.8395 33.2459H15.1039L13.7265 37.3575H11.2971L16.7298 22.1455H19.2538L24.6864 37.3575H22.2157L20.8395 33.2459ZM15.6979 31.3486H20.2443L18.0031 24.6757H17.9404L15.6979 31.3486Z" fill="black"/>
<path d="M36.4191 31.813C36.4191 35.2595 34.5944 37.4738 31.8408 37.4738C31.1432 37.5107 30.4495 37.3483 29.8391 37.0051C29.2286 36.6619 28.7261 36.1519 28.389 35.5334H28.3369V41.0268H26.0851V26.267H28.2647V28.1117H28.3062C28.6587 27.4962 29.1697 26.9888 29.7848 26.6435C30.4 26.2983 31.0961 26.128 31.7993 26.151C34.5837 26.151 36.4191 28.3761 36.4191 31.813ZM34.1045 31.813C34.1045 29.5676 32.9566 28.0913 31.2053 28.0913C29.4848 28.0913 28.3275 29.5987 28.3275 31.813C28.3275 34.0477 29.4848 35.5442 31.2053 35.5442C32.9567 35.5442 34.1045 34.0788 34.1045 31.813H34.1045Z" fill="black"/>
<path d="M48.4943 31.813C48.4943 35.2595 46.669 37.4738 43.9154 37.4738C43.2179 37.5107 42.5242 37.3483 41.9137 37.0051C41.3032 36.6619 40.8007 36.1519 40.4637 35.5334H40.4116V41.0268H38.1597V26.267H40.3394V28.1117H40.3808C40.7333 27.4962 41.2443 26.9888 41.8594 26.6435C42.4746 26.2983 43.1707 26.128 43.8739 26.151C46.6584 26.151 48.4943 28.3761 48.4943 31.813ZM46.1791 31.813C46.1791 29.5676 45.0313 28.0914 43.28 28.0914C41.5594 28.0914 40.4021 29.5987 40.4021 31.813C40.4021 34.0477 41.5594 35.5442 43.28 35.5442C45.0313 35.5442 46.1791 34.0788 46.1791 31.813Z" fill="black"/>
<path d="M56.4735 33.1193C56.6404 34.6278 58.09 35.6183 60.0708 35.6183C61.9689 35.6183 63.3344 34.6278 63.3344 33.2676C63.3344 32.0868 62.5108 31.3799 60.5607 30.8953L58.6106 30.4204C55.8475 29.7457 54.5648 28.4394 54.5648 26.3195C54.5648 23.6949 56.8273 21.8921 60.0389 21.8921C63.2197 21.8921 65.3994 23.6949 65.4727 26.3195H63.1995C63.0634 24.8015 61.8221 23.8851 60.0081 23.8851C58.1941 23.8851 56.9527 24.8122 56.9527 26.1616C56.9527 27.2371 57.7456 27.8699 59.685 28.3544L61.3429 28.7659C64.4302 29.504 65.7117 30.7578 65.7117 32.9828C65.7117 35.8288 63.4705 37.6112 59.9039 37.6112C56.5669 37.6112 54.3139 35.8706 54.1683 33.1192L56.4735 33.1193Z" fill="black"/>
<path d="M70.5741 23.6421V26.2667H72.6603V28.0695H70.5741V34.1838C70.5741 35.1336 70.9918 35.5762 71.9088 35.5762C72.1565 35.5719 72.4038 35.5543 72.6496 35.5236V37.3156C72.2373 37.3935 71.8182 37.4287 71.3988 37.4209C69.1777 37.4209 68.3115 36.5775 68.3115 34.4266V28.0695H66.7164V26.2667H68.3116V23.6421H70.5741Z" fill="black"/>
<path d="M73.8672 31.8127C73.8672 28.3232 75.9001 26.1304 79.0703 26.1304C82.2511 26.1304 84.2746 28.3231 84.2746 31.8127C84.2746 35.3119 82.2618 37.4951 79.0703 37.4951C75.88 37.4951 73.8672 35.3119 73.8672 31.8127ZM81.9801 31.8127C81.9801 29.419 80.8949 28.0061 79.0703 28.0061C77.2456 28.0061 76.1605 29.4297 76.1605 31.8127C76.1605 34.2161 77.2456 35.6181 79.0703 35.6181C80.8949 35.6181 81.9801 34.2161 81.9801 31.8127Z" fill="black"/>
<path d="M86.1312 26.2669H88.279V28.1546H88.3311C88.4764 27.5651 88.818 27.044 89.2986 26.6791C89.7791 26.3142 90.3693 26.1277 90.9699 26.1509C91.2294 26.1499 91.4882 26.1784 91.7414 26.2358V28.3652C91.4138 28.264 91.072 28.2175 90.7296 28.2276C90.4025 28.2142 90.0764 28.2725 89.7736 28.3985C89.4709 28.5246 89.1987 28.7153 88.9757 28.9578C88.7528 29.2002 88.5844 29.4885 88.4821 29.8029C88.3798 30.1173 88.346 30.4504 88.3831 30.7793V37.3577H86.1312V26.2669Z" fill="black"/>
<path d="M102.124 34.1C101.821 36.1134 99.8814 37.4951 97.4 37.4951C94.2085 37.4951 92.2277 35.3334 92.2277 31.8654C92.2277 28.3866 94.2192 26.1304 97.3053 26.1304C100.341 26.1304 102.249 28.2382 102.249 31.601V32.381H94.5008V32.5185C94.4651 32.9267 94.5156 33.3379 94.6491 33.7248C94.7826 34.1117 94.996 34.4655 95.2752 34.7626C95.5543 35.0597 95.8928 35.2934 96.2681 35.4481C96.6434 35.6028 97.047 35.675 97.4521 35.66C97.9842 35.7104 98.5182 35.5858 98.9747 35.3047C99.4312 35.0237 99.7857 34.6011 99.9856 34.1H102.124ZM94.5115 30.7899H99.9962C100.015 30.4402 99.9664 30.09 99.8518 29.7595C99.7372 29.4289 99.5594 29.1244 99.3284 28.8634C99.0974 28.6023 98.8178 28.3898 98.5056 28.238C98.1933 28.0862 97.8546 27.998 97.5087 27.9785C97.4409 27.9747 97.3732 27.9736 97.3053 27.975C96.9406 27.9728 96.579 28.0433 96.2413 28.1823C95.9035 28.3214 95.5961 28.5264 95.3367 28.7855C95.0772 29.0447 94.8708 29.353 94.7293 29.6928C94.5877 30.0326 94.5137 30.3972 94.5115 30.7659C94.5115 30.7739 94.5115 30.7819 94.5115 30.7899Z" fill="black"/>
<path d="M65.1834 19.7022H64.3918C62.8505 19.7022 61.2246 19.3822 61.2246 17.2259C61.328 16.2563 61.5477 15.303 61.8789 14.3871L62.9031 14.6647L62.7552 15.145C62.5361 15.8205 62.3911 16.5183 62.3227 17.2259C62.3227 18.7093 63.7267 18.7093 64.6769 18.7093H65.3419C65.817 18.7093 66.4714 18.5173 66.4714 17.909V13.6933H67.6015V16.8526C67.8449 16.9571 68.1075 17.0078 68.3718 17.0016H68.7623V17.9837H68.3718C68.1108 17.9819 67.8514 17.9424 67.6015 17.8665V18.016C67.6016 18.5705 67.1791 19.7022 65.1834 19.7022ZM64.5397 12.5407C64.4069 12.5335 64.279 12.4872 64.1719 12.4075C64.0647 12.3278 63.983 12.2182 63.9368 12.0921C63.8906 11.966 63.8818 11.829 63.9117 11.698C63.9415 11.5669 64.0087 11.4476 64.1048 11.3546C64.2009 11.2617 64.3219 11.1992 64.4527 11.1749C64.5835 11.1506 64.7185 11.1655 64.8411 11.2179C64.9636 11.2702 65.0683 11.3576 65.1423 11.4694C65.2163 11.5811 65.2563 11.7123 65.2574 11.8468C65.2622 12.0263 65.1963 12.2004 65.0742 12.3308C64.9521 12.4612 64.7837 12.5372 64.6061 12.5421C64.584 12.5427 64.5618 12.5422 64.5397 12.5406V12.5407Z" fill="black"/>
<path d="M70.0374 17.0012C69.9074 16.5325 69.8468 16.0469 69.8576 15.5603C69.8243 15.2384 69.859 14.9131 69.9596 14.6059C70.0602 14.2986 70.2243 14.0166 70.4409 13.7783C70.6576 13.5401 70.9219 13.3512 71.2163 13.2242C71.5107 13.0972 71.8285 13.0349 72.1485 13.0415C73.6478 13.0415 74.2288 14.2796 74.2288 15.7529C74.2288 16.8415 73.8483 18.3141 72.381 18.3141C71.8972 18.2669 71.4216 18.1557 70.9664 17.9834H68.5696V17.0012L70.0374 17.0012ZM71.1776 17.0443C71.5363 17.1977 71.9183 17.2879 72.3071 17.311C72.9614 17.311 73.1413 16.4676 73.1413 15.7206C73.1413 15.0058 72.9407 13.9812 72.0852 13.9812C71.3149 13.9812 70.977 14.7067 70.977 15.6249C70.9627 16.1061 71.0305 16.5863 71.1776 17.0443V17.0443Z" fill="black"/>
<path d="M81.6796 19.7019H80.888C79.3461 19.7019 77.7202 19.3819 77.7202 17.2256C77.8239 16.256 78.0436 15.3028 78.3745 14.3868L79.3993 14.6643L79.2514 15.1446C79.0321 15.8201 78.8869 16.518 78.8183 17.2255C78.8183 18.7089 80.2229 18.7089 81.1731 18.7089H81.8381C82.3127 18.7089 82.967 18.5169 82.967 17.9086V10.7896H84.0971V16.8523C84.3405 16.9567 84.6031 17.0075 84.8675 17.0013H85.258V17.9834H84.8675C84.6065 17.9815 84.3471 17.942 84.0971 17.8662V18.0156C84.0972 18.5702 83.6747 19.7019 81.6796 19.7019Z" fill="black"/>
<path d="M89.0564 13.0957V16.0948C89.0564 17.3646 88.3062 17.9837 86.8176 17.9837H85.0651V17.0016H86.7762C87.6731 17.0016 87.9157 16.6068 87.9157 15.9345V13.0957H89.0564ZM86.227 20.3745C86.0942 20.3673 85.9664 20.3209 85.8594 20.2411C85.7523 20.1613 85.6707 20.0517 85.6245 19.9256C85.5784 19.7995 85.5697 19.6625 85.5996 19.5315C85.6295 19.4004 85.6967 19.2812 85.7929 19.1883C85.889 19.0954 86.01 19.033 86.1408 19.0087C86.2716 18.9844 86.4066 18.9994 86.5291 19.0518C86.6516 19.1041 86.7563 19.1915 86.8302 19.3033C86.9042 19.415 86.9442 19.5462 86.9453 19.6806C86.9479 19.7752 86.9308 19.8693 86.8952 19.9568C86.8595 20.0443 86.8062 20.1233 86.7385 20.1887C86.6708 20.2541 86.5903 20.3044 86.5023 20.3364C86.4142 20.3684 86.3204 20.3814 86.2271 20.3745H86.227ZM88.0008 20.3745C87.868 20.3675 87.7401 20.3213 87.6329 20.2417C87.5256 20.162 87.4438 20.0524 87.3975 19.9263C87.3512 19.8002 87.3424 19.6632 87.3722 19.5321C87.402 19.4011 87.4691 19.2817 87.5652 19.1887C87.6613 19.0957 87.7822 19.0331 87.9131 19.0088C88.0439 18.9844 88.1789 18.9993 88.3015 19.0517C88.4241 19.104 88.5288 19.1914 88.6028 19.3032C88.6768 19.4149 88.7168 19.5462 88.7179 19.6806C88.7228 19.8602 88.6569 20.0343 88.5347 20.1647C88.4126 20.2951 88.2442 20.3711 88.0666 20.376C88.0447 20.3766 88.0228 20.3761 88.0009 20.3745H88.0008Z" fill="black"/>
<path d="M89.8989 19.585C90.0599 19.6049 90.2219 19.6155 90.3841 19.6167C91.3142 19.6167 91.778 19.0724 91.778 17.973V13.6825H92.9187V17.0016H93.9636V17.9837H92.9081C92.9207 18.7114 92.6602 19.4168 92.1792 19.9582C91.6661 20.3922 91.0111 20.6168 90.3427 20.5881C90.1024 20.5842 89.8626 20.5664 89.6244 20.5348L89.8989 19.585ZM92.2951 12.6471C92.1623 12.6399 92.0345 12.5935 91.9275 12.5137C91.8204 12.434 91.7388 12.3243 91.6926 12.1982C91.6465 12.0721 91.6378 11.9351 91.6677 11.8041C91.6976 11.6731 91.7648 11.5538 91.861 11.4609C91.9571 11.368 92.0781 11.3056 92.2089 11.2813C92.3397 11.2571 92.4747 11.272 92.5972 11.3244C92.7197 11.3767 92.8244 11.4641 92.8983 11.5759C92.9723 11.6876 93.0123 11.8188 93.0134 11.9533C93.016 12.0479 92.999 12.142 92.9634 12.2295C92.9278 12.3171 92.8744 12.3961 92.8067 12.4615C92.739 12.5269 92.6585 12.5772 92.5704 12.6091C92.4823 12.6411 92.3885 12.6541 92.2951 12.6471Z" fill="black"/>
<path d="M97.7101 17.9837C97.2549 17.9694 96.8098 17.8449 96.412 17.6206C95.8655 17.9164 95.2448 18.0427 94.6276 17.9837H93.7721V17.0015H94.6915C95.5566 17.0015 95.7258 16.8628 95.7258 16.2227V13.0957H96.8559V16.8095C97.1223 16.939 97.4146 17.0047 97.7102 17.0015H98.4179V17.9837L97.7101 17.9837ZM96.2428 12.028C96.11 12.0207 95.9822 11.9744 95.8752 11.8946C95.7681 11.8148 95.6865 11.7051 95.6403 11.579C95.5942 11.4529 95.5855 11.3159 95.6154 11.1849C95.6453 11.0539 95.7125 10.9346 95.8087 10.8417C95.9048 10.7489 96.0258 10.6864 96.1566 10.6622C96.2874 10.6379 96.4224 10.6529 96.5449 10.7052C96.6674 10.7576 96.7721 10.845 96.846 10.9568C96.92 11.0685 96.96 11.1997 96.9611 11.3341C96.9637 11.4287 96.9467 11.5229 96.9111 11.6104C96.8755 11.6979 96.8221 11.7769 96.7544 11.8423C96.6867 11.9077 96.6062 11.958 96.5181 11.99C96.43 12.022 96.3362 12.0349 96.2428 12.028V12.028Z" fill="black"/>
<path d="M101.119 13.0957V16.0947C101.119 17.3646 100.37 17.9837 98.8816 17.9837H98.2261V17.0015H98.8391C99.736 17.0015 99.9786 16.6068 99.9786 15.9345V13.0957H101.119ZM99.4402 12.028C99.3074 12.0207 99.1795 11.9744 99.0725 11.8946C98.9654 11.8148 98.8838 11.7051 98.8376 11.579C98.7915 11.4529 98.7828 11.3159 98.8128 11.1849C98.8427 11.0539 98.9098 10.9346 99.006 10.8417C99.1022 10.7489 99.2231 10.6864 99.3539 10.6622C99.4847 10.6379 99.6197 10.6529 99.7422 10.7052C99.8647 10.7576 99.9694 10.845 100.043 10.9568C100.117 11.0685 100.157 11.1997 100.158 11.3341C100.161 11.4287 100.144 11.5229 100.108 11.6104C100.073 11.6979 100.019 11.7769 99.9517 11.8423C99.884 11.9077 99.8035 11.958 99.7154 11.99C99.6273 12.022 99.5335 12.0349 99.4402 12.028V12.028ZM101.214 12.028C101.081 12.0207 100.953 11.9744 100.846 11.8946C100.739 11.8148 100.658 11.7051 100.611 11.579C100.565 11.4529 100.557 11.3159 100.587 11.1849C100.616 11.0539 100.684 10.9346 100.78 10.8417C100.876 10.7489 100.997 10.6864 101.128 10.6622C101.259 10.6379 101.394 10.6529 101.516 10.7052C101.639 10.7576 101.743 10.845 101.817 10.9568C101.891 11.0685 101.931 11.1997 101.932 11.3341C101.935 11.4287 101.918 11.5229 101.882 11.6104C101.847 11.6979 101.793 11.7769 101.726 11.8423C101.658 11.9077 101.577 11.958 101.489 11.99C101.401 12.022 101.307 12.0349 101.214 12.028Z" fill="black"/>
</svg>
