<svg width="156" height="46" viewBox="0 0 156 46" fill="none" xmlns="http://www.w3.org/2000/svg">
<g clip-path="url(#clip0_73_16058)">
<g clip-path="url(#clip1_73_16058)">
<path d="M150.056 45.8857H5.9322C2.76147 45.8857 0.167236 43.3111 0.167236 40.1643V5.83599C0.167236 2.68922 2.76147 0.114596 5.9322 0.114596H150.056C153.227 0.114596 155.821 2.68922 155.821 5.83599V40.1643C155.821 43.3111 153.227 45.8857 150.056 45.8857Z" fill="white"/>
<path d="M23.9381 22.2261L11.6631 35.1562C11.6635 35.1589 11.6645 35.1611 11.6649 35.1638C12.0414 36.5677 13.3335 37.6016 14.8671 37.6016C15.4801 37.6016 16.0556 37.4371 16.5492 37.1483L16.5884 37.1255L30.4056 29.2128L23.9381 22.2261" fill="#EB3131"/>
<path d="M36.3569 20.0244L36.3451 20.0163L30.3799 16.5844L23.6594 22.5194L30.4033 29.2114L36.3371 25.8136C37.3774 25.2562 38.0836 24.1678 38.0836 22.9127C38.0836 21.6666 37.3868 20.5836 36.3569 20.0244" fill="#F6B60B"/>
<path d="M11.6626 10.6156C11.5888 10.8857 11.55 11.1685 11.55 11.4622V34.3102C11.55 34.6033 11.5884 34.8872 11.6631 35.1562L24.3606 22.557L11.6626 10.6156Z" fill="#5778C5"/>
<path d="M24.0286 22.8857L30.3821 16.5821L16.5807 8.64075C16.079 8.34255 15.4936 8.17046 14.867 8.17046C13.3335 8.17046 12.0396 9.20612 11.6631 10.6118C11.6626 10.6132 11.6626 10.6141 11.6626 10.6154L24.0286 22.8857Z" fill="#3BAD49"/>
</g>
<path d="M123.527 34.4426H125.679V20.1378H123.527V34.4426ZM142.905 25.2907L140.439 31.4926H140.365L137.806 25.2907H135.488L139.327 33.9589L137.138 38.7806H139.383L145.298 25.2907H142.905ZM130.704 32.8179C129.999 32.8179 129.016 32.4683 129.016 31.603C129.016 30.4989 130.241 30.0756 131.297 30.0756C132.244 30.0756 132.688 30.278 133.263 30.5544C133.096 31.8792 131.946 32.8179 130.704 32.8179V32.8179ZM130.964 24.9777C129.406 24.9777 127.793 25.6589 127.126 27.168L129.035 27.9591C129.443 27.168 130.203 26.9101 131.001 26.9101C132.113 26.9101 133.245 27.5729 133.263 28.7508V28.8978C132.873 28.6769 132.04 28.3458 131.019 28.3458C128.961 28.3458 126.865 29.4681 126.865 31.5663C126.865 33.4803 128.553 34.7135 130.444 34.7135C131.891 34.7135 132.688 34.0694 133.189 33.3149H133.263V34.4189H135.34V28.9344C135.34 26.3951 133.43 24.9777 130.964 24.9777V24.9777ZM117.668 27.032H114.608V22.1287H117.668C119.276 22.1287 120.189 23.4503 120.189 24.5803C120.189 25.6889 119.276 27.032 117.668 27.032ZM117.612 20.1378H112.457V34.4426H114.608V29.023H117.612C119.997 29.023 122.341 27.3097 122.341 24.5803C122.341 21.8511 119.997 20.1378 117.612 20.1378ZM89.5011 32.8205C88.0148 32.8205 86.7704 31.5855 86.7704 29.8892C86.7704 28.1751 88.0148 26.9213 89.5011 26.9213C90.9685 26.9213 92.1201 28.1751 92.1201 29.8892C92.1201 31.5855 90.9685 32.8205 89.5011 32.8205V32.8205ZM91.9715 26.0917H91.8971C91.4144 25.5203 90.4852 25.0042 89.3151 25.0042C86.8632 25.0042 84.6158 27.1425 84.6158 29.8892C84.6158 32.6176 86.8632 34.7376 89.3151 34.7376C90.4852 34.7376 91.4144 34.2213 91.8971 33.6318H91.9715V34.3322C91.9715 36.1944 90.9685 37.1898 89.3525 37.1898C88.0337 37.1898 87.2163 36.2493 86.8816 35.4568L85.0058 36.231C85.5445 37.5214 86.9749 39.1069 89.3525 39.1069C91.8787 39.1069 94.0148 37.6318 94.0148 34.0372V25.2992H91.9715V26.0917ZM95.5007 34.4426H97.6554V20.1373H95.5007V34.4426ZM100.832 29.7234C100.776 27.8429 102.299 26.8846 103.395 26.8846C104.25 26.8846 104.974 27.3083 105.215 27.9171L100.832 29.7234ZM107.519 28.1013C107.111 27.0133 105.866 25.0042 103.321 25.0042C100.795 25.0042 98.6958 26.9767 98.6958 29.8709C98.6958 32.5993 100.776 34.7376 103.562 34.7376C105.81 34.7376 107.111 33.3734 107.649 32.5809L105.977 31.4746C105.42 32.2859 104.658 32.8205 103.562 32.8205C102.466 32.8205 101.686 32.3226 101.185 31.3459L107.741 28.6542L107.519 28.1013ZM55.2789 26.4974V28.5621H60.2569C60.1083 29.7234 59.7182 30.5713 59.1238 31.1613C58.3996 31.8805 57.2664 32.673 55.2789 32.673C52.2139 32.673 49.8178 30.2213 49.8178 27.1795C49.8178 24.1378 52.2139 21.6857 55.2789 21.6857C56.9322 21.6857 58.1392 22.3311 59.0309 23.1607L60.4984 21.7045C59.2539 20.5244 57.6005 19.6211 55.2789 19.6211C51.0807 19.6211 47.5515 23.0132 47.5515 27.1795C47.5515 31.3459 51.0807 34.7376 55.2789 34.7376C57.5452 34.7376 59.2539 34.0006 60.5912 32.6176C61.9658 31.2534 62.3932 29.3363 62.3932 27.788C62.3932 27.3083 62.3562 26.8662 62.2815 26.4974H55.2789ZM68.0528 32.8205C66.5664 32.8205 65.2847 31.6038 65.2847 29.8709C65.2847 28.1196 66.5664 26.9213 68.0528 26.9213C69.5385 26.9213 70.8203 28.1196 70.8203 29.8709C70.8203 31.6038 69.5385 32.8205 68.0528 32.8205V32.8205ZM68.0528 25.0042C65.3405 25.0042 63.13 27.0504 63.13 29.8709C63.13 32.673 65.3405 34.7376 68.0528 34.7376C70.7645 34.7376 72.975 32.673 72.975 29.8709C72.975 27.0504 70.7645 25.0042 68.0528 25.0042ZM78.7908 32.8205C77.3051 32.8205 76.0232 31.6038 76.0232 29.8709C76.0232 28.1196 77.3051 26.9213 78.7908 26.9213C80.2767 26.9213 81.5585 28.1196 81.5585 29.8709C81.5585 31.6038 80.2767 32.8205 78.7908 32.8205ZM78.7908 25.0042C76.0786 25.0042 73.8686 27.0504 73.8686 29.8709C73.8686 32.673 76.0786 34.7376 78.7908 34.7376C81.5027 34.7376 83.7132 32.673 83.7132 29.8709C83.7132 27.0504 81.5027 25.0042 78.7908 25.0042Z" fill="black"/>
<path d="M82.4421 9.8346C82.244 10.1176 81.9714 10.4246 81.6247 10.7568C81.2486 10.4618 80.9446 10.1891 80.7135 9.93919C81.1473 9.50917 81.4422 9.2017 81.5999 9.01759C81.8679 9.30858 82.1484 9.58069 82.4421 9.8346V9.8346ZM81.4324 16.7124C80.709 16.7124 80.146 16.5068 79.7412 16.0942C79.3367 15.683 79.134 15.0997 79.134 14.346C79.134 14.1042 79.1498 13.8763 79.1813 13.6604C79.212 13.4458 79.2795 13.1316 79.3817 12.7173L79.847 12.828C79.7511 13.1968 79.7037 13.4954 79.7037 13.7251C79.7037 14.3397 79.8592 14.8181 80.1691 15.16C80.4784 15.5023 80.9094 15.6736 81.4625 15.6736C82.0908 15.6736 82.7155 15.522 83.3398 15.219C83.9636 14.9155 84.3802 14.5427 84.5905 14.1002C84.0374 12.8996 83.7609 12.0986 83.7609 11.6973C83.7609 11.4795 83.8226 11.2828 83.9464 11.1072C84.0702 10.9311 84.2856 10.7528 84.5905 10.5722C84.6274 10.8677 84.7242 11.4107 84.881 12.201L84.8877 12.2502C85.1683 12.3891 85.4755 12.4593 85.811 12.4593L85.9155 12.5639V13.3136L85.811 13.4181C85.5251 13.4181 85.2697 13.3666 85.0431 13.2643L85.0611 13.6269C85.0611 14.1432 84.8959 14.637 84.5657 15.1081C84.236 15.5792 83.7829 15.9646 83.2101 16.2636C82.6358 16.5626 82.0435 16.7124 81.4324 16.7124" fill="black"/>
<path d="M82.4422 9.83492L82.3476 9.76969C82.1553 10.0441 81.8878 10.3468 81.5446 10.6748L81.6248 10.7571L81.6964 10.6673C81.3234 10.3749 81.024 10.1058 80.7987 9.86215L80.7136 9.93951L80.7951 10.0204C81.2302 9.58913 81.5256 9.28154 81.6878 9.09159L81.6 9.0179L81.5148 9.09468C81.786 9.38934 82.0693 9.66419 82.3665 9.9212L82.4422 9.83492L82.3476 9.76969L82.4422 9.83492L82.5179 9.74864C82.2274 9.49747 81.9504 9.22833 81.6851 8.94055L81.5968 8.84489L81.5122 8.94364C81.359 9.12295 81.0644 9.4295 80.6321 9.8586L80.5541 9.93641L80.629 10.0169C80.8654 10.2729 81.1739 10.5492 81.5531 10.8469L81.6324 10.9086L81.7049 10.8394C82.0553 10.5036 82.3327 10.1916 82.5368 9.9006L82.5957 9.81615L82.5179 9.74864L82.4422 9.83492ZM81.4325 16.7127V16.5983C80.7303 16.5974 80.2042 16.4011 79.8236 16.0145C79.4453 15.6297 79.2499 15.0807 79.2494 14.3464C79.2494 14.1095 79.2647 13.8868 79.2953 13.6772L79.2957 13.675L79.2953 13.6767C79.3246 13.4698 79.3917 13.1569 79.4935 12.7448L79.3818 12.7176L79.3548 12.8288L79.82 12.9397L79.8471 12.8284L79.7354 12.7997C79.6381 13.1744 79.5885 13.4806 79.5885 13.7255C79.588 14.3584 79.7498 14.8688 80.083 15.2367C80.4154 15.6064 80.887 15.7896 81.4626 15.7884C82.1099 15.7884 82.753 15.6318 83.3903 15.3216C84.0284 15.0114 84.4689 14.623 84.6946 14.1492L84.7176 14.1014L84.6955 14.0531C84.1437 12.8602 83.8727 12.0542 83.8763 11.6976C83.8767 11.5018 83.9303 11.3309 84.0411 11.1728C84.1496 11.0176 84.3523 10.846 84.6496 10.6708L84.5905 10.5725L84.4762 10.5868C84.514 10.888 84.6113 11.4315 84.768 12.2236L84.8811 12.2013L84.7667 12.217L84.7734 12.2661L84.7819 12.326L84.836 12.3528C85.1328 12.5003 85.4593 12.5741 85.8111 12.5741V12.4597L85.7291 12.5401L85.8002 12.6112V13.2664L85.7291 13.3376L85.8111 13.4185V13.304C85.5391 13.304 85.3008 13.2553 85.0909 13.1605L84.9189 13.0827L84.9459 13.633L85.0612 13.6272H84.9459C84.9454 14.1189 84.7897 14.5877 84.4712 15.0432C84.1527 15.4977 83.7154 15.871 83.1566 16.1624C82.5971 16.4534 82.0247 16.5978 81.4325 16.5983V16.7127V16.8271C82.0625 16.8271 82.6746 16.672 83.2637 16.3654C83.8505 16.0592 84.319 15.6614 84.6604 15.1737C85.0018 14.687 85.1769 14.168 85.1765 13.6272V13.6244L85.1585 13.2588L85.0432 13.2647L84.9955 13.3688C85.2382 13.4788 85.5112 13.5329 85.8111 13.5329H85.8588L85.9975 13.3948L86.0308 13.3612V12.5643V12.5169L85.8926 12.3788L85.8588 12.3452H85.8111C85.4918 12.3452 85.2036 12.2791 84.9392 12.1481L84.8878 12.2505L85.0021 12.2353L84.9955 12.1861L84.995 12.1825L84.9941 12.1793C84.8378 11.39 84.7415 10.8474 84.7049 10.5586L84.6829 10.3847L84.5315 10.4741C84.2186 10.6601 83.9911 10.8451 83.8519 11.0418C83.7149 11.2357 83.6452 11.4584 83.6457 11.6976C83.6488 12.1441 83.9316 12.9397 84.4856 14.1479L84.5905 14.1006L84.4865 14.0518C84.2906 14.4631 83.8983 14.8197 83.2889 15.1165C82.6786 15.4128 82.0719 15.5595 81.4626 15.5595C80.9325 15.5581 80.5416 15.3994 80.2547 15.0838C79.9686 14.7682 79.8196 14.3222 79.8191 13.7255C79.8191 13.5114 79.8642 13.2199 79.9583 12.857L79.9875 12.7439L79.4089 12.6062L79.2971 12.5798L79.2697 12.6902C79.167 13.1064 79.0985 13.4229 79.0675 13.645V13.6441C79.0351 13.8659 79.0188 14.0996 79.0188 14.3464C79.0179 15.1192 79.2282 15.7373 79.6584 16.1746C80.088 16.6126 80.6883 16.8279 81.4325 16.8271V16.7127" fill="black"/>
<path d="M90.1316 12.4597C90.1145 11.9394 90.0154 11.4414 89.8344 10.9658C89.6528 10.4907 89.4727 10.2533 89.2962 10.2533C89.1336 10.2533 88.9841 10.3003 88.8435 10.3946C88.7025 10.4889 88.5629 10.6342 88.4224 10.8308C88.2814 11.0275 88.0922 11.3592 87.8522 11.8267C88.4466 12.1499 89.2069 12.3613 90.1316 12.4597V12.4597ZM85.871 13.4185L85.7651 13.3139V12.5643L85.871 12.4597C86.193 12.4597 86.4641 12.3823 86.6848 12.2294C86.9054 12.0752 87.0968 11.841 87.2581 11.5255L87.5126 11.0212C87.8378 10.3329 88.1567 9.84751 88.4683 9.56498C88.78 9.282 89.1228 9.1408 89.4939 9.1408C89.742 9.1408 89.9884 9.29047 90.2338 9.58959C90.4793 9.88813 90.6775 10.2739 90.8284 10.7445C90.9792 11.2157 91.055 11.6707 91.055 12.1092C91.055 12.3671 91.0063 12.6022 90.9116 12.8128C90.8171 13.0237 90.6496 13.2253 90.4109 13.4185C89.902 13.4185 89.3624 13.3482 88.7904 13.2092C88.2184 13.0703 87.7409 12.8897 87.3567 12.6684C87.1591 12.9348 86.9429 13.1266 86.7064 13.2427C86.4722 13.3603 86.193 13.4185 85.871 13.4185" fill="black"/>
<path d="M90.1317 12.4595L90.2466 12.4558C90.2294 11.9235 90.1281 11.4126 89.942 10.9254C89.7506 10.4472 89.5867 10.1597 89.2963 10.1387C89.1111 10.1383 88.9359 10.1933 88.7787 10.2997C88.622 10.4052 88.4743 10.5602 88.3283 10.7645C88.1811 10.9706 87.9909 11.3049 87.7496 11.7742L87.6991 11.8735L87.7969 11.9266C88.4094 12.2597 89.1841 12.4738 90.119 12.573L90.251 12.5873L90.2466 12.4558L90.1317 12.4595L90.1438 12.3455C89.2299 12.2485 88.4847 12.0398 87.9082 11.726L87.8522 11.8265L87.9554 11.8784C88.1936 11.4135 88.3824 11.0841 88.5161 10.8968C88.6517 10.7073 88.7832 10.5724 88.9079 10.4892C89.0323 10.406 89.1566 10.3675 89.2963 10.3675C89.3589 10.3461 89.5552 10.5334 89.7263 11.0063C89.9028 11.4698 89.9997 11.9549 90.0164 12.463L90.1317 12.4595L90.1438 12.3455L90.1317 12.4595ZM85.871 13.4183L85.9521 13.3369L85.8805 13.2662V12.6115L85.9521 12.5404L85.871 12.4595V12.5739C86.2111 12.5739 86.5083 12.4912 86.751 12.3231V12.3226C86.9915 12.1547 87.1938 11.9043 87.3609 11.5767L87.6154 11.0725L87.6162 11.0711L87.6167 11.0698C87.9383 10.3886 88.2531 9.91394 88.5463 9.64881C88.8422 9.38196 89.1526 9.25552 89.494 9.25506C89.6911 9.25414 89.9092 9.37532 90.1443 9.66139C90.3785 9.94655 90.5708 10.3184 90.7186 10.7792C90.8663 11.2405 90.9393 11.6834 90.9397 12.109C90.9393 12.3531 90.8937 12.5707 90.8063 12.7661C90.7217 12.9557 90.5667 13.1447 90.338 13.3293L90.411 13.4183V13.3039C89.9123 13.3039 89.3823 13.2354 88.8179 13.0982C88.2541 12.961 87.7865 12.7836 87.4149 12.5695L87.3258 12.518L87.2646 12.6002C87.074 12.8563 86.8713 13.0338 86.6551 13.1402L86.6543 13.1407C86.4394 13.2479 86.1791 13.3039 85.871 13.3039V13.4183L85.9521 13.3369L85.871 13.4183V13.5327C86.2066 13.5327 86.5047 13.4718 86.7583 13.3449L86.7574 13.3454C87.0141 13.2188 87.2438 13.0133 87.4501 12.7362L87.3568 12.6682L87.2991 12.7674C87.6955 12.9954 88.1828 13.1791 88.763 13.3203C89.3426 13.4612 89.8912 13.5327 90.411 13.5327H90.4514L90.4835 13.5067C90.7321 13.306 90.9126 13.0915 91.0171 12.8591C91.1189 12.6329 91.1703 12.3812 91.1703 12.109C91.1703 11.6576 91.0924 11.1909 90.9383 10.71C90.7843 10.2286 90.5802 9.82983 90.3236 9.51699C90.0677 9.20494 89.792 9.02712 89.494 9.0262C89.0922 9.02529 88.7184 9.18171 88.3905 9.48037C88.0599 9.78074 87.7374 10.2768 87.4082 10.9728L87.5127 11.021L87.4095 10.9696L87.155 11.4738V11.4735C87.0002 11.7774 86.8195 11.995 86.6186 12.1354C86.42 12.2731 86.1745 12.3446 85.871 12.3451H85.8233L85.6837 12.4827L85.6499 12.5163V13.3137V13.3611L85.7895 13.4992L85.8233 13.5327H85.871V13.4183" fill="black"/>
<path d="M95.9276 11.1813C96.2668 11.4678 96.6428 11.6582 97.0558 11.7525C97.4685 11.8472 97.9243 11.8982 98.4242 11.9063L98.0967 9.87829L98.0895 9.85369C97.0789 10.1979 96.3583 10.6404 95.9276 11.1813ZM97.9836 12.9268C97.522 12.8856 97.2046 12.8459 97.0316 12.807C96.8582 12.768 96.6766 12.7127 96.4888 12.6407C96.3006 12.5692 96.1083 12.478 95.9101 12.3671C95.7114 12.2567 95.5619 12.1499 95.4607 12.0475L95.3083 11.765C95.3083 11.6547 95.366 11.4638 95.4799 11.1933C95.5935 10.9229 95.6866 10.724 95.7615 10.597C95.8893 10.3637 96.1686 10.0947 96.6 9.78892C97.0316 9.48363 97.4882 9.23509 97.9729 9.0424L97.9288 8.69831C98.2215 8.43638 98.5291 8.21645 98.8511 8.04081L98.9691 12.1275C99.3528 12.3488 99.7924 12.4597 100.288 12.4597L100.394 12.5643V13.3139L100.288 13.4185C99.7762 13.4185 99.361 13.3233 99.0435 13.1324C98.7259 12.9423 98.5426 12.6724 98.4926 12.3242L98.4489 12.0601L97.9836 12.9268" fill="black"/>
<path d="M95.9277 11.1811L95.8534 11.2683C96.2048 11.5655 96.5989 11.7657 97.0303 11.8641C97.4518 11.9606 97.9157 12.0121 98.4224 12.0206L98.5597 12.0227L98.2094 9.85352L98.2008 9.82319L98.1689 9.70556L98.0527 9.74492C97.0294 10.094 96.288 10.5441 95.8372 11.11L95.7687 11.1968L95.8534 11.2683L95.9277 11.1811L96.0182 11.2517C96.4276 10.7363 97.1284 10.3014 98.1274 9.96176L98.0896 9.85352L97.9783 9.8835L97.9837 9.90226L98.3102 11.9244L98.4243 11.9061L98.426 11.7917C97.9329 11.7836 97.4847 11.7331 97.0821 11.641C96.6871 11.5507 96.329 11.3697 96.003 11.0939L95.9277 11.1811L96.0182 11.2517L95.9277 11.1811ZM97.9837 12.9266L97.9941 12.8126C97.5352 12.7719 97.2186 12.7317 97.0564 12.695C96.8893 12.6575 96.7137 12.6038 96.5304 12.5336H96.5299C96.348 12.4644 96.1606 12.3759 95.9664 12.2673C95.7741 12.1604 95.6323 12.0581 95.5426 11.9673L95.4607 12.0473L95.5624 11.9937L95.4102 11.7113L95.3084 11.7648H95.4237C95.422 11.6902 95.4738 11.5012 95.5863 11.2374C95.6989 10.9692 95.7917 10.7729 95.861 10.6545L95.8615 10.6536L95.8624 10.6519C95.9742 10.4458 96.2426 10.1816 96.6672 9.88167C97.0911 9.58175 97.5402 9.33768 98.0158 9.14818L98.0982 9.11557L98.0432 8.68383L97.9288 8.69814L98.0059 8.78304C98.2927 8.5265 98.5931 8.31194 98.9066 8.14076L98.8512 8.04063L98.7359 8.04373L98.8557 12.1944L98.9111 12.2266C99.3137 12.4586 99.7749 12.5739 100.288 12.5739V12.4595L100.206 12.5404L100.279 12.6115V13.2662L100.206 13.3369L100.288 13.4183V13.3039C99.7902 13.3039 99.3966 13.2108 99.1034 13.0343L99.1029 13.0338C98.8106 12.8572 98.6539 12.6248 98.6071 12.3079V12.3066L98.563 12.041L98.5071 11.7076L97.8824 12.8725L97.9837 12.9266L97.9941 12.8126L97.9837 12.9266L98.0855 12.9801L98.5508 12.1135L98.4489 12.0599L98.335 12.0787L98.3792 12.3428L98.4926 12.324L98.3787 12.3401C98.431 12.7196 98.6413 13.0272 98.984 13.2301H98.9836C99.3255 13.4352 99.7623 13.5327 100.288 13.5327H100.335L100.475 13.3949L100.509 13.3611V12.5641V12.5163L100.369 12.3781L100.335 12.3451H100.288C99.8091 12.3446 99.3921 12.2387 99.0268 12.0286L98.9692 12.1273L99.0845 12.1242L98.9607 7.84977L98.7953 7.94005C98.4647 8.12062 98.1504 8.34547 97.8518 8.61312L97.8067 8.65294L97.858 9.05653L97.973 9.04222L97.9298 8.93592C97.437 9.13216 96.9717 9.38516 96.533 9.69526C96.0952 10.0069 95.8052 10.2809 95.6602 10.5424L95.7615 10.5968L95.6616 10.5396C95.5823 10.6751 95.4882 10.8763 95.3733 11.1493C95.2585 11.4264 95.1954 11.6182 95.1931 11.7648V11.7934L95.3589 12.1015L95.3665 12.1162L95.3787 12.1278C95.4913 12.2417 95.6494 12.3526 95.8534 12.467C96.0557 12.5796 96.2534 12.6736 96.4475 12.7473H96.447C96.6398 12.8211 96.8262 12.8778 97.006 12.9185C97.191 12.9597 97.5095 12.9994 97.9738 13.0406L98.05 13.0472L98.0855 12.9801L97.9837 12.9266" fill="black"/>
<path d="M104.519 14.8313C104.365 15.0687 104.112 15.3539 103.757 15.6855C103.39 15.3946 103.11 15.1389 102.92 14.9176C103.11 14.7455 103.383 14.4627 103.738 14.0693C103.812 14.1515 104.073 14.4054 104.519 14.8313ZM102.605 15.0097C102.451 15.2515 102.202 15.5385 101.855 15.8701C101.475 15.5667 101.195 15.311 101.013 15.1017C101.235 14.8966 101.508 14.6142 101.83 14.2538C101.904 14.3312 102.163 14.5833 102.605 15.0097ZM103.738 10.5537C103.854 10.5537 103.957 10.5868 104.048 10.6521C103.895 11.0168 103.761 11.3221 103.646 11.568C103.529 11.8138 103.46 11.951 103.435 11.9796C103.719 12.1601 103.985 12.2849 104.231 12.3547C104.476 12.4243 104.744 12.4592 105.033 12.4592L105.138 12.5638V13.3135L105.033 13.418C104.252 13.418 103.583 13.1744 103.026 12.6863L102.821 12.9567C102.735 13.0514 102.428 13.1515 101.903 13.258C101.375 13.3648 100.859 13.418 100.351 13.418L100.245 13.3135V12.5638L100.351 12.4592C100.875 12.4592 101.32 12.4368 101.685 12.3917C102.051 12.3461 102.309 12.2706 102.46 12.1643C102.61 12.0574 102.832 11.7239 103.125 11.1626L103.348 10.7567C103.422 10.6212 103.553 10.5537 103.738 10.5537" fill="black"/>
<path d="M104.519 14.8318L104.422 14.7701C104.278 14.9945 104.029 15.2747 103.678 15.6028L103.757 15.686L103.829 15.597C103.465 15.3087 103.191 15.0561 103.008 14.8439L102.92 14.918L102.998 15.0025C103.194 14.8251 103.468 14.5408 103.823 14.1461L103.738 14.0697L103.652 14.1461C103.733 14.2359 103.992 14.4868 104.439 14.9145L104.519 14.8318L104.422 14.7701L104.519 14.8318L104.6 14.7495C104.155 14.3245 103.891 14.0678 103.823 13.9932L103.737 13.8985L103.652 13.9932C103.299 14.3853 103.027 14.6664 102.843 14.8336L102.76 14.9077L102.833 14.9923C103.03 15.222 103.314 15.4817 103.685 15.7753L103.763 15.8375L103.836 15.7695C104.195 15.4339 104.454 15.1443 104.616 14.8934L104.668 14.8148L104.6 14.7495L104.519 14.8318ZM102.605 15.0101L102.507 14.9494C102.362 15.1786 102.118 15.4602 101.775 15.7884L101.855 15.8705L101.927 15.7816C101.551 15.4808 101.275 15.2278 101.1 15.0275L101.013 15.1021L101.091 15.1863C101.318 14.9771 101.593 14.6923 101.917 14.3302L101.831 14.2542L101.747 14.333C101.825 14.4148 102.082 14.665 102.525 15.092L102.605 15.0101L102.507 14.9494L102.605 15.0101L102.685 14.9279C102.244 14.5023 101.984 14.2489 101.914 14.1756L101.827 14.0849L101.744 14.1783C101.423 14.5368 101.153 14.8175 100.934 15.0182L100.853 15.0937L100.926 15.1773C101.116 15.395 101.4 15.6538 101.783 15.9596L101.862 16.0229L101.935 15.9528C102.286 15.6171 102.541 15.3257 102.702 15.0709L102.752 14.9926L102.685 14.9279L102.605 15.0101ZM103.738 10.5541V10.6685L103.981 10.7454L104.048 10.6525L103.942 10.6087C103.789 10.9726 103.656 11.2765 103.541 11.5201C103.483 11.6421 103.437 11.7373 103.403 11.8039L103.361 11.8821L103.349 11.9027L103.346 11.9067L103.364 11.9192L103.347 11.9054L103.346 11.9067L103.364 11.9192L103.347 11.9054L103.26 12.0055L103.373 12.0766C103.665 12.2616 103.94 12.3912 104.199 12.465C104.457 12.5383 104.734 12.5741 105.033 12.5741V12.4597L104.951 12.5406L105.023 12.6116V13.2664L104.951 13.3371L105.033 13.4185V13.304C104.277 13.3031 103.64 13.0707 103.102 12.6009L103.009 12.5191L102.729 12.8888L102.821 12.9571L102.735 12.8806C102.71 12.9254 102.396 13.0478 101.879 13.1462C101.359 13.2517 100.851 13.304 100.351 13.304V13.4185L100.432 13.3371L100.36 13.2664V12.6116L100.432 12.5406L100.351 12.4597V12.5741C100.879 12.5741 101.328 12.5517 101.699 12.5052C102.074 12.4578 102.346 12.3841 102.527 12.2576C102.716 12.1176 102.929 11.7829 103.228 11.2153L103.125 11.163L103.226 11.2174L103.449 10.812C103.506 10.7164 103.579 10.6722 103.738 10.6685V10.5541V10.4397C103.527 10.4361 103.34 10.5278 103.247 10.7021L103.024 11.1079L103.023 11.1093L103.023 11.1102C102.736 11.6653 102.505 11.9979 102.393 12.0712C102.272 12.1584 102.028 12.2353 101.671 12.2786C101.313 12.3228 100.872 12.3452 100.351 12.3452H100.303L100.164 12.4829L100.13 12.5164V13.3139V13.3612L100.27 13.4994L100.303 13.5329H100.351C100.867 13.5329 101.391 13.4788 101.926 13.3706C102.461 13.2557 102.761 13.1779 102.907 13.034L102.91 13.03L103.118 12.7556L103.026 12.6867L102.95 12.7725C103.527 13.279 104.228 13.5337 105.033 13.5329H105.08L105.22 13.3951L105.253 13.3612V12.5643V12.5164L105.114 12.3783L105.08 12.3452H105.033C104.753 12.3452 104.497 12.3117 104.263 12.2451C104.031 12.1793 103.775 12.0596 103.497 11.8835L103.435 11.98L103.522 12.0552L103.609 11.9076C103.645 11.8369 103.691 11.7405 103.75 11.617C103.867 11.3689 104.001 11.0624 104.155 10.6967L104.19 10.6127L104.116 10.5599C104.006 10.4809 103.876 10.4392 103.738 10.4397V10.5541" fill="black"/>
<path d="M105.228 13.4185L105.123 13.3139V12.5643L105.228 12.4597C105.706 12.4597 106.17 12.351 106.616 12.1338C106.504 11.2488 106.371 9.65481 106.213 7.35241L106.089 5.67444C106.341 5.41606 106.625 5.18274 106.945 4.97357C106.998 6.12494 107.042 7.93393 107.074 10.4009L107.118 12.1275C107.501 12.3488 107.941 12.4597 108.437 12.4597L108.547 12.5643V13.3139L108.437 13.4185C107.818 13.4185 107.332 13.2687 106.981 12.9697C106.672 13.1418 106.392 13.2597 106.145 13.3233C105.898 13.3862 105.592 13.4185 105.228 13.4185" fill="black"/>
<path d="M105.228 13.4183L105.31 13.3369L105.238 13.2662V12.6115L105.31 12.5404L105.228 12.4595V12.5739C105.725 12.5739 106.206 12.4608 106.667 12.2364L106.741 12.2002L106.73 12.1193C106.62 11.2397 106.485 9.64571 106.328 7.34423L106.203 5.6658L106.089 5.67427L106.171 5.7538C106.418 5.50171 106.696 5.27377 107.008 5.06906L106.945 4.9734L106.829 4.97878C106.882 6.12797 106.926 7.93594 106.959 10.402L107.005 12.1944L107.06 12.2262C107.461 12.4586 107.924 12.5739 108.437 12.5739V12.4595L108.357 12.5426L108.432 12.6132V13.2645L108.357 13.3351L108.437 13.4183V13.3039C107.835 13.3034 107.381 13.159 107.055 12.8828L106.994 12.8305L106.924 12.8698C106.622 13.0383 106.351 13.1522 106.116 13.2127C105.882 13.272 105.585 13.3039 105.228 13.3039V13.4183L105.31 13.3369L105.228 13.4183V13.5327C105.599 13.5327 105.913 13.5004 106.173 13.4339C106.435 13.3668 106.722 13.2448 107.037 13.0692L106.98 12.9695L106.906 13.0562C107.283 13.3775 107.799 13.5332 108.437 13.5327H108.482L108.627 13.3968L108.663 13.3628V12.5641V12.5144L108.515 12.3763L108.482 12.3451H108.437C107.958 12.3446 107.54 12.2387 107.175 12.0286L107.118 12.1273L107.233 12.1247L107.189 10.3975L107.074 10.4007L107.189 10.3989C107.157 7.93147 107.113 6.12214 107.06 4.96848L107.051 4.76686L106.881 4.87819C106.555 5.09137 106.264 5.33007 106.006 5.59474L105.969 5.63136L106.097 7.36025V7.35979C106.255 9.66311 106.389 11.258 106.501 12.1479L106.616 12.1336L106.564 12.0308C106.133 12.2409 105.689 12.3451 105.228 12.3451H105.181L105.041 12.4827L105.008 12.5163V13.3137V13.3611L105.147 13.4992L105.181 13.5327H105.228V13.4183" fill="black"/>
<path d="M108.501 13.4185L108.396 13.3139V12.5643L108.501 12.4597C109.047 12.4597 109.574 12.4471 110.08 12.4225C109.879 12.2911 109.702 12.1115 109.551 11.8817C109.401 11.6519 109.326 11.4083 109.326 11.1504C109.326 10.7937 109.424 10.4192 109.62 10.0258C109.816 9.6325 110.069 9.31507 110.377 9.07283C110.689 8.83104 111.011 8.71032 111.35 8.71032C111.643 8.71032 111.925 8.78321 112.192 8.92842C112.461 9.0742 112.772 9.30031 113.127 9.60789L112.905 10.007C112.571 9.88058 112.327 9.80048 112.175 9.76741C112.021 9.73434 111.854 9.71832 111.672 9.71832C111.152 9.71832 110.609 9.87199 110.044 10.1791C110.044 10.5398 110.13 10.8688 110.307 11.1656C110.482 11.4629 110.738 11.7016 111.071 11.8817C111.407 12.0623 111.801 12.1647 112.254 12.1892C112.576 12.1235 112.884 12.0449 113.177 11.9523C113.471 11.8606 113.881 11.7119 114.409 11.5071C114.526 11.6135 114.583 11.7628 114.583 11.9554L114.571 12.0846C114.521 12.3671 114.346 12.5455 114.044 12.6192C113.037 12.8691 112.275 13.0407 111.758 13.1324C111.243 13.2248 110.713 13.2954 110.171 13.3447C109.628 13.3939 109.071 13.4185 108.501 13.4185" fill="black"/>
<path d="M108.501 13.4183L108.583 13.3369L108.511 13.2662V12.6115L108.583 12.5404L108.501 12.4595V12.5739C109.048 12.5739 109.577 12.5613 110.085 12.5367L110.439 12.5193L110.143 12.3268C109.956 12.2051 109.791 12.0375 109.647 11.8189C109.508 11.6058 109.441 11.3867 109.441 11.1502C109.441 10.8151 109.533 10.4575 109.723 10.0762C109.913 9.69618 110.155 9.39317 110.449 9.16249V9.16295C110.744 8.93363 111.04 8.82504 111.35 8.82458C111.624 8.82504 111.885 8.8921 112.138 9.02838H112.137C112.394 9.16832 112.7 9.38997 113.051 9.694L113.127 9.60773L113.027 9.55223L112.803 9.95192L112.905 10.0069L112.945 9.90009C112.609 9.77216 112.363 9.69126 112.199 9.65556C112.036 9.62066 111.861 9.60372 111.672 9.60372C111.129 9.60372 110.566 9.76461 109.989 10.0788L109.929 10.1114V10.179C109.929 10.5576 110.021 10.9089 110.208 11.2236C110.393 11.5396 110.667 11.7934 111.016 11.9821L111.017 11.9826L111.016 11.9821C111.369 12.1721 111.78 12.278 112.249 12.3031L112.264 12.3039L112.277 12.3012C112.604 12.2351 112.915 12.1551 113.211 12.0612C113.51 11.9683 113.923 11.8189 114.452 11.6133L114.409 11.5069L114.331 11.5905C114.42 11.6737 114.467 11.784 114.468 11.9552H114.583L114.468 11.9446L114.455 12.0738L114.571 12.0844L114.456 12.0647C114.409 12.3079 114.286 12.4366 114.016 12.5081C113.011 12.7576 112.25 12.9288 111.739 13.0195C111.226 13.1116 110.699 13.1813 110.159 13.2305C109.621 13.2793 109.069 13.3039 108.501 13.3039V13.4183L108.583 13.3369L108.501 13.4183V13.5327C109.074 13.5327 109.635 13.5081 110.181 13.4585C110.727 13.4089 111.26 13.3382 111.779 13.2448C112.3 13.1522 113.064 12.9801 114.071 12.7303C114.406 12.6539 114.633 12.4264 114.684 12.1041L114.685 12.0996L114.697 11.966L114.699 11.9606V11.9552C114.7 11.7411 114.631 11.5535 114.488 11.4229L114.435 11.3741L114.368 11.4001C113.841 11.6048 113.431 11.7528 113.142 11.8426V11.8431C112.853 11.9343 112.549 12.0121 112.231 12.0769L112.254 12.189L112.261 12.0746C111.821 12.0509 111.444 11.9521 111.126 11.7809H111.127C110.808 11.6088 110.571 11.3858 110.406 11.1073C110.241 10.8284 110.159 10.5213 110.159 10.179H110.044L110.099 10.2795C110.652 9.97916 111.175 9.83258 111.672 9.83258C111.847 9.83258 112.006 9.84814 112.15 9.87949C112.29 9.90947 112.532 9.98808 112.863 10.1142L112.956 10.1494L113.227 9.66311L113.274 9.58221L113.203 9.52145C112.845 9.21032 112.526 8.97975 112.249 8.82767H112.247C111.965 8.674 111.663 8.59573 111.35 8.59573C110.984 8.59527 110.632 8.72846 110.307 8.98284L110.303 8.98467L110.306 8.98329C109.983 9.23629 109.719 9.56836 109.516 9.9747C109.314 10.3801 109.21 10.7726 109.21 11.1502C109.21 11.4306 109.292 11.6982 109.455 11.9441C109.613 12.185 109.801 12.3772 110.017 12.518L110.08 12.4223L110.075 12.3083C109.57 12.3325 109.044 12.3451 108.501 12.3451H108.454L108.315 12.4827L108.28 12.5163V13.3137V13.3611L108.421 13.4992L108.454 13.5327H108.501V13.4183" fill="black"/>
<path d="M123.989 14.1002L123.668 12.0659C123.309 9.93519 123.073 8.45071 122.959 7.61264C122.846 6.77549 122.789 6.22349 122.789 5.95664C122.789 5.67412 122.855 5.45511 122.987 5.29903C123.119 5.14306 123.33 5.03493 123.618 4.97325L123.656 5.12075C123.668 5.16583 123.806 5.61462 124.07 6.4671L123.773 6.72491L123.798 6.92161L124.212 10.6522C124.287 11.197 124.343 11.7196 124.38 12.2193L124.386 12.2443C124.658 12.3878 124.969 12.4593 125.315 12.4593L125.42 12.5639V13.3136L125.315 13.4181C125.01 13.4181 124.722 13.3506 124.448 13.2151L124.46 13.6269C124.46 14.1472 124.297 14.6433 123.971 15.1144C123.645 15.5851 123.196 15.9694 122.627 16.2662C122.057 16.5635 121.469 16.7124 120.862 16.7124C120.14 16.7124 119.577 16.5068 119.172 16.0942C118.768 15.683 118.565 15.0997 118.565 14.346C118.565 14.1042 118.581 13.8763 118.612 13.6604C118.642 13.4458 118.71 13.1316 118.812 12.7173L119.277 12.828C119.183 13.1968 119.134 13.4954 119.134 13.7252C119.134 14.3397 119.29 14.8181 119.599 15.16C119.909 15.5023 120.34 15.6736 120.892 15.6736C121.294 15.6736 121.71 15.6038 122.145 15.4643C122.577 15.3254 122.96 15.135 123.29 14.8931C123.62 14.6509 123.855 14.3867 123.989 14.1002" fill="black"/>
<path d="M123.989 14.1006L124.104 14.0826L123.781 12.0484V12.0475C123.423 9.91765 123.187 8.43318 123.073 7.59774C122.96 6.76287 122.905 6.20996 122.905 5.95696C122.905 5.69045 122.966 5.50188 123.075 5.37315V5.37269C123.185 5.2435 123.369 5.14383 123.642 5.0857L123.618 4.97356L123.506 5.00217L123.544 5.14967L123.656 5.12106L123.544 5.14875C123.558 5.20505 123.695 5.64629 123.961 6.50083L124.07 6.46742L123.994 6.38114L123.698 6.63906L123.652 6.67923L123.684 6.93532L124.098 10.6664V10.6681C124.172 11.2108 124.228 11.7306 124.265 12.2281L124.266 12.237L124.273 12.2697L124.285 12.3211L124.332 12.3457C124.622 12.4989 124.953 12.5741 125.315 12.5741V12.4597L125.234 12.5401L125.305 12.6112V13.2664L125.234 13.3376L125.315 13.4185V13.304C125.027 13.3036 124.757 13.2405 124.5 13.1132L124.328 13.0278L124.345 13.6303L124.46 13.6272H124.345C124.345 14.1238 124.191 14.5949 123.876 15.0499C123.561 15.504 123.129 15.8759 122.574 16.1655C122.018 16.4548 121.451 16.5978 120.863 16.5983C120.16 16.5974 119.635 16.4011 119.255 16.0149V16.0145C118.876 15.6292 118.68 15.0807 118.68 14.3464C118.68 14.1095 118.695 13.8868 118.726 13.6772V13.6745V13.6767C118.755 13.4698 118.822 13.1569 118.924 12.7448L118.813 12.7176L118.785 12.8288L119.251 12.9397L119.277 12.8284L119.165 12.8002C119.07 13.1744 119.019 13.4801 119.019 13.7255C119.019 14.3584 119.18 14.8688 119.514 15.2367C119.846 15.6064 120.317 15.7896 120.893 15.7884C121.308 15.7884 121.737 15.7159 122.18 15.5738C122.623 15.4311 123.018 15.2355 123.359 14.9855C123.7 14.7352 123.948 14.4577 124.093 14.1487L124.108 14.117L124.104 14.0826L123.989 14.1006L123.885 14.0523C123.76 14.3168 123.541 14.5677 123.222 14.8014C122.902 15.0352 122.531 15.2202 122.109 15.3561C121.685 15.492 121.28 15.5595 120.893 15.5595C120.363 15.5581 119.971 15.3994 119.685 15.0838C119.399 14.7682 119.25 14.3222 119.25 13.7255C119.25 13.5118 119.296 13.2199 119.389 12.8565L119.418 12.7439L118.839 12.6062L118.727 12.5798L118.701 12.6902C118.597 13.1064 118.529 13.4229 118.498 13.645V13.6441C118.465 13.8659 118.449 14.0996 118.449 14.3464C118.448 15.1192 118.659 15.7373 119.09 16.1746C119.518 16.6126 120.119 16.8279 120.863 16.8271C121.489 16.8271 122.096 16.6729 122.681 16.3681C123.264 16.0641 123.729 15.6667 124.067 15.1795C124.405 14.6923 124.575 14.1712 124.575 13.6272V13.6258L124.564 13.2124L124.448 13.2155L124.398 13.3179C124.685 13.4609 124.993 13.5329 125.315 13.5329H125.364L125.502 13.3948L125.536 13.3612V12.5643V12.5169L125.397 12.3788L125.364 12.3452H125.315C124.985 12.3452 124.694 12.2773 124.44 12.1432L124.386 12.2447L124.498 12.2191L124.492 12.1945L124.38 12.2196L124.496 12.2116C124.458 11.7087 124.401 11.1839 124.326 10.6373L124.212 10.6525L124.327 10.6399L123.912 6.90854L123.895 6.77134L124.146 6.55324L124.203 6.50449L124.181 6.43343C123.917 5.58415 123.776 5.12735 123.768 5.09383V5.09245L123.729 4.94496L123.702 4.83854L123.594 4.86177C123.291 4.92665 123.053 5.04325 122.899 5.22611V5.22565C122.743 5.40896 122.674 5.65784 122.674 5.95696C122.674 6.23719 122.73 6.78828 122.845 7.62818C122.959 8.46945 123.195 9.95381 123.554 12.085V12.0838L123.875 14.1184L123.989 14.1006L123.885 14.0523L123.989 14.1006Z" fill="black"/>
<path d="M130.529 12.4597C131.631 12.4597 132.76 12.1007 133.916 11.3837C133.661 10.9412 133.353 10.5962 132.993 10.3485C132.635 10.1005 132.279 9.97658 131.929 9.97658C131.528 9.97658 131.052 10.1697 130.497 10.5578C129.945 10.9444 129.344 11.5169 128.696 12.275C129.357 12.398 129.967 12.4597 130.529 12.4597V12.4597ZM135.348 13.4185C134.988 13.4185 134.63 13.3469 134.276 13.2034C133.92 13.0595 133.63 12.8713 133.402 12.6375C133.027 12.8798 132.567 13.0703 132.025 13.2092C131.482 13.3482 130.94 13.4185 130.399 13.4185C129.788 13.4185 129.159 13.3527 128.516 13.2218C127.872 13.0903 127.361 12.9205 126.98 12.7118L126.764 12.9571C126.483 13.2647 126.021 13.4185 125.376 13.4185L125.27 13.3139V12.5643L125.376 12.4597C125.756 12.4597 126.058 12.3908 126.28 12.254C126.504 12.1164 126.729 11.8508 126.955 11.458L127.153 11.1075C127.241 10.96 127.375 10.8863 127.557 10.8863C127.676 10.8863 127.775 10.9252 127.853 11.0029C127.676 11.4294 127.55 11.7199 127.475 11.8754C127.682 11.9743 127.893 12.056 128.108 12.1218C129.727 9.99088 131.106 8.92579 132.245 8.92579C132.484 8.92579 132.779 9.02191 133.13 9.21449C133.481 9.40719 133.794 9.65481 134.071 9.95782C134.348 10.2614 134.485 10.5273 134.485 10.7571C134.485 11.2648 134.324 11.7181 133.997 12.1155C134.381 12.3452 134.831 12.4597 135.348 12.4597L135.458 12.5643V13.3139L135.348 13.4185" fill="black"/>
<path d="M130.529 12.4595V12.5739C131.657 12.5739 132.809 12.2065 133.977 11.4806L134.071 11.4224L134.016 11.3268C133.753 10.8723 133.435 10.5133 133.06 10.2545C132.687 9.99655 132.308 9.86164 131.929 9.86199C131.49 9.8629 130.995 10.0694 130.431 10.4636C129.866 10.8588 129.261 11.4381 128.608 12.2011L128.479 12.3512L128.675 12.3875C129.342 12.5113 129.959 12.5739 130.529 12.5739V12.4595V12.3451C129.976 12.3451 129.373 12.2842 128.717 12.1627L128.696 12.2748L128.784 12.3491C129.428 11.5959 130.023 11.0296 130.564 10.651C131.107 10.2697 131.566 10.0896 131.929 10.0908C132.252 10.0908 132.583 10.2045 132.927 10.4422C133.271 10.6787 133.567 11.0104 133.816 11.4407L133.916 11.3835L133.854 11.2866C132.713 11.995 131.606 12.3451 130.529 12.3451V12.4595ZM135.348 13.4183V13.3039C135.003 13.3039 134.662 13.2354 134.32 13.0969C133.976 12.9583 133.7 12.7786 133.486 12.5578L133.42 12.4903L133.34 12.5417C132.977 12.7754 132.529 12.9618 131.996 13.0982C131.462 13.235 130.93 13.3039 130.399 13.3039C129.796 13.3039 129.176 13.239 128.539 13.1093C127.903 12.9798 127.401 12.8122 127.036 12.6115L126.954 12.5663L126.677 12.8819L126.764 12.9569L126.678 12.8805C126.43 13.1536 126.004 13.3034 125.377 13.3039V13.4183L125.458 13.3369L125.386 13.2662V12.6115L125.458 12.5404L125.377 12.4595V12.5739C125.77 12.5735 126.093 12.5033 126.342 12.3508C126.591 12.1962 126.824 11.9164 127.055 11.5146L127.056 11.5127L127.254 11.1633L127.153 11.1073L127.252 11.1654C127.325 11.0501 127.407 11.0036 127.557 11.0005L127.772 11.0841L127.853 11.0027L127.747 10.9589C127.57 11.3844 127.444 11.6745 127.371 11.8265L127.322 11.9298L127.425 11.9786C127.638 12.0795 127.853 12.1636 128.075 12.2306L128.152 12.2543L128.2 12.1904C129.809 10.0659 131.182 9.03204 132.245 9.04005C132.452 9.03914 132.733 9.12633 133.074 9.31445C133.414 9.50085 133.717 9.74001 133.986 10.0345C134.255 10.3278 134.372 10.5745 134.37 10.7569C134.37 11.2405 134.219 11.6639 133.908 12.0429L133.823 12.1453L133.938 12.2131C134.341 12.455 134.815 12.5739 135.348 12.5739V12.4595L135.268 12.5426L135.343 12.6132V13.2645L135.268 13.3351L135.348 13.4183V13.3039V13.4183L135.426 13.5014L135.538 13.3968L135.574 13.3628V12.5641V12.5144L135.426 12.3763L135.393 12.3451H135.348C134.848 12.3446 134.421 12.2346 134.056 12.017L133.997 12.1153L134.086 12.1877C134.429 11.772 134.602 11.2888 134.6 10.7569C134.599 10.4802 134.443 10.1951 134.157 9.88121C133.872 9.56882 133.548 9.31319 133.186 9.1142C132.825 8.9167 132.515 8.81165 132.245 8.8112C131.03 8.81875 129.644 9.91565 128.016 12.0522L128.108 12.1216L128.141 12.0121C127.933 11.9481 127.727 11.8681 127.525 11.7725L127.475 11.8752L127.58 11.9244C127.656 11.7643 127.782 11.4738 127.96 11.0465L127.99 10.9755L127.935 10.9214C127.836 10.8226 127.701 10.7703 127.557 10.7717C127.344 10.768 127.157 10.8695 127.054 11.0492L127.053 11.0501L126.855 11.4015V11.401C126.634 11.7854 126.417 12.0366 126.219 12.1564H126.221C126.022 12.278 125.742 12.3451 125.377 12.3451H125.329L125.19 12.4827L125.155 12.5163V13.3137V13.3611L125.296 13.4992L125.329 13.5327H125.377C126.037 13.5327 126.536 13.3754 126.849 13.0338L126.85 13.0334L127.067 12.7866L126.98 12.7116L126.924 12.8117C127.319 13.0284 127.842 13.2005 128.493 13.3333C129.143 13.4665 129.78 13.5327 130.399 13.5327C130.95 13.5327 131.501 13.4617 132.054 13.3199C132.605 13.1787 133.076 12.9838 133.465 12.7334L133.403 12.6373L133.32 12.717C133.559 12.9637 133.865 13.1608 134.233 13.3091C134.6 13.4575 134.973 13.5327 135.348 13.5327H135.393L135.426 13.5014L135.348 13.4183" fill="black"/>
<path d="M135.411 13.4185L135.305 13.3139V12.5643L135.411 12.4597C136.654 12.4597 137.631 12.3528 138.341 12.1401L139.046 11.9C139.526 11.7199 139.951 11.597 140.323 11.5312C139.992 11.3677 139.666 11.159 139.343 10.9046C139 10.6382 138.724 10.4527 138.511 10.3485C138.298 10.2435 138.08 10.1916 137.857 10.1916C137.453 10.1916 137.089 10.294 136.767 10.4992L136.469 10.6833C136.346 10.5604 136.285 10.3968 136.285 10.1916C136.285 9.87611 136.424 9.6222 136.706 9.4295C136.986 9.23692 137.356 9.1408 137.814 9.1408C138.082 9.1408 138.353 9.19847 138.628 9.3129C138.902 9.42733 139.222 9.61591 139.585 9.87829C140.026 10.2014 140.402 10.4446 140.712 10.6069C141.021 10.7682 141.336 10.884 141.653 10.9538C141.972 11.0235 142.434 11.0584 143.04 11.0584L142.557 11.9863C142.293 11.9532 142.057 11.9309 141.845 11.9188L141.802 11.9125L141.543 11.9188C141.25 11.9188 140.968 11.9617 140.703 12.0475C140.437 12.1338 140.023 12.3206 139.461 12.6072C138.83 12.9308 138.259 13.1467 137.749 13.2553C137.238 13.3639 136.459 13.4185 135.411 13.4185" fill="black"/>
<path d="M135.411 13.4183L135.493 13.3369L135.42 13.2662V12.6115L135.493 12.5404L135.411 12.4595V12.5739C136.661 12.5735 137.647 12.467 138.374 12.2494L138.376 12.2489L139.083 12.0084L139.086 12.0075L139.087 12.0072C139.562 11.8283 139.98 11.7076 140.342 11.6442L140.687 11.5833L140.375 11.4287C140.051 11.2691 139.731 11.0644 139.415 10.8151L139.414 10.8146C139.068 10.545 138.787 10.3564 138.562 10.2455V10.246C138.335 10.1338 138.097 10.077 137.856 10.077C137.433 10.0765 137.045 10.1852 136.705 10.4024L136.767 10.499L136.706 10.4015L136.408 10.5862L136.469 10.6831L136.551 10.6022C136.451 10.5021 136.401 10.3752 136.4 10.1914C136.403 9.91028 136.516 9.70202 136.771 9.52362V9.52328C137.027 9.34752 137.371 9.25506 137.814 9.25506C138.065 9.25506 138.321 9.30873 138.583 9.41823C138.846 9.52728 139.158 9.71186 139.518 9.97069L139.517 9.97023C139.961 10.2957 140.341 10.5415 140.658 10.7077C140.976 10.8735 141.3 10.9929 141.629 11.0653C141.961 11.1382 142.429 11.1722 143.04 11.1726V11.0582L142.938 11.0055L142.456 11.9334L142.557 11.9861L142.572 11.8726C142.306 11.8395 142.066 11.8168 141.852 11.8042L141.845 11.9186L141.862 11.8051L141.818 11.7992L141.809 11.7979L141.539 11.8042L141.543 11.9186V11.8042C141.238 11.8042 140.945 11.8489 140.667 11.9387C140.388 12.029 139.973 12.2173 139.408 12.505C138.783 12.8251 138.221 13.0374 137.725 13.1429C137.229 13.2488 136.456 13.3039 135.411 13.3039V13.4183L135.493 13.3369L135.411 13.4183V13.5327C136.464 13.5323 137.248 13.4791 137.773 13.3668C138.296 13.2556 138.876 13.0352 139.514 12.7084C140.073 12.4232 140.484 12.2382 140.739 12.1564C140.993 12.0742 141.26 12.033 141.543 12.033H141.544L141.795 12.0267L141.829 12.0317L141.833 12.0326H141.838C142.046 12.0447 142.28 12.067 142.543 12.0996L142.623 12.1095L143.143 11.1105L143.231 10.9438H143.04C142.438 10.9438 141.981 10.9084 141.679 10.8418C141.372 10.7743 141.068 10.6626 140.765 10.5053C140.465 10.3475 140.092 10.1074 139.654 9.78601L139.653 9.78566C139.285 9.52007 138.96 9.32704 138.673 9.20723C138.386 9.08742 138.099 9.0262 137.814 9.0262C137.34 9.0262 136.946 9.12541 136.64 9.33505C136.333 9.54205 136.167 9.8415 136.17 10.1914C136.168 10.4181 136.24 10.6184 136.388 10.764L136.453 10.8284L136.828 10.596L136.829 10.5947V10.5951C137.132 10.402 137.473 10.3063 137.856 10.3059C138.062 10.3059 138.261 10.3532 138.459 10.4507V10.4512C138.66 10.5486 138.933 10.7305 139.272 10.9942L139.271 10.9938C139.599 11.2526 139.932 11.4658 140.271 11.6339L140.323 11.531L140.302 11.4184C139.921 11.4859 139.489 11.6107 139.005 11.793L139.046 11.8998L139.008 11.7917L138.304 12.0317L138.341 12.1399L138.307 12.0304C137.614 12.2382 136.647 12.3451 135.411 12.3451H135.364L135.224 12.4827L135.19 12.5163V13.3137V13.3611L135.33 13.4992L135.364 13.5327H135.411V13.4183" fill="black"/>
<path d="M144.648 9.22662V10.0133C144.648 10.8246 144.619 11.9251 144.561 13.3139L143.979 13.4185C143.925 10.4769 143.809 8.03451 143.632 6.09233L143.626 5.93236C143.626 5.66597 143.693 5.45405 143.827 5.29671C143.96 5.13846 144.173 5.03124 144.462 4.97357L144.499 5.12107C144.512 5.16615 144.65 5.61494 144.914 6.46742L144.573 6.75613L144.578 6.81734C144.625 7.71846 144.648 8.5222 144.648 9.22662" fill="black"/>
<path d="M144.648 9.22657H144.532V10.0133C144.532 10.8218 144.503 11.921 144.446 13.3092L144.561 13.3138L144.54 13.2011L143.958 13.3057L143.979 13.4184L144.094 13.4161C144.04 10.4727 143.925 8.02817 143.747 6.08198L143.632 6.09228L143.747 6.08827L143.741 5.9283L143.626 5.9323H143.741C143.742 5.68377 143.802 5.50274 143.914 5.37046H143.915C144.026 5.23853 144.211 5.14024 144.484 5.08565L144.462 4.97351L144.35 5.00121L144.387 5.1487V5.15008V5.15099C144.402 5.20328 144.539 5.64715 144.804 6.50078L144.914 6.46737L144.839 6.38018L144.499 6.66888L144.453 6.70733L144.464 6.82805L144.578 6.81729L144.463 6.82313C144.509 7.72287 144.532 8.52432 144.532 9.22657H144.648H144.763C144.763 8.5194 144.74 7.71441 144.694 6.81146V6.80928V6.80482L144.989 6.55399L145.047 6.50536L145.025 6.43338C144.761 5.58273 144.621 5.12948 144.61 5.09103L144.499 5.12101L144.611 5.09332L144.574 4.94582L144.547 4.83986L144.439 4.86126C144.135 4.92214 143.896 5.03782 143.738 5.22297H143.739C143.583 5.40525 143.511 5.64795 143.511 5.9323V5.93402L143.516 6.09628V6.09948V6.10257C143.694 8.04075 143.809 10.4804 143.864 13.4201L143.866 13.5547L144.582 13.4264L144.672 13.4098L144.676 13.3187C144.733 11.9286 144.763 10.8272 144.763 10.0133V9.22657H144.648" fill="black"/>
</g>
<defs>
<clipPath id="clip0_73_16058">
<rect width="156" height="46" fill="white"/>
</clipPath>
<clipPath id="clip1_73_16058">
<rect width="156" height="46" fill="white" transform="translate(0.0518799)"/>
</clipPath>
</defs>
</svg>
