<svg width="120" height="72" viewBox="0 0 120 72" fill="none" xmlns="http://www.w3.org/2000/svg">
<path d="M83.7169 49.2842V35.8052C83.7169 23.78 73.9685 14.0331 61.9433 14.0331H22.813C10.7879 14.0331 1.04095 23.7816 1.04095 35.8052C1.04095 47.8304 10.7894 57.5788 22.813 57.5788H81.1864C81.2374 57.5803 81.2885 57.5788 81.338 57.5803C83.1808 57.6194 85.025 57.5878 86.8693 57.5218C86.9699 57.5188 87.0705 57.5158 87.1697 57.5113L83.7169 49.2842Z" fill="#3F4AAA"/>
<path d="M90.2454 28.4042C90.2454 27.5617 90.5278 26.8513 91.094 26.2731C91.6601 25.6964 92.3645 25.408 93.2085 25.408C94.0511 25.408 94.7614 25.6964 95.3396 26.2731C95.9163 26.8513 96.2047 27.5617 96.2047 28.4042C96.2047 29.2482 95.9163 29.9526 95.3396 30.5188C94.7629 31.085 94.0526 31.3673 93.2085 31.3673C92.3645 31.3673 91.6601 31.085 91.094 30.5188C90.5278 29.9526 90.2454 29.2482 90.2454 28.4042Z" fill="#3F4AAA"/>
<path d="M100.109 36.7949C100.109 35.5108 100.356 34.3694 100.85 33.3692C101.344 32.369 102.021 31.5355 102.886 30.8702C103.75 30.2034 104.75 29.6972 105.886 29.3518C107.021 29.0064 108.243 28.8337 109.552 28.8337C110.836 28.8337 112.051 29.0064 113.199 29.3518C114.347 29.6972 115.347 30.2034 116.199 30.8702C117.05 31.537 117.723 32.3705 118.217 33.3692C118.711 34.3694 118.957 35.5108 118.957 36.7949V48.2374H115.931C114.309 48.2374 112.995 46.9233 112.995 45.3013V38.1646C112.995 36.8565 112.699 35.8878 112.106 35.257C111.514 34.6278 110.661 34.3124 109.552 34.3124C107.231 34.3124 106.07 35.5964 106.07 38.1631V48.2359H103.068C101.433 48.2359 100.108 46.9113 100.108 45.2758V36.7949H100.109Z" fill="#3F4AAA"/>
<path d="M96.1281 48.2374H93.2251C91.5851 48.2374 90.2545 46.9068 90.2545 45.2668V35.9344C90.2545 34.2944 91.5851 32.9637 93.2251 32.9637C94.8651 32.9637 96.1957 34.2944 96.1957 35.9344V48.1698C96.1957 48.2074 96.1657 48.2374 96.1281 48.2374Z" fill="#3F4AAA"/>
<path d="M39.0764 40.3798C40.4911 40.1095 41.61 39.722 42.4345 39.2159C43.259 38.7113 43.8297 38.097 44.1496 37.3716C44.4695 36.6462 44.6302 35.8277 44.6302 34.9176C44.6302 34.0811 44.438 33.2686 44.058 32.4816C43.6765 31.6932 43.1223 30.9918 42.3985 30.3776C41.6701 29.7633 40.7795 29.2767 39.7207 28.9193C38.6649 28.5619 37.4709 28.3846 36.1418 28.3846C34.7151 28.3846 33.386 28.6249 32.156 29.104C30.926 29.5831 29.8551 30.2529 28.945 31.1135C28.0364 31.977 27.3215 33.0208 26.8064 34.2508C26.2883 35.4823 26.03 36.8355 26.03 38.3118C26.03 39.8857 26.2883 41.2899 26.8064 42.5184C27.323 43.7484 28.0304 44.7862 28.927 45.6347C29.8266 46.4832 30.8764 47.1305 32.0824 47.5721C33.2883 48.0151 34.5799 48.2374 35.9571 48.2374C37.0654 48.2374 38.0792 48.1563 39.0028 47.9971C39.9234 47.8364 40.7299 47.6457 41.4193 47.4249C42.1071 47.2026 42.6793 46.9819 43.1344 46.7611C43.5879 46.5388 43.9153 46.3661 44.1121 46.243L42.3008 42.6205C42.1672 42.3532 41.8458 42.2406 41.574 42.3652C41.571 42.3667 41.568 42.3682 41.5664 42.3682C41.2946 42.4914 40.9492 42.6145 40.5317 42.7377C40.1127 42.8623 39.6231 42.978 39.0554 43.0891C38.4892 43.2002 37.8855 43.2558 37.2472 43.2558C36.4106 43.2558 35.6973 43.1807 35.1056 43.0335C34.5153 42.8864 34.0287 42.6881 33.6473 42.4433C33.2658 42.197 32.9714 41.9327 32.7627 41.6488C32.5524 41.3665 32.4233 41.0781 32.3752 40.7823H33.6653C35.861 40.7853 37.6602 40.6501 39.0764 40.3798ZM32.0824 36.9466C32.1064 36.454 32.2055 35.9689 32.3782 35.4883C32.5494 35.0107 32.8017 34.5857 33.1336 34.2163C33.4656 33.8468 33.8771 33.5464 34.3697 33.3107C34.8623 33.0794 35.4405 32.9622 36.1058 32.9622C37.0384 32.9622 37.7413 33.1515 38.2083 33.5329C38.6754 33.9159 38.9097 34.3634 38.9097 34.8801C38.9097 35.1279 38.8586 35.3742 38.7625 35.6175C38.6634 35.8653 38.3916 36.0876 37.95 36.2828C37.507 36.481 36.8297 36.6402 35.9195 36.7619C35.0094 36.8865 33.7314 36.9466 32.0824 36.9466Z" fill="white"/>
<path d="M70.1479 40.3798C71.5626 40.1095 72.6815 39.722 73.506 39.2159C74.329 38.7113 74.9012 38.097 75.2211 37.3716C75.5395 36.6462 75.7002 35.8277 75.7002 34.9176C75.7002 34.0811 75.5079 33.2686 75.128 32.4816C74.7465 31.6932 74.1923 30.9918 73.4669 30.3776C72.7415 29.7633 71.8495 29.2767 70.7922 28.9193C69.7364 28.5619 68.5424 28.3846 67.2133 28.3846C65.7865 28.3846 64.4574 28.6249 63.2274 29.104C61.9959 29.5831 60.9266 30.2529 60.0165 31.1135C59.1079 31.977 58.393 33.0208 57.8779 34.2508C57.3598 35.4823 57.1014 36.8355 57.1014 38.3118C57.1014 39.8857 57.3598 41.2899 57.8779 42.5184C58.3945 43.7484 59.1019 44.7862 59.9985 45.6347C60.8951 46.4832 61.9479 47.1305 63.1538 47.5721C64.3598 48.0151 65.6514 48.2374 67.0286 48.2374C68.1354 48.2374 69.1522 48.1563 70.0728 47.9971C70.9964 47.8364 71.8029 47.6457 72.4892 47.4249C73.1786 47.2026 73.7508 46.9819 74.2073 46.7611C74.6609 46.5388 74.9868 46.3661 75.185 46.243L73.3738 42.6205C73.2402 42.3532 72.9188 42.2406 72.6469 42.3652C72.6439 42.3667 72.6409 42.3682 72.6394 42.3682C72.3676 42.4914 72.0222 42.6145 71.6047 42.7377C71.1856 42.8623 70.693 42.978 70.1284 43.0891C69.5622 43.2002 68.9584 43.2558 68.3201 43.2558C67.4836 43.2558 66.7703 43.1807 66.1785 43.0335C65.5883 42.8864 65.1017 42.6881 64.7202 42.4433C64.3388 42.197 64.0429 41.9327 63.8357 41.6488C63.6254 41.3665 63.4962 41.0781 63.4482 40.7823H64.7383C66.9309 40.7853 68.7331 40.6501 70.1479 40.3798ZM63.1553 36.9466C63.1794 36.454 63.2785 35.9689 63.4512 35.4883C63.6224 35.0107 63.8747 34.5857 64.2066 34.2163C64.5385 33.8468 64.95 33.5464 65.4426 33.3107C65.9352 33.0794 66.5134 32.9622 67.1787 32.9622C68.1129 32.9622 68.8142 33.1515 69.2813 33.5329C69.7469 33.9159 69.9827 34.3634 69.9827 34.8801C69.9827 35.1279 69.9316 35.3742 69.834 35.6175C69.7379 35.8653 69.4645 36.0876 69.023 36.2828C68.58 36.481 67.9026 36.6402 66.9925 36.7619C66.0824 36.8865 64.8043 36.9466 63.1553 36.9466Z" fill="white"/>
<path d="M53.6998 48.2449H50.7967C49.1567 48.2449 47.8261 46.9143 47.8261 45.2743V26.4203C47.8261 24.7803 49.1567 23.4496 50.7967 23.4496C52.4367 23.4496 53.7674 24.7803 53.7674 26.4203V48.1774C53.7674 48.2149 53.7373 48.2449 53.6998 48.2449Z" fill="white"/>
<path d="M11.9127 24.0339C11.6048 24.2802 11.3885 24.6196 11.2699 25.0566C11.3961 24.6616 11.6198 24.3117 11.9127 24.0339Z" fill="white"/>
<path d="M11.1588 25.7865V25.9877C11.1588 25.6393 11.1979 25.3299 11.2715 25.0566C11.1979 25.2864 11.1588 25.5312 11.1588 25.7865Z" fill="white"/>
<path d="M21.7858 42.5395C21.2196 42.7467 20.5918 42.8518 19.9055 42.8518C19.5601 42.8518 19.2221 42.8218 18.8887 42.7617C18.5568 42.6987 18.2625 42.571 18.0042 42.3728C17.7458 42.1775 17.5311 41.9117 17.3584 41.5798C17.1857 41.2479 17.1 40.8003 17.1 40.2326V34.4401H23.7667V32.3225C23.7667 30.4061 22.2138 28.8532 20.2975 28.8532H17.1015V25.8556C17.1015 25.8556 17.1 25.8556 17.1 25.8541V25.7835C17.1 24.977 16.7051 24.2636 16.0983 23.8251C15.7364 23.5638 15.3008 23.4226 14.8563 23.3881C14.6626 23.373 14.4643 23.3655 14.2586 23.3655C13.3229 23.3655 12.5735 23.5638 12.0073 23.9558C11.9743 23.9783 11.9442 24.0068 11.9127 24.0309C11.6199 24.3087 11.3961 24.6586 11.2699 25.0536C11.1948 25.3269 11.1573 25.6378 11.1573 25.9847V41.5197C11.1573 43.5622 11.8106 45.1932 13.1127 46.4112C13.8396 47.09 14.7226 47.5781 15.7619 47.8785C16.5879 48.1173 17.5131 48.2374 18.5388 48.2374C19.3513 48.2374 20.1277 48.1563 20.8651 47.9971C21.6025 47.8364 22.2664 47.6457 22.8566 47.4249C23.4468 47.2027 23.9514 46.9699 24.3704 46.7236C24.7879 46.4803 25.1078 46.258 25.3301 46.0598L21.7858 42.5395Z" fill="white"/>
</svg>
