<svg width="50" height="80" viewBox="0 0 50 80" fill="none" xmlns="http://www.w3.org/2000/svg">
<g id="Group">
<path id="Vector" d="M13.5419 45.75C9.59703 47.6177 4.6875 49.942 4.6875 58.2016V67.6978C1.99484 68.3934 0 70.8431 0 73.75V78.4375C0 79.3003 0.699531 80 1.5625 80H17.9688C18.8317 80 19.5312 79.3003 19.5312 78.4375C19.5312 77.5747 18.8317 76.875 17.9688 76.875H3.125V73.75C3.125 72.0269 4.52688 70.625 6.25 70.625H43.75C45.4731 70.625 46.875 72.0269 46.875 73.75V76.875H32.0312C31.1683 76.875 30.4688 77.5747 30.4688 78.4375C30.4688 79.3003 31.1683 80 32.0312 80H48.4375C49.3005 80 50 79.3003 50 78.4375V73.75C50 70.8431 48.0052 68.3934 45.3125 67.6978V58.2016C45.3125 49.9331 40.4013 47.6106 36.455 45.7442C33.0347 44.1269 31.25 43.1367 31.25 40C31.25 36.8617 33.0358 35.8702 36.4581 34.25C40.403 32.3823 45.3125 30.058 45.3125 21.7984V12.3022C48.0052 11.6066 50 9.15687 50 6.25V1.5625C50 0.699688 49.3005 0 48.4375 0H1.5625C0.699531 0 0 0.699688 0 1.5625V6.25C0 9.15687 1.99484 11.6066 4.6875 12.3022V21.7984C4.6875 30.0669 9.59875 32.3894 13.545 34.2558C16.9653 35.8731 18.75 36.8633 18.75 40C18.75 43.1383 16.9642 44.1298 13.5419 45.75ZM10.9375 67.5L25 56.9531L39.0625 67.5H10.9375ZM3.125 6.25V3.125H46.875V6.25C46.875 7.97312 45.4731 9.375 43.75 9.375H6.25C4.52688 9.375 3.125 7.97312 3.125 6.25ZM14.8809 31.4306C11.0881 29.637 7.8125 28.088 7.8125 21.7984V12.5H42.1875V21.7984C42.1875 28.08 38.9128 29.6303 35.1208 31.4255C31.8417 32.978 28.125 34.7375 28.125 40C28.125 45.2619 31.8408 47.0191 35.1191 48.5694C38.9119 50.363 42.1875 51.912 42.1875 58.2016V65.9375L25.9375 53.75C25.3819 53.3334 24.6181 53.3334 24.0625 53.75L7.8125 65.9375V58.2016C7.8125 51.92 11.0872 50.3697 14.8792 48.5745C18.1583 47.022 21.875 45.2625 21.875 40C21.875 34.7381 18.1592 32.9809 14.8809 31.4306Z" fill="black"/>
<path id="Vector_2" d="M25 80C25.8629 80 26.5625 79.3004 26.5625 78.4375C26.5625 77.5746 25.8629 76.875 25 76.875C24.1371 76.875 23.4375 77.5746 23.4375 78.4375C23.4375 79.3004 24.1371 80 25 80Z" fill="black"/>
</g>
</svg>
