<svg width="80" height="60" viewBox="0 0 80 60" fill="none" xmlns="http://www.w3.org/2000/svg">
<g id="Group">
<path id="Vector" d="M49.375 12.5H58.75C59.613 12.5 60.3125 11.8003 60.3125 10.9375C60.3125 10.0747 59.613 9.375 58.75 9.375H49.375C48.512 9.375 47.8125 10.0747 47.8125 10.9375C47.8125 11.8003 48.512 12.5 49.375 12.5Z" fill="black"/>
<path id="Vector_2" d="M21.25 21.875H58.75C59.613 21.875 60.3125 21.1753 60.3125 20.3125C60.3125 19.4497 59.613 18.75 58.75 18.75H21.25C20.387 18.75 19.6875 19.4497 19.6875 20.3125C19.6875 21.1753 20.387 21.875 21.25 21.875Z" fill="black"/>
<path id="Vector_3" d="M21.25 31.25H58.75C59.613 31.25 60.3125 30.5503 60.3125 29.6875C60.3125 28.8247 59.613 28.125 58.75 28.125H21.25C20.387 28.125 19.6875 28.8247 19.6875 29.6875C19.6875 30.5503 20.387 31.25 21.25 31.25Z" fill="black"/>
<path id="Vector_4" d="M40 59.375C40.8629 59.375 41.5625 58.6754 41.5625 57.8125C41.5625 56.9496 40.8629 56.25 40 56.25C39.1371 56.25 38.4375 56.9496 38.4375 57.8125C38.4375 58.6754 39.1371 59.375 40 59.375Z" fill="black"/>
<path id="Vector_5" d="M78.4375 46.875H75.3125V1.5625C75.3125 0.699688 74.613 0 73.75 0H6.25C5.38703 0 4.6875 0.699688 4.6875 1.5625V46.875H1.5625C0.699531 46.875 0 47.5747 0 48.4375V57.8125C0 58.6753 0.699531 59.375 1.5625 59.375H32.9688C33.8317 59.375 34.5312 58.6753 34.5312 57.8125C34.5312 56.9497 33.8317 56.25 32.9688 56.25H3.125V50H76.875V56.25H47.0312C46.1683 56.25 45.4688 56.9497 45.4688 57.8125C45.4688 58.6753 46.1683 59.375 47.0312 59.375H78.4375C79.3005 59.375 80 58.6753 80 57.8125V48.4375C80 47.5747 79.3005 46.875 78.4375 46.875ZM7.8125 3.125H72.1875V46.875H32.1875V39.0625C32.1875 38.1997 31.488 37.5 30.625 37.5H16.5625C15.6995 37.5 15 38.1997 15 39.0625V46.875H7.8125V3.125ZM29.0625 46.875H18.125V40.625H29.0625V46.875Z" fill="black"/>
</g>
</svg>
