<svg width="80" height="80" viewBox="0 0 80 80" fill="none" xmlns="http://www.w3.org/2000/svg">
<g id="Group">
<path id="Vector" d="M47.9775 19.6139L44.6875 26.1939L41.3975 19.614C41.1328 19.0845 40.5919 18.7501 40 18.7501C39.4081 18.7501 38.8672 19.0845 38.6025 19.6139L35.3125 26.1939L32.0225 19.614C31.6366 18.842 30.6977 18.5292 29.9263 18.9151C29.1544 19.301 28.8416 20.2396 29.2274 21.0114L33.8381 30.2331C34.2206 31.7632 37.1661 43.5434 38.4841 48.8165C38.6578 49.5121 39.2828 50.0001 39.9999 50.0001C40.717 50.0001 41.342 49.512 41.5158 48.8164C42.7355 43.9337 45.7722 31.7899 46.1616 30.2331L50.7724 21.0114C51.1583 20.2396 50.8455 19.301 50.0734 18.9151C49.3014 18.5292 48.3633 18.8418 47.9775 19.6139ZM39.9999 41.9943C38.7766 37.1014 37.4039 31.6106 36.9684 29.8695L40 23.8064L43.0314 29.8693C42.5938 31.6198 41.2091 37.1571 39.9999 41.9943Z" fill="black"/>
<path id="Vector_2" d="M35.3125 80H44.6875C45.5503 80 46.25 79.3003 46.25 78.4375V69.9584C48.9427 69.2628 50.9375 66.8131 50.9375 63.9062C50.9375 62.3159 50.9375 57.9656 50.9375 56.375C50.9375 51.6211 53.1366 46.9353 57.1295 43.1809C62.2048 38.4109 65 31.9542 65 25C65 21.028 64.0447 17.0741 62.2373 13.5659C61.8423 12.7987 60.8994 12.4972 60.1328 12.8923C59.3656 13.2875 59.0641 14.2298 59.4592 14.9969C61.0623 18.1086 61.875 21.4741 61.875 25C61.875 31.0827 59.4297 36.7306 54.9891 40.9039C50.3612 45.2555 47.8125 50.7498 47.8125 56.375V57.1875H32.1359C31.7417 50.9472 29.0237 44.7602 24.8416 40.7433C20.5103 36.5845 18.125 30.9933 18.125 25C18.125 12.9381 27.9381 3.125 40 3.125C43.6194 3.125 47.2047 4.02688 50.3681 5.73328C51.1277 6.1425 52.0755 5.85969 52.4852 5.09969C52.8947 4.34031 52.6113 3.39234 51.8516 2.98266C48.2339 1.03156 44.1356 0 40 0C25.7586 0 15 11.4783 15 25C15 31.8522 17.7264 38.2438 22.677 42.9972C26.5561 46.723 29.0625 52.9064 29.0625 58.75V63.9062C29.0625 66.8131 31.0573 69.2628 33.75 69.9584V78.4375C33.75 79.3003 34.4497 80 35.3125 80ZM43.125 76.875H36.875V70.1562H43.125V76.875ZM32.1875 63.9062V60.3125H47.8125V63.9062C47.8125 65.6294 46.4106 67.0312 44.6875 67.0312H35.3125C33.5894 67.0312 32.1875 65.6294 32.1875 63.9062Z" fill="black"/>
<path id="Vector_3" d="M1.5625 26.5625H7.1875C8.05031 26.5625 8.75 25.8628 8.75 25C8.75 24.1372 8.05031 23.4375 7.1875 23.4375H1.5625C0.699688 23.4375 0 24.1372 0 25C0 25.8628 0.699688 26.5625 1.5625 26.5625Z" fill="black"/>
<path id="Vector_4" d="M80 25C80 24.1372 79.3003 23.4375 78.4375 23.4375H72.8125C71.9497 23.4375 71.25 24.1372 71.25 25C71.25 25.8628 71.9497 26.5625 72.8125 26.5625H78.4375C79.3003 26.5625 80 25.8628 80 25Z" fill="black"/>
<path id="Vector_5" d="M10.8016 40.0531L6.74234 42.3968C5.995 42.8284 5.7389 43.784 6.17046 44.5312C6.60343 45.2809 7.55968 45.5334 8.30484 45.1031L12.3641 42.7593C13.1114 42.3277 13.3675 41.3721 12.9359 40.6249C12.5044 39.8777 11.5489 39.6216 10.8016 40.0531Z" fill="black"/>
<path id="Vector_6" d="M69.1984 9.94701L73.2576 7.60326C74.005 7.1717 74.2611 6.21607 73.8295 5.46889C73.3981 4.72185 72.4423 4.4656 71.6951 4.89701L67.6359 7.24076C66.8886 7.67232 66.6325 8.62795 67.064 9.37514C67.497 10.1248 68.4532 10.3773 69.1984 9.94701Z" fill="black"/>
<path id="Vector_7" d="M12.3641 7.24062L8.30484 4.89687C7.55734 4.46531 6.60203 4.72156 6.17046 5.46875C5.7389 6.21593 5.995 7.17156 6.74234 7.60312L10.8016 9.94687C11.5475 10.3775 12.5034 10.1239 12.9359 9.375C13.3675 8.62781 13.1114 7.67218 12.3641 7.24062Z" fill="black"/>
<path id="Vector_8" d="M67.6359 42.7593L71.6951 45.1031C72.4411 45.5337 73.397 45.2801 73.8295 44.5312C74.2611 43.784 74.005 42.8284 73.2576 42.3968L69.1984 40.0531C68.4509 39.6216 67.4956 39.8777 67.064 40.6249C66.6325 41.3721 66.8886 42.3277 67.6359 42.7593Z" fill="black"/>
<path id="Vector_9" d="M56.7188 10.1562C57.5817 10.1562 58.2812 9.45669 58.2812 8.59375C58.2812 7.73081 57.5817 7.03125 56.7188 7.03125C55.8558 7.03125 55.1562 7.73081 55.1562 8.59375C55.1562 9.45669 55.8558 10.1562 56.7188 10.1562Z" fill="black"/>
</g>
</svg>
