<svg width="69" height="80" viewBox="0 0 69 80" fill="none" xmlns="http://www.w3.org/2000/svg">
<g id="Group">
<path id="Vector" d="M39.0033 38.4375C38.1405 38.4375 37.4408 39.1372 37.4408 40C37.4408 41.7231 36.0389 43.125 34.3158 43.125C32.5927 43.125 31.1908 41.7231 31.1908 40C31.1908 39.1372 30.4911 38.4375 29.6283 38.4375C28.7655 38.4375 28.0658 39.1372 28.0658 40C28.0658 43.4462 30.8695 46.25 34.3158 46.25C37.762 46.25 40.5658 43.4462 40.5658 40C40.5658 39.1372 39.8661 38.4375 39.0033 38.4375Z" fill="black"/>
<path id="Vector_2" d="M9.31577 31.7313V62.072C4.05998 65.7041 0.520454 71.838 0.00498476 78.3136C-0.0670465 79.222 0.650766 80 1.56264 80H46.0345C46.8973 80 47.597 79.3003 47.597 78.4375C47.597 77.5747 46.8973 76.875 46.0345 76.875H36.6169L43.1058 60.523L51.545 62.1059C58.6 63.4302 64.0536 69.7652 65.297 76.8748H60.097C59.2342 76.8748 58.5345 77.5745 58.5345 78.4373C58.5345 79.3002 59.2342 79.9998 60.097 79.9998H67.0689C67.9798 79.9998 68.6986 79.2223 68.6265 78.3134C68.1111 71.8378 64.5717 65.7039 59.3158 62.0719V31.7313C59.3158 25.0916 55.76 18.9342 49.9408 15.6291V3.125H56.1908V16.5625C56.1908 17.4253 56.8905 18.125 57.7533 18.125C58.6161 18.125 59.3158 17.4253 59.3158 16.5625V3.125H62.4408C63.3036 3.125 64.0033 2.42531 64.0033 1.5625C64.0033 0.699688 63.3036 0 62.4408 0H10.8783C10.0155 0 9.31577 0.699688 9.31577 1.5625C9.31577 2.42531 10.0155 3.125 10.8783 3.125H18.6908V15.6291C12.8711 18.9344 9.31577 25.092 9.31577 31.7313ZM3.33467 76.875C4.57842 69.7628 10.0353 63.4295 17.0867 62.1061L25.5259 60.5231L32.0147 76.875H3.33467ZM29.4494 54.8527C31.0112 55.3659 32.6347 55.625 34.3005 55.625C35.9883 55.625 37.5944 55.3664 39.172 54.8228L40.4656 58.7033L34.3158 74.2014L28.1658 58.7033L29.4494 54.8527ZM34.472 52.4989C27.4061 52.5908 21.8158 46.8433 21.8158 40V32.1875H23.8345C27.2764 32.1875 30.6436 31.2309 33.5717 29.4211C35.3523 28.3205 36.9231 26.9339 38.2273 25.3234C39.659 28.8788 42.907 31.5147 46.8158 32.0762V39.2047C46.8158 46.3166 41.2766 52.4105 34.472 52.4989ZM56.1908 31.7313V60.308C54.8797 59.7233 53.5184 59.2969 52.1211 59.0348L43.3198 57.3839L42.0215 53.4889C46.8725 50.5788 49.9408 45.1198 49.9408 39.2047V30.625C49.9408 29.7622 49.2411 29.0625 48.3783 29.0625C44.0705 29.0625 40.5658 25.5578 40.5658 21.25C40.5658 20.5253 40.0676 19.8958 39.3623 19.7294C38.6572 19.5631 37.93 19.903 37.6059 20.5513C34.9801 25.8011 29.7031 29.0625 23.8345 29.0625H20.2533C19.3905 29.0625 18.6908 29.7622 18.6908 30.625V40C18.6908 45.6295 21.7467 50.8142 26.5809 53.5761L25.3117 57.3838L16.5105 59.0347C15.1131 59.2967 13.7519 59.7231 12.4408 60.3078V31.7313C12.4408 25.9819 15.5723 20.802 20.6358 18.125H47.9956C53.0592 20.8022 56.1908 25.9819 56.1908 31.7313ZM46.8158 3.125V15H21.8158V3.125H46.8158Z" fill="black"/>
<path id="Vector_3" d="M53.0658 80C53.9287 80 54.6283 79.3004 54.6283 78.4375C54.6283 77.5746 53.9287 76.875 53.0658 76.875C52.2029 76.875 51.5033 77.5746 51.5033 78.4375C51.5033 79.3004 52.2029 80 53.0658 80Z" fill="black"/>
</g>
</svg>
