<svg width="789" height="572" viewBox="0 0 789 572" fill="none" xmlns="http://www.w3.org/2000/svg">
<g opacity="0.05" clip-path="url(#clip0_73_1496)">
<path d="M1092.27 473.436V255.033C1092.27 115.055 979.033 1.63647 839.279 1.63647L254.75 1.63647C114.996 1.76235 1.75952 115.18 1.75952 255.159C1.75952 259.817 1.75952 333.079 2.13656 337.611C9.30022 471.17 119.646 570.112 254.75 570.112L1062.86 570.112C1063.49 570.112 1063.99 570.112 1064.62 570.112C1085.99 570.615 1107.48 570.112 1128.84 569.482C1129.97 569.482 1131.23 569.482 1132.36 569.482L1092.27 473.687V473.436Z" stroke="#F7F7F7" stroke-width="2.8" stroke-miterlimit="10"/>
<path d="M1073.54 466.512V255.285C1073.54 119.838 963.952 10.1963 828.722 10.1963L263.296 10.1963C128.066 10.1963 18.4747 119.964 18.4747 255.285C18.4747 259.691 18.4747 330.687 18.8517 334.967C25.764 464.246 132.465 559.79 263.296 559.79L1045.14 559.79C1045.77 559.79 1046.27 559.79 1046.9 559.79C1067.64 560.167 1088.37 559.79 1109.11 559.16C1110.24 559.16 1111.37 559.16 1112.5 559.16L1073.67 466.512H1073.54Z" stroke="#F7F7F7" stroke-width="2.7" stroke-miterlimit="10"/>
<path d="M1054.69 459.589V255.411C1054.69 124.621 948.745 18.5044 818.165 18.5044L271.716 18.5044C141.137 18.6303 35.1899 124.621 35.1899 255.537C35.1899 259.817 35.1899 328.296 35.567 332.576C42.2279 457.449 145.41 549.845 271.716 549.845L1027.17 549.845C1027.67 549.845 1028.3 549.845 1028.8 549.845C1048.78 550.223 1068.89 549.845 1088.88 549.216C1090.01 549.216 1091.01 549.216 1092.14 549.216L1054.69 459.715V459.589Z" stroke="#F7F7F7" stroke-width="2.6" stroke-miterlimit="10"/>
<path d="M1035.97 452.665V255.663C1035.97 129.405 933.789 27.0642 807.734 27.0642L280.262 27.0642C154.207 27.0642 52.0308 129.405 52.0308 255.663C52.0308 259.817 52.0308 325.904 52.4078 330.058C58.8174 450.525 158.48 539.775 280.388 539.775L1009.57 539.775C1010.08 539.775 1010.7 539.775 1011.21 539.775C1030.56 540.152 1049.92 539.775 1069.14 539.145C1070.15 539.145 1071.28 539.145 1072.29 539.145L1036.09 452.791L1035.97 452.665Z" stroke="#F7F7F7" stroke-width="2.5" stroke-miterlimit="10"/>
<path d="M1017.24 445.742L1017.24 255.789C1017.24 134.062 918.708 35.3723 797.177 35.3723L288.809 35.3723C167.278 35.3723 68.746 134.062 68.746 255.789C68.746 259.817 68.746 323.512 69.123 327.54C75.2812 443.728 171.299 529.704 288.809 529.704L991.727 529.704C992.229 529.704 992.732 529.704 993.235 529.704C1011.84 530.082 1030.44 529.704 1049.16 529.075C1050.17 529.075 1051.17 529.075 1052.18 529.075L1017.24 445.742Z" stroke="#F7F7F7" stroke-width="2.4" stroke-miterlimit="10"/>
<path d="M998.388 438.819L998.388 256.04C998.388 138.846 903.501 43.9321 786.62 43.9321L297.229 43.9321C180.223 43.9321 85.4612 138.972 85.4612 256.04C85.4612 259.943 85.4612 321.246 85.7125 325.023C91.6194 436.805 184.119 519.634 297.229 519.634L973.755 519.634C974.258 519.634 974.76 519.634 975.263 519.634C993.235 520.011 1011.08 519.634 1029.05 519.004C1030.06 519.004 1031.06 519.004 1031.94 519.004L998.388 438.819Z" stroke="#F7F7F7" stroke-width="2.3" stroke-miterlimit="10"/>
<path d="M979.662 431.895L979.662 256.166C979.662 143.503 888.545 52.2402 776.063 52.2402L305.775 52.2402C193.293 52.2402 102.176 143.503 102.176 256.166C102.176 259.817 102.176 318.855 102.428 322.505C108.209 430.007 196.938 509.563 305.649 509.563L955.909 509.563C956.411 509.563 956.914 509.563 957.291 509.563C974.509 509.941 991.727 509.563 1008.94 509.06C1009.82 509.06 1010.83 509.06 1011.71 509.06L979.41 432.021L979.662 431.895Z" stroke="#F7F7F7" stroke-width="2.3" stroke-miterlimit="10"/>
<path d="M960.936 424.846L960.936 256.292C960.936 148.287 873.464 60.6743 765.632 60.6743L314.321 60.6743C206.489 60.6743 119.017 148.287 119.017 256.292C119.017 259.817 119.017 316.463 119.269 319.988C124.799 423.084 210.008 499.493 314.321 499.493L938.188 499.493C938.691 499.493 939.068 499.493 939.57 499.493C956.16 499.871 972.624 499.493 989.213 498.989C990.093 498.989 990.973 498.989 991.853 498.989L960.936 425.098V424.846Z" stroke="#F7F7F7" stroke-width="2.2" stroke-miterlimit="10"/>
<path d="M942.084 417.923V256.418C942.084 152.945 858.382 68.9824 754.949 68.9824L322.742 68.9824C219.434 68.9824 135.607 152.819 135.607 256.418C135.607 259.817 135.607 314.071 135.858 317.344C141.137 416.16 222.702 489.297 322.616 489.297L920.216 489.297C920.593 489.297 921.096 489.297 921.473 489.297C937.308 489.674 953.144 489.297 968.979 488.793C969.859 488.793 970.739 488.793 971.618 488.793L941.958 418.048L942.084 417.923Z" stroke="#F7F7F7" stroke-width="2.1" stroke-miterlimit="10"/>
<path d="M923.358 410.999V256.67C923.358 157.728 843.301 77.5422 744.518 77.5422L331.288 77.5422C232.505 77.5422 152.448 157.728 152.448 256.67C152.448 259.943 152.448 311.68 152.699 314.952C157.726 409.363 235.772 479.226 331.288 479.226L902.621 479.226C902.998 479.226 903.501 479.226 903.878 479.226C918.959 479.604 934.166 479.226 949.373 478.723C950.253 478.723 951.007 478.723 951.887 478.723L923.484 410.999H923.358Z" stroke="#F7F7F7" stroke-width="2" stroke-miterlimit="10"/>
<path d="M904.632 404.076V256.796C904.632 162.386 828.219 85.9763 733.961 85.9763L339.708 85.9763C245.45 85.9763 169.163 162.512 169.163 256.796C169.163 259.943 169.163 309.288 169.414 312.435C174.19 402.565 248.591 469.156 339.708 469.156L884.649 469.156C885.026 469.156 885.403 469.156 885.78 469.156C900.233 469.408 914.686 469.156 929.139 468.652C929.893 468.652 930.773 468.652 931.527 468.652L904.506 404.076H904.632Z" stroke="#F7F7F7" stroke-width="1.9" stroke-miterlimit="10"/>
<path d="M885.906 397.152V257.047C885.906 167.169 813.264 94.4102 723.53 94.4102L348.38 94.4102C258.646 94.4102 186.004 167.169 186.004 257.047C186.004 259.943 186.004 307.022 186.255 309.917C190.78 395.642 261.662 459.085 348.38 459.085L867.054 459.085C867.431 459.085 867.808 459.085 868.185 459.085C881.884 459.337 895.709 459.085 909.408 458.708C910.162 458.708 910.916 458.708 911.67 458.708L885.906 397.278V397.152Z" stroke="#F7F7F7" stroke-width="1.8" stroke-miterlimit="10"/>
<path d="M867.054 390.229V257.173C867.054 171.953 798.057 102.844 712.973 102.844L356.8 102.844C271.716 102.844 202.719 171.953 202.719 257.173C202.719 259.943 202.719 304.63 202.97 307.4C207.243 388.718 274.607 449.015 356.926 449.015L849.333 449.015C849.711 449.015 850.088 449.015 850.465 449.015C863.535 449.267 876.606 449.015 889.676 448.637C890.43 448.637 891.059 448.637 891.813 448.637L867.431 390.355L867.054 390.229Z" stroke="#F7F7F7" stroke-width="1.7" stroke-miterlimit="10"/>
<path d="M848.328 383.305V257.425C848.328 176.736 782.975 111.278 702.416 111.278L365.347 111.278C284.787 111.278 219.434 176.736 219.434 257.425C219.434 260.069 219.434 302.364 219.686 305.008C223.833 382.047 287.426 439.07 365.347 439.07L831.361 439.07C831.738 439.07 831.99 439.07 832.367 439.07C844.683 439.322 857.125 439.07 869.442 438.693C870.07 438.693 870.824 438.693 871.453 438.693L848.328 383.431V383.305Z" stroke="#F7F7F7" stroke-width="1.6" stroke-miterlimit="10"/>
<path d="M829.602 376.256V257.425C829.602 181.268 768.02 119.586 691.984 119.586L373.893 119.586C297.857 119.586 236.275 181.268 236.275 257.425C236.275 259.943 236.275 299.847 236.526 302.239C240.422 374.872 300.497 428.748 374.018 428.748L813.766 428.748C814.144 428.748 814.395 428.748 814.772 428.748C826.46 429 838.022 428.748 849.71 428.371C850.339 428.371 850.967 428.371 851.596 428.371L829.728 376.256H829.602Z" stroke="#F7F7F7" stroke-width="1.5" stroke-miterlimit="10"/>
<path d="M810.75 369.332V257.677C810.75 186.051 752.813 128.02 681.302 128.02L382.313 128.02C310.802 128.02 252.865 186.051 252.865 257.677C252.865 260.068 252.865 297.581 252.99 299.847C256.635 368.2 313.065 418.803 382.188 418.803L795.543 418.803C795.795 418.803 796.172 418.803 796.423 418.803C807.357 419.055 818.291 418.803 829.351 418.426C829.979 418.426 830.607 418.426 831.11 418.426L810.625 369.458L810.75 369.332Z" stroke="#F7F7F7" stroke-width="1.4" stroke-miterlimit="10"/>
<path d="M792.024 362.409V257.803C792.024 190.709 737.731 136.454 670.87 136.454L390.859 136.454C323.873 136.454 269.705 190.834 269.705 257.803C269.705 260.069 269.705 295.063 269.831 297.329C273.224 361.276 326.135 408.733 390.859 408.733L777.948 408.733C778.2 408.733 778.577 408.733 778.828 408.733C789.134 408.985 799.313 408.733 809.619 408.356C810.122 408.356 810.75 408.356 811.253 408.356L792.024 362.535V362.409Z" stroke="#F7F7F7" stroke-width="1.3" stroke-miterlimit="10"/>
<path d="M773.298 355.486V258.055C773.298 195.618 722.775 144.888 660.313 144.888L399.405 144.888C337.069 144.888 286.421 195.492 286.421 258.055C286.421 260.069 286.421 292.798 286.546 294.812C289.688 354.479 338.954 398.537 399.28 398.537L760.102 398.537C760.353 398.537 760.605 398.537 760.856 398.537C770.408 398.789 779.959 398.537 789.511 398.285C790.013 398.285 790.516 398.285 791.019 398.285L773.047 355.486H773.298Z" stroke="#F7F7F7" stroke-width="1.2" stroke-miterlimit="10"/>
<path d="M754.446 348.563V258.181C754.446 200.276 707.568 153.322 649.756 153.322L407.826 153.322C350.014 153.322 303.136 200.276 303.136 258.181C303.136 260.069 303.136 290.406 303.262 292.294C306.152 347.556 351.899 388.467 407.826 388.467L742.256 388.467C742.507 388.467 742.758 388.467 743.01 388.467C751.933 388.593 760.73 388.467 769.653 388.215C770.156 388.215 770.659 388.215 771.036 388.215L754.446 348.563Z" stroke="#F7F7F7" stroke-width="1.2" stroke-miterlimit="10"/>
<path d="M735.72 341.639V258.432C735.72 205.059 692.487 161.756 639.199 161.756L416.372 161.756C363.084 161.756 319.851 205.059 319.851 258.432C319.851 260.195 319.851 288.14 319.977 289.902C322.742 340.884 364.718 378.522 416.246 378.522L724.409 378.522C724.661 378.522 724.912 378.522 725.038 378.522C733.207 378.648 741.376 378.522 749.545 378.27C750.048 378.27 750.425 378.27 750.927 378.27L735.595 341.765L735.72 341.639Z" stroke="#F7F7F7" stroke-width="1.1" stroke-miterlimit="10"/>
<path d="M716.994 334.715V258.558C716.994 209.716 677.531 170.19 628.768 170.19L424.918 170.19C376.155 170.19 336.692 209.716 336.692 258.558C336.692 260.194 336.692 285.748 336.818 287.259C339.331 333.834 377.789 368.325 424.918 368.325L706.689 368.325C706.94 368.325 707.066 368.325 707.317 368.325C714.732 368.451 722.273 368.325 729.688 368.074C730.065 368.074 730.442 368.074 730.944 368.074L716.994 334.715Z" stroke="#F7F7F7" stroke-miterlimit="10"/>
<path d="M698.143 327.666V258.684C698.143 214.374 662.324 178.624 618.211 178.624L433.339 178.624C389.1 178.624 353.407 214.5 353.407 258.684C353.407 260.194 353.407 283.356 353.407 284.741C355.669 326.911 390.608 358.255 433.339 358.255L688.842 358.255C688.968 358.255 689.219 358.255 689.345 358.255C696.132 358.381 702.918 358.255 709.705 358.003C710.082 358.003 710.459 358.003 710.836 358.003L698.143 327.792V327.666Z" stroke="#F7F7F7" stroke-width="0.9" stroke-miterlimit="10"/>
<path d="M679.416 320.743V258.81C679.416 219.157 647.243 186.932 607.654 186.932L441.885 186.932C402.296 186.932 370.122 219.157 370.122 258.81C370.122 260.069 370.122 280.839 370.122 282.223C372.133 320.113 403.427 348.185 441.759 348.185L670.996 348.185C671.122 348.185 671.373 348.185 671.499 348.185C677.531 348.311 683.689 348.185 689.722 347.933C690.099 347.933 690.35 347.933 690.727 347.933L679.291 320.743H679.416Z" stroke="#F7F7F7" stroke-width="0.8" stroke-miterlimit="10"/>
<path d="M660.69 313.82V259.062C660.69 223.941 632.287 195.492 597.223 195.492L450.431 195.492C415.367 195.492 386.963 223.941 386.963 259.062C386.963 260.195 386.963 278.573 386.963 279.706C388.723 313.19 416.498 338.115 450.431 338.115L653.275 338.115C653.401 338.115 653.527 338.115 653.778 338.115C659.182 338.115 664.586 338.115 669.865 337.989C670.116 337.989 670.493 337.989 670.745 337.989L660.69 313.946V313.82Z" stroke="#F7F7F7" stroke-width="0.7" stroke-miterlimit="10"/>
<path d="M641.839 306.896V259.188C641.839 228.599 617.08 203.8 586.54 203.8L458.851 203.8C428.311 203.8 403.553 228.599 403.553 259.188C403.553 260.195 403.553 276.181 403.553 277.188C405.061 306.393 429.191 327.918 458.725 327.918L635.303 327.918C635.429 327.918 635.555 327.918 635.68 327.918C640.33 327.918 644.981 327.918 649.756 327.792C650.008 327.792 650.259 327.792 650.51 327.792L641.713 306.896H641.839Z" stroke="#F7F7F7" stroke-width="0.6" stroke-miterlimit="10"/>
<path d="M623.113 299.973V259.439C623.113 233.382 601.999 212.36 576.109 212.36L467.397 212.36C441.382 212.36 420.394 233.508 420.394 259.439C420.394 260.32 420.394 273.915 420.394 274.796C421.776 299.595 442.262 317.973 467.397 317.973H617.708C617.708 317.973 617.96 317.973 618.085 317.973C622.107 317.973 626.003 317.973 630.025 317.848C630.276 317.848 630.402 317.848 630.653 317.848L623.238 300.098L623.113 299.973Z" stroke="#F7F7F7" stroke-width="0.5" stroke-miterlimit="10"/>
<path d="M604.387 293.049V259.565C604.387 238.039 587.043 220.668 565.552 220.668L475.943 220.668C454.453 220.668 437.109 238.039 437.109 259.565C437.109 260.32 437.109 271.524 437.109 272.153C438.24 292.671 455.081 307.777 475.818 307.777H599.737C599.737 307.777 599.862 307.777 599.988 307.777C603.256 307.777 606.523 307.777 609.791 307.777C609.916 307.777 610.168 307.777 610.294 307.777L604.135 293.049H604.387Z" stroke="#F7F7F7" stroke-width="0.4" stroke-miterlimit="10"/>
<path d="M585.535 286V259.565C585.535 242.697 571.836 228.976 554.995 228.976L484.364 228.976C467.523 228.976 453.824 242.697 453.824 259.565C453.824 260.069 453.824 269.006 453.824 269.51C454.704 285.622 468.026 297.581 484.364 297.581H582.016C582.016 297.581 582.142 297.581 582.267 297.581C584.906 297.581 587.42 297.581 590.059 297.581C590.185 297.581 590.311 297.581 590.436 297.581L585.535 286Z" stroke="#F7F7F7" stroke-width="0.3" stroke-miterlimit="10"/>
<path d="M566.809 279.077V259.817C566.809 247.481 556.755 237.41 544.438 237.41H492.91C480.594 237.41 470.539 247.481 470.539 259.817C470.539 260.194 470.539 266.74 470.539 267.118C471.168 278.951 480.845 287.636 492.784 287.636H564.044C564.044 287.636 564.044 287.636 564.17 287.636C566.055 287.636 567.94 287.636 569.825 287.636H570.076L566.557 279.202L566.809 279.077Z" stroke="#F7F7F7" stroke-width="0.2" stroke-miterlimit="10"/>
<path d="M548.083 272.153V259.943C548.083 252.138 541.799 245.844 534.007 245.844H501.456C493.664 245.844 487.38 252.138 487.38 259.943C487.38 260.195 487.38 264.223 487.38 264.475C487.757 271.901 493.915 277.44 501.456 277.44H546.449C547.58 277.44 548.837 277.44 549.968 277.44C549.968 277.44 550.094 277.44 550.219 277.44L547.957 272.153H548.083Z" stroke="#F7F7F7" stroke-width="0.1" stroke-miterlimit="10"/>
</g>
<defs>
<clipPath id="clip0_73_1496">
<rect width="1135" height="572" fill="white"/>
</clipPath>
</defs>
</svg>
