<svg width="1136" height="573" viewBox="0 0 1136 573" fill="none" xmlns="http://www.w3.org/2000/svg">
<g opacity="0.05" clip-path="url(#clip0_72_231)">
<path d="M1092.77 473.936V255.533C1092.77 115.555 979.533 2.13647 839.779 2.13647L255.25 2.13647C115.496 2.26235 2.25949 115.68 2.25949 255.659C2.25949 260.317 2.25949 333.579 2.63653 338.111C9.80018 471.67 120.146 570.612 255.25 570.612L1063.36 570.612C1063.99 570.612 1064.49 570.612 1065.12 570.612C1086.49 571.115 1107.98 570.612 1129.34 569.982C1130.47 569.982 1131.73 569.982 1132.86 569.982L1092.77 474.187V473.936Z" stroke="#F7F7F7" stroke-width="2.8" stroke-miterlimit="10"/>
<path d="M1074.04 467.012V255.785C1074.04 120.338 964.452 10.6963 829.222 10.6963L263.796 10.6963C128.566 10.6963 18.9747 120.464 18.9747 255.785C18.9747 260.191 18.9747 331.187 19.3517 335.467C26.264 464.746 132.965 560.29 263.796 560.29L1045.64 560.29C1046.27 560.29 1046.77 560.29 1047.4 560.29C1068.14 560.667 1088.87 560.29 1109.61 559.66C1110.74 559.66 1111.87 559.66 1113 559.66L1074.17 467.012H1074.04Z" stroke="#F7F7F7" stroke-width="2.7" stroke-miterlimit="10"/>
<path d="M1055.19 460.089V255.911C1055.19 125.121 949.245 19.0044 818.665 19.0044L272.216 19.0044C141.637 19.1303 35.6899 125.121 35.6899 256.037C35.6899 260.317 35.6899 328.796 36.0669 333.076C42.7279 457.949 145.91 550.345 272.216 550.345L1027.67 550.345C1028.17 550.345 1028.8 550.345 1029.3 550.345C1049.28 550.723 1069.39 550.345 1089.38 549.716C1090.51 549.716 1091.51 549.716 1092.64 549.716L1055.19 460.215V460.089Z" stroke="#F7F7F7" stroke-width="2.6" stroke-miterlimit="10"/>
<path d="M1036.47 453.165V256.163C1036.47 129.905 934.289 27.5642 808.234 27.5642L280.762 27.5642C154.707 27.5642 52.5308 129.905 52.5308 256.163C52.5308 260.317 52.5308 326.404 52.9078 330.558C59.3174 451.025 158.98 540.275 280.888 540.275L1010.07 540.275C1010.58 540.275 1011.2 540.275 1011.71 540.275C1031.06 540.652 1050.42 540.275 1069.64 539.645C1070.65 539.645 1071.78 539.645 1072.79 539.645L1036.59 453.291L1036.47 453.165Z" stroke="#F7F7F7" stroke-width="2.5" stroke-miterlimit="10"/>
<path d="M1017.74 446.242L1017.74 256.289C1017.74 134.562 919.208 35.8723 797.677 35.8723L289.309 35.8723C167.778 35.8723 69.246 134.562 69.246 256.289C69.246 260.317 69.246 324.012 69.623 328.04C75.7812 444.228 171.799 530.204 289.309 530.204L992.227 530.204C992.729 530.204 993.232 530.204 993.735 530.204C1012.34 530.582 1030.94 530.204 1049.66 529.575C1050.67 529.575 1051.67 529.575 1052.68 529.575L1017.74 446.242Z" stroke="#F7F7F7" stroke-width="2.4" stroke-miterlimit="10"/>
<path d="M998.888 439.319L998.888 256.54C998.888 139.346 904.001 44.4321 787.12 44.4321L297.729 44.4321C180.723 44.4321 85.9612 139.472 85.9612 256.54C85.9612 260.443 85.9612 321.746 86.2125 325.523C92.1194 437.305 184.619 520.134 297.729 520.134L974.255 520.134C974.758 520.134 975.26 520.134 975.763 520.134C993.735 520.511 1011.58 520.134 1029.55 519.504C1030.56 519.504 1031.56 519.504 1032.44 519.504L998.888 439.319Z" stroke="#F7F7F7" stroke-width="2.3" stroke-miterlimit="10"/>
<path d="M980.162 432.395L980.162 256.666C980.162 144.003 889.045 52.7402 776.563 52.7402L306.275 52.7402C193.793 52.7402 102.676 144.003 102.676 256.666C102.676 260.317 102.676 319.355 102.928 323.005C108.709 430.507 197.438 510.063 306.149 510.063L956.409 510.063C956.911 510.063 957.414 510.063 957.791 510.063C975.009 510.441 992.227 510.063 1009.44 509.56C1010.32 509.56 1011.33 509.56 1012.21 509.56L979.91 432.521L980.162 432.395Z" stroke="#F7F7F7" stroke-width="2.3" stroke-miterlimit="10"/>
<path d="M961.436 425.346L961.436 256.792C961.436 148.787 873.964 61.1743 766.132 61.1743L314.821 61.1743C206.989 61.1743 119.517 148.787 119.517 256.792C119.517 260.317 119.517 316.963 119.769 320.488C125.298 423.584 210.508 499.993 314.821 499.993L938.688 499.993C939.191 499.993 939.568 499.993 940.07 499.993C956.66 500.371 973.124 499.993 989.713 499.489C990.593 499.489 991.473 499.489 992.353 499.489L961.436 425.598V425.346Z" stroke="#F7F7F7" stroke-width="2.2" stroke-miterlimit="10"/>
<path d="M942.584 418.423V256.918C942.584 153.445 858.882 69.4824 755.449 69.4824L323.242 69.4824C219.934 69.4824 136.107 153.319 136.107 256.918C136.107 260.317 136.107 314.571 136.358 317.844C141.637 416.66 223.202 489.797 323.116 489.797L920.716 489.797C921.093 489.797 921.596 489.797 921.973 489.797C937.808 490.174 953.644 489.797 969.479 489.293C970.359 489.293 971.239 489.293 972.118 489.293L942.458 418.548L942.584 418.423Z" stroke="#F7F7F7" stroke-width="2.1" stroke-miterlimit="10"/>
<path d="M923.858 411.499V257.17C923.858 158.228 843.801 78.0422 745.018 78.0422L331.788 78.0422C233.005 78.0422 152.948 158.228 152.948 257.17C152.948 260.443 152.948 312.18 153.199 315.452C158.226 409.863 236.272 479.726 331.788 479.726L903.121 479.726C903.498 479.726 904.001 479.726 904.378 479.726C919.459 480.104 934.666 479.726 949.873 479.223C950.753 479.223 951.507 479.223 952.387 479.223L923.984 411.499H923.858Z" stroke="#F7F7F7" stroke-width="2" stroke-miterlimit="10"/>
<path d="M905.132 404.576V257.296C905.132 162.886 828.72 86.4763 734.461 86.4763L340.208 86.4763C245.95 86.4763 169.663 163.012 169.663 257.296C169.663 260.443 169.663 309.788 169.914 312.935C174.69 403.065 249.092 469.656 340.208 469.656L885.149 469.656C885.526 469.656 885.903 469.656 886.28 469.656C900.733 469.908 915.186 469.656 929.639 469.152C930.393 469.152 931.273 469.152 932.027 469.152L905.006 404.576H905.132Z" stroke="#F7F7F7" stroke-width="1.9" stroke-miterlimit="10"/>
<path d="M886.406 397.652V257.547C886.406 167.669 813.764 94.9102 724.03 94.9102L348.88 94.9102C259.146 94.9102 186.504 167.669 186.504 257.547C186.504 260.443 186.504 307.522 186.755 310.417C191.28 396.142 262.162 459.585 348.88 459.585L867.554 459.585C867.931 459.585 868.308 459.585 868.685 459.585C882.384 459.837 896.209 459.585 909.908 459.208C910.662 459.208 911.416 459.208 912.17 459.208L886.406 397.778V397.652Z" stroke="#F7F7F7" stroke-width="1.8" stroke-miterlimit="10"/>
<path d="M867.554 390.729V257.673C867.554 172.453 798.557 103.344 713.473 103.344L357.3 103.344C272.216 103.344 203.219 172.453 203.219 257.673C203.219 260.443 203.219 305.13 203.47 307.9C207.743 389.218 275.107 449.515 357.426 449.515L849.833 449.515C850.211 449.515 850.588 449.515 850.965 449.515C864.035 449.767 877.106 449.515 890.176 449.137C890.93 449.137 891.559 449.137 892.313 449.137L867.931 390.855L867.554 390.729Z" stroke="#F7F7F7" stroke-width="1.7" stroke-miterlimit="10"/>
<path d="M848.828 383.805V257.925C848.828 177.236 783.475 111.778 702.916 111.778L365.847 111.778C285.287 111.778 219.934 177.236 219.934 257.925C219.934 260.569 219.934 302.864 220.186 305.508C224.333 382.547 287.926 439.57 365.847 439.57L831.861 439.57C832.238 439.57 832.49 439.57 832.867 439.57C845.183 439.822 857.625 439.57 869.942 439.193C870.57 439.193 871.324 439.193 871.953 439.193L848.828 383.931V383.805Z" stroke="#F7F7F7" stroke-width="1.6" stroke-miterlimit="10"/>
<path d="M830.102 376.756V257.925C830.102 181.768 768.52 120.086 692.484 120.086L374.393 120.086C298.357 120.086 236.775 181.768 236.775 257.925C236.775 260.443 236.775 300.347 237.026 302.738C240.922 375.371 300.997 429.248 374.518 429.248L814.266 429.248C814.644 429.248 814.895 429.248 815.272 429.248C826.96 429.5 838.522 429.248 850.21 428.87C850.839 428.87 851.467 428.87 852.096 428.87L830.228 376.756H830.102Z" stroke="#F7F7F7" stroke-width="1.5" stroke-miterlimit="10"/>
<path d="M811.25 369.833V258.177C811.25 186.551 753.313 128.52 681.802 128.52L382.813 128.52C311.302 128.52 253.365 186.551 253.365 258.177C253.365 260.569 253.365 298.081 253.49 300.347C257.135 368.7 313.565 419.304 382.688 419.304L796.043 419.304C796.295 419.304 796.672 419.304 796.923 419.304C807.857 419.555 818.791 419.304 829.851 418.926C830.479 418.926 831.107 418.926 831.61 418.926L811.125 369.959L811.25 369.833Z" stroke="#F7F7F7" stroke-width="1.4" stroke-miterlimit="10"/>
<path d="M792.524 362.909V258.303C792.524 191.209 738.231 136.954 671.37 136.954L391.359 136.954C324.373 136.954 270.205 191.334 270.205 258.303C270.205 260.569 270.205 295.563 270.331 297.829C273.724 361.776 326.635 409.233 391.359 409.233L778.448 409.233C778.7 409.233 779.077 409.233 779.328 409.233C789.634 409.485 799.813 409.233 810.119 408.856C810.622 408.856 811.25 408.856 811.753 408.856L792.524 363.035V362.909Z" stroke="#F7F7F7" stroke-width="1.3" stroke-miterlimit="10"/>
<path d="M773.798 355.986V258.555C773.798 196.118 723.275 145.388 660.813 145.388L399.905 145.388C337.569 145.388 286.921 195.992 286.921 258.555C286.921 260.569 286.921 293.298 287.046 295.312C290.188 354.979 339.454 399.037 399.78 399.037L760.602 399.037C760.853 399.037 761.105 399.037 761.356 399.037C770.908 399.289 780.459 399.037 790.011 398.785C790.513 398.785 791.016 398.785 791.519 398.785L773.547 355.986H773.798Z" stroke="#F7F7F7" stroke-width="1.2" stroke-miterlimit="10"/>
<path d="M754.946 349.063V258.681C754.946 200.776 708.068 153.822 650.256 153.822L408.326 153.822C350.514 153.822 303.636 200.776 303.636 258.681C303.636 260.569 303.636 290.906 303.762 292.794C306.652 348.056 352.399 388.967 408.326 388.967L742.756 388.967C743.007 388.967 743.258 388.967 743.51 388.967C752.433 389.093 761.23 388.967 770.153 388.715C770.656 388.715 771.159 388.715 771.536 388.715L754.946 349.063Z" stroke="#F7F7F7" stroke-width="1.2" stroke-miterlimit="10"/>
<path d="M736.22 342.139V258.932C736.22 205.559 692.987 162.256 639.699 162.256L416.872 162.256C363.584 162.256 320.351 205.559 320.351 258.932C320.351 260.694 320.351 288.64 320.477 290.402C323.242 341.384 365.218 379.022 416.746 379.022L724.909 379.022C725.161 379.022 725.412 379.022 725.538 379.022C733.707 379.148 741.876 379.022 750.045 378.77C750.548 378.77 750.925 378.77 751.427 378.77L736.095 342.265L736.22 342.139Z" stroke="#F7F7F7" stroke-width="1.1" stroke-miterlimit="10"/>
<path d="M717.494 335.216V259.058C717.494 210.217 678.031 170.69 629.268 170.69L425.418 170.69C376.655 170.69 337.192 210.217 337.192 259.058C337.192 260.695 337.192 286.248 337.318 287.759C339.831 334.335 378.289 368.826 425.418 368.826L707.189 368.826C707.44 368.826 707.566 368.826 707.817 368.826C715.232 368.952 722.773 368.826 730.188 368.574C730.565 368.574 730.942 368.574 731.445 368.574L717.494 335.216Z" stroke="#F7F7F7" stroke-miterlimit="10"/>
<path d="M698.643 328.166V259.184C698.643 214.874 662.824 179.124 618.711 179.124L433.839 179.124C389.6 179.124 353.907 215 353.907 259.184C353.907 260.694 353.907 283.856 353.907 285.241C356.169 327.411 391.108 358.755 433.839 358.755L689.342 358.755C689.468 358.755 689.719 358.755 689.845 358.755C696.632 358.881 703.418 358.755 710.205 358.503C710.582 358.503 710.959 358.503 711.336 358.503L698.643 328.292V328.166Z" stroke="#F7F7F7" stroke-width="0.9" stroke-miterlimit="10"/>
<path d="M679.916 321.243V259.31C679.916 219.657 647.743 187.432 608.154 187.432L442.385 187.432C402.796 187.432 370.622 219.657 370.622 259.31C370.622 260.569 370.622 281.339 370.622 282.723C372.633 320.613 403.927 348.685 442.259 348.685L671.496 348.685C671.622 348.685 671.873 348.685 671.999 348.685C678.031 348.811 684.19 348.685 690.222 348.433C690.599 348.433 690.85 348.433 691.228 348.433L679.791 321.243H679.916Z" stroke="#F7F7F7" stroke-width="0.8" stroke-miterlimit="10"/>
<path d="M661.19 314.32V259.562C661.19 224.441 632.787 195.992 597.723 195.992L450.931 195.992C415.867 195.992 387.463 224.441 387.463 259.562C387.463 260.695 387.463 279.073 387.463 280.206C389.223 313.69 416.998 338.615 450.931 338.615L653.775 338.615C653.901 338.615 654.027 338.615 654.278 338.615C659.682 338.615 665.086 338.615 670.365 338.489C670.616 338.489 670.993 338.489 671.245 338.489L661.19 314.446V314.32Z" stroke="#F7F7F7" stroke-width="0.7" stroke-miterlimit="10"/>
<path d="M642.339 307.396V259.687C642.339 229.098 617.58 204.3 587.04 204.3L459.351 204.3C428.811 204.3 404.053 229.098 404.053 259.687C404.053 260.694 404.053 276.681 404.053 277.688C405.561 306.892 429.691 328.418 459.226 328.418L635.803 328.418C635.929 328.418 636.055 328.418 636.18 328.418C640.831 328.418 645.481 328.418 650.256 328.292C650.508 328.292 650.759 328.292 651.01 328.292L642.213 307.396H642.339Z" stroke="#F7F7F7" stroke-width="0.6" stroke-miterlimit="10"/>
<path d="M623.613 300.473V259.939C623.613 233.882 602.499 212.86 576.609 212.86L467.897 212.86C441.882 212.86 420.894 234.008 420.894 259.939C420.894 260.82 420.894 274.416 420.894 275.297C422.276 300.095 442.762 318.474 467.897 318.474H618.208C618.208 318.474 618.46 318.474 618.585 318.474C622.607 318.474 626.503 318.474 630.525 318.348C630.776 318.348 630.902 318.348 631.153 318.348L623.738 300.599L623.613 300.473Z" stroke="#F7F7F7" stroke-width="0.5" stroke-miterlimit="10"/>
<path d="M604.887 293.549V260.065C604.887 238.54 587.543 221.168 566.052 221.168L476.443 221.168C454.953 221.168 437.609 238.54 437.609 260.065C437.609 260.82 437.609 272.024 437.609 272.653C438.74 293.172 455.581 308.277 476.318 308.277H600.237C600.237 308.277 600.362 308.277 600.488 308.277C603.756 308.277 607.023 308.277 610.291 308.277C610.416 308.277 610.668 308.277 610.794 308.277L604.635 293.549H604.887Z" stroke="#F7F7F7" stroke-width="0.4" stroke-miterlimit="10"/>
<path d="M586.035 286.5V260.065C586.035 243.197 572.336 229.476 555.495 229.476L484.864 229.476C468.023 229.476 454.324 243.197 454.324 260.065C454.324 260.569 454.324 269.506 454.324 270.01C455.204 286.122 468.526 298.081 484.864 298.081H582.516C582.516 298.081 582.642 298.081 582.767 298.081C585.406 298.081 587.92 298.081 590.559 298.081C590.685 298.081 590.811 298.081 590.936 298.081L586.035 286.5Z" stroke="#F7F7F7" stroke-width="0.3" stroke-miterlimit="10"/>
<path d="M567.309 279.577V260.317C567.309 247.981 557.255 237.91 544.938 237.91H493.41C481.094 237.91 471.039 247.981 471.039 260.317C471.039 260.694 471.039 267.24 471.039 267.618C471.668 279.451 481.345 288.136 493.284 288.136H564.544C564.544 288.136 564.544 288.136 564.67 288.136C566.555 288.136 568.44 288.136 570.325 288.136H570.576L567.057 279.702L567.309 279.577Z" stroke="#F7F7F7" stroke-width="0.2" stroke-miterlimit="10"/>
<path d="M548.583 272.653V260.443C548.583 252.638 542.299 246.344 534.507 246.344H501.956C494.164 246.344 487.88 252.638 487.88 260.443C487.88 260.695 487.88 264.723 487.88 264.975C488.257 272.401 494.415 277.94 501.956 277.94H546.949C548.08 277.94 549.337 277.94 550.468 277.94C550.468 277.94 550.594 277.94 550.719 277.94L548.457 272.653H548.583Z" stroke="#F7F7F7" stroke-width="0.1" stroke-miterlimit="10"/>
</g>
<defs>
<clipPath id="clip0_72_231">
<rect width="1135" height="572" fill="white" transform="translate(0.5 0.5)"/>
</clipPath>
</defs>
</svg>
